<svg width="48" height="48" viewBox="0 0 48 48" fill="none" xmlns="http://www.w3.org/2000/svg">
<path d="M36 0C42.6274 0 48 5.37258 48 12V36C48 42.6274 42.6274 48 36 48H12C5.37258 48 0 42.6274 0 36V12C0 5.37258 5.37258 0 12 0H36Z" fill="url(#paint0_linear_105_6187)"/>
<path d="M36 0C42.6274 0 48 5.37258 48 12V36C48 42.6274 42.6274 48 36 48H12C5.37258 48 0 42.6274 0 36V12C0 5.37258 5.37258 0 12 0H36Z" stroke="#E5E7EB"/>
<path d="M24.1328 16.8281L20.3516 19.8906C19.7227 20.3984 19.6016 21.3125 20.0781 21.9648C20.582 22.6602 21.5625 22.7969 22.2383 22.2695L26.1172 19.2539C26.3906 19.043 26.7812 19.0898 26.9961 19.3633C27.2109 19.6367 27.1602 20.0273 26.8867 20.2422L26.0703 20.875L31.5 25.875V18.5H31.4727L31.3203 18.4023L28.4844 16.5859C27.8867 16.2031 27.1875 16 26.4766 16C25.625 16 24.7969 16.293 24.1328 16.8281ZM25.0234 21.6875L23.0039 23.2578C21.7734 24.2188 19.9883 23.9688 19.0664 22.7031C18.1992 21.5117 18.418 19.8477 19.5625 18.9219L22.8125 16.293C22.3594 16.1016 21.8711 16.0039 21.375 16.0039C20.6406 16 19.9258 16.2188 19.3125 16.625L16.5 18.5V27.25H17.6016L21.1719 30.5078C21.9375 31.207 23.1211 31.1523 23.8203 30.3867C24.0352 30.1484 24.1797 29.8711 24.2539 29.582L24.918 30.1914C25.6797 30.8906 26.8672 30.8398 27.5664 30.0781C27.7422 29.8867 27.8711 29.6641 27.9531 29.4336C28.7109 29.9414 29.7422 29.8359 30.3789 29.1406C31.0781 28.3789 31.0273 27.1914 30.2656 26.4922L25.0234 21.6875ZM12.125 18.5C11.7812 18.5 11.5 18.7812 11.5 19.125V27.25C11.5 27.9414 12.0586 28.5 12.75 28.5H14C14.6914 28.5 15.25 27.9414 15.25 27.25V18.5H12.125ZM13.375 26C13.5408 26 13.6997 26.0658 13.8169 26.1831C13.9342 26.3003 14 26.4592 14 26.625C14 26.7908 13.9342 26.9497 13.8169 27.0669C13.6997 27.1842 13.5408 27.25 13.375 27.25C13.2092 27.25 13.0503 27.1842 12.9331 27.0669C12.8158 26.9497 12.75 26.7908 12.75 26.625C12.75 26.4592 12.8158 26.3003 12.9331 26.1831C13.0503 26.0658 13.2092 26 13.375 26ZM32.75 18.5V27.25C32.75 27.9414 33.3086 28.5 34 28.5H35.25C35.9414 28.5 36.5 27.9414 36.5 27.25V19.125C36.5 18.7812 36.2188 18.5 35.875 18.5H32.75ZM34 26.625C34 26.4592 34.0658 26.3003 34.1831 26.1831C34.3003 26.0658 34.4592 26 34.625 26C34.7908 26 34.9497 26.0658 35.0669 26.1831C35.1842 26.3003 35.25 26.4592 35.25 26.625C35.25 26.7908 35.1842 26.9497 35.0669 27.0669C34.9497 27.1842 34.7908 27.25 34.625 27.25C34.4592 27.25 34.3003 27.1842 34.1831 27.0669C34.0658 26.9497 34 26.7908 34 26.625Z" fill="white"/>
<defs>
<linearGradient id="paint0_linear_105_6187" x1="0" y1="24" x2="48" y2="24" gradientUnits="userSpaceOnUse">
<stop stop-color="#0AB27E"/>
<stop offset="1" stop-color="#0AB27E" stop-opacity="0.8"/>
</linearGradient>
</defs>
</svg>
