<svg width="48" height="48" viewBox="0 0 48 48" fill="none" xmlns="http://www.w3.org/2000/svg">
<path d="M36 0C42.6274 0 48 5.37258 48 12V36C48 42.6274 42.6274 48 36 48H12C5.37258 48 0 42.6274 0 36V12C0 5.37258 5.37258 0 12 0H36Z" fill="url(#paint0_linear_105_6144)"/>
<path d="M36 0C42.6274 0 48 5.37258 48 12V36C48 42.6274 42.6274 48 36 48H12C5.37258 48 0 42.6274 0 36V12C0 5.37258 5.37258 0 12 0H36Z" stroke="#E5E7EB"/>
<path d="M32.5249 14.2451C31.6694 13.3896 30.2866 13.3896 29.4312 14.2451L28.2554 15.417L32.0796 19.2412L33.2554 18.0654C34.1108 17.21 34.1108 15.8271 33.2554 14.9717L32.5249 14.2451ZM20.8374 22.8389C20.5991 23.0771 20.4155 23.3701 20.3101 23.6943L19.1538 27.1631C19.0405 27.499 19.1304 27.8701 19.3804 28.124C19.6304 28.3779 20.0015 28.4639 20.3413 28.3506L23.8101 27.1943C24.1304 27.0889 24.4233 26.9053 24.6655 26.667L31.2007 20.1279L27.3726 16.2998L20.8374 22.8389ZM17.853 15.8975C15.7827 15.8975 14.103 17.5771 14.103 19.6475V29.6475C14.103 31.7178 15.7827 33.3975 17.853 33.3975H27.853C29.9233 33.3975 31.603 31.7178 31.603 29.6475V25.8975C31.603 25.2061 31.0444 24.6475 30.353 24.6475C29.6616 24.6475 29.103 25.2061 29.103 25.8975V29.6475C29.103 30.3389 28.5444 30.8975 27.853 30.8975H17.853C17.1616 30.8975 16.603 30.3389 16.603 29.6475V19.6475C16.603 18.9561 17.1616 18.3975 17.853 18.3975H21.603C22.2944 18.3975 22.853 17.8389 22.853 17.1475C22.853 16.4561 22.2944 15.8975 21.603 15.8975H17.853Z" fill="white"/>
<defs>
<linearGradient id="paint0_linear_105_6144" x1="0" y1="24" x2="48" y2="24" gradientUnits="userSpaceOnUse">
<stop stop-color="#023AA2"/>
<stop offset="1" stop-color="#023AA2" stop-opacity="0.8"/>
</linearGradient>
</defs>
</svg>
