<svg width="48" height="48" viewBox="0 0 48 48" fill="none" xmlns="http://www.w3.org/2000/svg">
<path d="M36 0C42.6274 0 48 5.37258 48 12V36C48 42.6274 42.6274 48 36 48H12C5.37258 48 0 42.6274 0 36V12C0 5.37258 5.37258 0 12 0H36Z" fill="url(#paint0_linear_105_6144)"/>
<path d="M36 0C42.6274 0 48 5.37258 48 12V36C48 42.6274 42.6274 48 36 48H12C5.37258 48 0 42.6274 0 36V12C0 5.37258 5.37258 0 12 0H36Z" stroke="#E5E7EB"/>
<path d="M32.5254 14.2451C31.6699 13.3896 30.2871 13.3896 29.4316 14.2451L28.2559 15.417L32.0801 19.2412L33.2559 18.0654C34.1113 17.21 34.1113 15.8271 33.2559 14.9717L32.5254 14.2451ZM20.8379 22.8389C20.5996 23.0771 20.416 23.3701 20.3105 23.6943L19.1543 27.1631C19.041 27.499 19.1309 27.8701 19.3809 28.124C19.6309 28.3779 20.002 28.4639 20.3418 28.3506L23.8105 27.1943C24.1309 27.0889 24.4238 26.9053 24.666 26.667L31.2012 20.1279L27.373 16.2998L20.8379 22.8389ZM17.8535 15.8975C15.7832 15.8975 14.1035 17.5771 14.1035 19.6475V29.6475C14.1035 31.7178 15.7832 33.3975 17.8535 33.3975H27.8535C29.9238 33.3975 31.6035 31.7178 31.6035 29.6475V25.8975C31.6035 25.2061 31.0449 24.6475 30.3535 24.6475C29.6621 24.6475 29.1035 25.2061 29.1035 25.8975V29.6475C29.1035 30.3389 28.5449 30.8975 27.8535 30.8975H17.8535C17.1621 30.8975 16.6035 30.3389 16.6035 29.6475V19.6475C16.6035 18.9561 17.1621 18.3975 17.8535 18.3975H21.6035C22.2949 18.3975 22.8535 17.8389 22.8535 17.1475C22.8535 16.4561 22.2949 15.8975 21.6035 15.8975H17.8535Z" fill="white"/>
<defs>
<linearGradient id="paint0_linear_105_6144" x1="0" y1="24" x2="48" y2="24" gradientUnits="userSpaceOnUse">
<stop stop-color="#023AA2"/>
<stop offset="1" stop-color="#023AA2" stop-opacity="0.8"/>
</linearGradient>
</defs>
</svg>
