<svg xmlns="http://www.w3.org/2000/svg" width="15" height="16" viewBox="0 0 15 16" fill="none">
  <path d="M2.93639 0C1.62704 0 0.5625 0.896875 0.5625 2V14C0.5625 15.1031 1.62704 16 2.93639 16H12.4319C13.7413 16 14.8058 15.1031 14.8058 14V5H10.058C9.40152 5 8.87111 4.55312 8.87111 4V0H2.93639ZM10.058 0V4H14.8058L10.058 0ZM3.52986 2H5.90375C6.23016 2 6.49722 2.225 6.49722 2.5C6.49722 2.775 6.23016 3 5.90375 3H3.52986C3.20345 3 2.93639 2.775 2.93639 2.5C2.93639 2.225 3.20345 2 3.52986 2ZM3.52986 4H5.90375C6.23016 4 6.49722 4.225 6.49722 4.5C6.49722 4.775 6.23016 5 5.90375 5H3.52986C3.20345 5 2.93639 4.775 2.93639 4.5C2.93639 4.225 3.20345 4 3.52986 4ZM5.54025 11.9312C5.31398 12.5656 4.62036 13 3.83401 13H3.52986C3.20345 13 2.93639 12.775 2.93639 12.5C2.93639 12.225 3.20345 12 3.52986 12H3.83401C4.09737 12 4.32734 11.8562 4.40152 11.6438L4.95419 10.0969C5.0803 9.74375 5.46606 9.5 5.90375 9.5C6.34143 9.5 6.72719 9.74063 6.8533 10.0969L7.28357 11.3031C7.55805 11.1094 7.90671 11 8.27763 11C8.8674 11 9.40523 11.2812 9.66858 11.725L9.83179 12H11.8385C12.1649 12 12.4319 12.225 12.4319 12.5C12.4319 12.775 12.1649 13 11.8385 13H9.46458C9.23832 13 9.03431 12.8938 8.93416 12.725L8.60775 12.1719C8.5447 12.0656 8.41858 12 8.28134 12C8.1441 12 8.01428 12.0656 7.95493 12.1719L7.62852 12.725C7.52096 12.9094 7.28728 13.0188 7.04618 13C6.80508 12.9812 6.59737 12.8406 6.5306 12.6469L5.90375 10.9062L5.54025 11.9312Z" fill="white"/>
</svg>