<svg width="11" height="15" viewBox="0 0 11 15" fill="none" xmlns="http://www.w3.org/2000/svg">
<g clip-path="url(#clip0_978_2303)">
<path d="M7.61991 10.7619C7.88896 9.86787 8.44667 9.10557 8.99878 8.34607C9.14451 8.14709 9.29024 7.94811 9.43037 7.74632C9.98528 6.94759 10.3104 5.9807 10.3104 4.93534C10.3104 2.20843 8.10195 0 5.37785 0C2.65374 0 0.445312 2.20843 0.445312 4.93253C0.445312 5.9779 0.770411 6.94759 1.32532 7.74352C1.46545 7.9453 1.61118 8.14429 1.75692 8.34327C2.31183 9.10277 2.86954 9.86787 3.13579 10.7591H7.61991V10.7619ZM5.37785 14.3492C6.61659 14.3492 7.61991 13.3459 7.61991 12.1071V11.6587H3.13579V12.1071C3.13579 13.3459 4.13911 14.3492 5.37785 14.3492ZM3.13579 4.93253C3.13579 5.17916 2.934 5.38095 2.68737 5.38095C2.44075 5.38095 2.23896 5.17916 2.23896 4.93253C2.23896 3.19774 3.64305 1.79365 5.37785 1.79365C5.62447 1.79365 5.82626 1.99543 5.82626 2.24206C5.82626 2.48869 5.62447 2.69047 5.37785 2.69047C4.13911 2.69047 3.13579 3.6938 3.13579 4.93253Z" fill="#0AB27E"/>
</g>
<defs>
<clipPath id="clip0_978_2303">
<path d="M0 0H10.7619V14.3492H0V0Z" fill="white"/>
</clipPath>
</defs>
</svg>
