<svg width="21" height="16" viewBox="0 0 21 16" fill="none" xmlns="http://www.w3.org/2000/svg">
<g clip-path="url(#clip0_194_2246)">
<path d="M6.53135 11C10.122 11 13.0313 8.5375 13.0313 5.5C13.0313 2.4625 10.122 0 6.53135 0C2.94072 0 0.0313479 2.4625 0.0313479 5.5C0.0313479 6.70625 0.490723 7.82187 1.26885 8.73125C1.15947 9.025 0.996973 9.28438 0.825098 9.50313C0.675098 9.69688 0.521973 9.84688 0.409473 9.95C0.353223 10 0.306348 10.0406 0.275098 10.0656C0.259473 10.0781 0.246973 10.0875 0.240723 10.0906L0.234473 10.0969C0.0625979 10.225 -0.0124021 10.45 0.0563479 10.6531C0.125098 10.8562 0.315723 11 0.531348 11C1.2126 11 1.9001 10.825 2.47197 10.6094C2.75947 10.5 3.02822 10.3781 3.2626 10.2531C4.22197 10.7281 5.3376 11 6.53135 11ZM14.0313 5.5C14.0313 9.00937 10.9345 11.6531 7.26572 11.9688C8.0251 14.2937 10.5438 16 13.5313 16C14.7251 16 15.8407 15.7281 16.8032 15.2531C17.0376 15.3781 17.3032 15.5 17.5907 15.6094C18.1626 15.825 18.8501 16 19.5313 16C19.747 16 19.9407 15.8594 20.0063 15.6531C20.072 15.4469 20.0001 15.2219 19.8251 15.0938L19.8188 15.0875C19.8126 15.0812 19.8001 15.075 19.7845 15.0625C19.7532 15.0375 19.7063 15 19.6501 14.9469C19.5376 14.8438 19.3845 14.6938 19.2345 14.5C19.0626 14.2812 18.9001 14.0187 18.7907 13.7281C19.5688 12.8219 20.0282 11.7063 20.0282 10.4969C20.0282 7.59687 17.3751 5.21875 14.0095 5.0125C14.022 5.17188 14.0282 5.33437 14.0282 5.49687L14.0313 5.5Z" fill="#023AA2"/>
</g>
<defs>
<clipPath id="clip0_194_2246">
<path d="M0.03125 0H20.0312V16H0.03125V0Z" fill="white"/>
</clipPath>
</defs>
</svg>
