<svg width="14" height="15" viewBox="0 0 14 15" fill="none" xmlns="http://www.w3.org/2000/svg">
<g clip-path="url(#clip0_105_6106)">
<path d="M7 0.75C8.85652 0.75 10.637 1.4875 11.9497 2.80025C13.2625 4.11301 14 5.89348 14 7.75C14 9.60652 13.2625 11.387 11.9497 12.6997C10.637 14.0125 8.85652 14.75 7 14.75C5.14348 14.75 3.36301 14.0125 2.05025 12.6997C0.737498 11.387 0 9.60652 0 7.75C0 5.89348 0.737498 4.11301 2.05025 2.80025C3.36301 1.4875 5.14348 0.75 7 0.75ZM6.34375 4.03125V7.75C6.34375 7.96875 6.45312 8.17383 6.63633 8.29688L9.26133 10.0469C9.56211 10.2492 9.96953 10.1672 10.1719 9.86367C10.3742 9.56016 10.2922 9.15547 9.98867 8.95312L7.65625 7.4V4.03125C7.65625 3.66758 7.36367 3.375 7 3.375C6.63633 3.375 6.34375 3.66758 6.34375 4.03125Z" fill="#023AA2"/>
</g>
<defs>
<clipPath id="clip0_105_6106">
<path d="M0 0.75H14V14.75H0V0.75Z" fill="white"/>
</clipPath>
</defs>
</svg>
