<svg width="40" height="39" viewBox="0 0 40 39" fill="none" xmlns="http://www.w3.org/2000/svg">
<path fill-rule="evenodd" clip-rule="evenodd" d="M10.6986 14.06C10.9779 13.7913 11.3525 13.6444 11.7401 13.6517C12.1277 13.659 12.4965 13.8199 12.7656 14.099L20.0001 21.7781L27.2346 14.099C27.3661 13.9541 27.5253 13.837 27.7029 13.7547C27.8805 13.6724 28.0728 13.6266 28.2684 13.62C28.464 13.6134 28.659 13.6461 28.8417 13.7162C29.0245 13.7863 29.1913 13.8924 29.3323 14.0282C29.4732 14.1639 29.5855 14.3266 29.6625 14.5066C29.7395 14.6865 29.7795 14.8801 29.7803 15.0759C29.7811 15.2716 29.7425 15.4655 29.667 15.646C29.5915 15.8266 29.4805 15.9902 29.3406 16.127L21.0531 24.9021C20.9166 25.0436 20.7531 25.1562 20.5721 25.2331C20.3912 25.31 20.1966 25.3496 20.0001 25.3496C19.8035 25.3496 19.6089 25.31 19.428 25.2331C19.247 25.1562 19.0835 25.0436 18.9471 24.9021L10.6596 16.127C10.3908 15.8477 10.2439 15.4731 10.2512 15.0855C10.2586 14.6979 10.4194 14.3291 10.6986 14.06Z" fill="black"/>
</svg>
