<svg width="13" height="13" viewBox="0 0 13 13" fill="none" xmlns="http://www.w3.org/2000/svg">
<path d="M10.0497 5.65936L10.3265 5.38258L9.49614 4.55223L7.97506 3.03114L7.14471 2.20079L6.86792 2.47758L6.31436 3.03114L1.43514 7.91036C1.1804 8.1651 0.994244 8.48108 0.891368 8.82644L0.0242778 11.7755C-0.0369574 11.9813 0.019379 12.2042 0.173692 12.356C0.328004 12.5079 0.548451 12.5642 0.754201 12.5055L3.70084 11.6384C4.04621 11.5355 4.36218 11.3493 4.61692 11.0946L9.49614 6.21537L10.0497 5.65936ZM3.91884 9.78416L3.69594 10.3402C3.59796 10.4161 3.48774 10.4724 3.37017 10.5092L1.45473 11.0725L2.0181 9.15956C2.05239 9.03954 2.11117 8.92932 2.18711 8.83379L2.74312 8.6109V9.39471C2.74312 9.61025 2.91948 9.78661 3.13503 9.78661H3.91884V9.78416ZM8.88379 0.459264L8.53107 0.814428L7.97751 1.36799L7.69827 1.64478L8.52862 2.47513L10.0497 3.99621L10.8801 4.82656L11.1568 4.54978L11.7104 3.99621L12.0656 3.64105C12.6779 3.02869 12.6779 2.03668 12.0656 1.42433L11.103 0.459264C10.4906 -0.153088 9.49859 -0.153088 8.88624 0.459264H8.88379ZM7.72277 4.57427L4.19562 8.10142C4.04376 8.25328 3.79392 8.25328 3.64205 8.10142C3.49019 7.94955 3.49019 7.69972 3.64205 7.54785L7.1692 4.0207C7.32107 3.86884 7.5709 3.86884 7.72277 4.0207C7.87463 4.17257 7.87463 4.42241 7.72277 4.57427Z" fill="#556070"/>
</svg>
