<svg width="17" height="16" viewBox="0 0 17 16" fill="none" xmlns="http://www.w3.org/2000/svg">
<g clip-path="url(#clip0_194_2005)">
<path d="M11.4688 8C11.4688 8.69375 11.4313 9.3625 11.3656 10H5.57188C5.50313 9.3625 5.46875 8.69375 5.46875 8C5.46875 7.30625 5.50625 6.6375 5.57188 6H11.3656C11.4344 6.6375 11.4688 7.30625 11.4688 8ZM12.3687 6H16.2156C16.3812 6.64062 16.4688 7.30937 16.4688 8C16.4688 8.69063 16.3812 9.35938 16.2156 10H12.3687C12.4344 9.35625 12.4688 8.6875 12.4688 8C12.4688 7.3125 12.4344 6.64375 12.3687 6ZM15.8875 5H12.2406C11.9281 3.00312 11.3094 1.33125 10.5125 0.2625C12.9594 0.909375 14.95 2.68438 15.8844 5H15.8875ZM11.2281 5H5.70937C5.9 3.8625 6.19375 2.85625 6.55312 2.04063C6.88125 1.30313 7.24687 0.76875 7.6 0.43125C7.95 0.1 8.24062 0 8.46875 0C8.69687 0 8.9875 0.1 9.3375 0.43125C9.69062 0.76875 10.0562 1.30313 10.3844 2.04063C10.7469 2.85313 11.0375 3.85938 11.2281 5ZM4.69688 5H1.05C1.9875 2.68438 3.975 0.909375 6.425 0.2625C5.62813 1.33125 5.00938 3.00312 4.69688 5ZM0.721875 6H4.56875C4.50312 6.64375 4.46875 7.3125 4.46875 8C4.46875 8.6875 4.50312 9.35625 4.56875 10H0.721875C0.55625 9.35938 0.46875 8.69063 0.46875 8C0.46875 7.30937 0.55625 6.64062 0.721875 6ZM6.55312 13.9563C6.19062 13.1438 5.9 12.1375 5.70937 11H11.2281C11.0375 12.1375 10.7437 13.1438 10.3844 13.9563C10.0562 14.6938 9.69062 15.2281 9.3375 15.5656C8.9875 15.9 8.69687 16 8.46875 16C8.24062 16 7.95 15.9 7.6 15.5688C7.24687 15.2313 6.88125 14.6969 6.55312 13.9594V13.9563ZM4.69688 11C5.00938 12.9969 5.62813 14.6687 6.425 15.7375C3.975 15.0906 1.9875 13.3156 1.05 11H4.69688ZM15.8875 11C14.95 13.3156 12.9625 15.0906 10.5156 15.7375C11.3125 14.6687 11.9281 12.9969 12.2437 11H15.8875Z" fill="#023AA2"/>
</g>
<defs>
<clipPath id="clip0_194_2005">
<path d="M0.46875 0H16.4688V16H0.46875V0Z" fill="white"/>
</clipPath>
</defs>
</svg>
