<svg width="21" height="12" viewBox="0 0 21 12" fill="none" xmlns="http://www.w3.org/2000/svg">
<path d="M10.4344 0.6625L7.40938 3.1125C6.90625 3.51875 6.80938 4.25 7.19063 4.77187C7.59375 5.32812 8.37813 5.4375 8.91875 5.01562L12.0219 2.60313C12.2406 2.43438 12.5531 2.47188 12.725 2.69063C12.8969 2.90938 12.8562 3.22188 12.6375 3.39375L11.9844 3.9L16.3281 7.9V2H16.3062L16.1844 1.92188L13.9156 0.46875C13.4375 0.1625 12.8781 0 12.3094 0C11.6281 0 10.9656 0.234375 10.4344 0.6625ZM11.1469 4.55L9.53125 5.80625C8.54688 6.575 7.11875 6.375 6.38125 5.3625C5.6875 4.40938 5.8625 3.07812 6.77812 2.3375L9.37813 0.234375C9.01562 0.08125 8.625 0.00312495 8.22813 0.00312495C7.64062 -4.77303e-08 7.06875 0.175 6.57812 0.5L4.32812 2V9H5.20937L8.06563 11.6062C8.67813 12.1656 9.625 12.1219 10.1844 11.5094C10.3562 11.3187 10.4719 11.0969 10.5312 10.8656L11.0625 11.3531C11.6719 11.9125 12.6219 11.8719 13.1812 11.2625C13.3219 11.1094 13.425 10.9312 13.4906 10.7469C14.0969 11.1531 14.9219 11.0687 15.4312 10.5125C15.9906 9.90312 15.95 8.95312 15.3406 8.39375L11.1469 4.55ZM0.828125 2C0.553125 2 0.328125 2.225 0.328125 2.5V9C0.328125 9.55313 0.775 10 1.32812 10H2.32812C2.88125 10 3.32812 9.55313 3.32812 9V2H0.828125ZM1.82812 8C1.96073 8 2.08791 8.05268 2.18168 8.14645C2.27545 8.24021 2.32812 8.36739 2.32812 8.5C2.32812 8.63261 2.27545 8.75979 2.18168 8.85355C2.08791 8.94732 1.96073 9 1.82812 9C1.69552 9 1.56834 8.94732 1.47457 8.85355C1.3808 8.75979 1.32812 8.63261 1.32812 8.5C1.32812 8.36739 1.3808 8.24021 1.47457 8.14645C1.56834 8.05268 1.69552 8 1.82812 8ZM17.3281 2V9C17.3281 9.55313 17.775 10 18.3281 10H19.3281C19.8813 10 20.3281 9.55313 20.3281 9V2.5C20.3281 2.225 20.1031 2 19.8281 2H17.3281ZM18.3281 8.5C18.3281 8.36739 18.3808 8.24021 18.4746 8.14645C18.5683 8.05268 18.6955 8 18.8281 8C18.9607 8 19.0879 8.05268 19.1817 8.14645C19.2754 8.24021 19.3281 8.36739 19.3281 8.5C19.3281 8.63261 19.2754 8.75979 19.1817 8.85355C19.0879 8.94732 18.9607 9 18.8281 9C18.6955 9 18.5683 8.94732 18.4746 8.85355C18.3808 8.75979 18.3281 8.63261 18.3281 8.5Z" fill="#023AA2"/>
</svg>
