<svg width="12" height="12" viewBox="0 0 12 12" fill="none" xmlns="http://www.w3.org/2000/svg">
<path fill-rule="evenodd" clip-rule="evenodd" d="M5.99929 9.27202C7.80676 9.27202 9.27202 7.80676 9.27202 5.99929C9.27202 4.19181 7.80676 2.72656 5.99929 2.72656C4.19181 2.72656 2.72656 4.19181 2.72656 5.99929C2.72656 7.80676 4.19181 9.27202 5.99929 9.27202ZM5.99929 8.18111C7.20425 8.18111 8.18111 7.20425 8.18111 5.99929C8.18111 4.7943 7.20425 3.81747 5.99929 3.81747C4.7943 3.81747 3.81747 4.7943 3.81747 5.99929C3.81747 7.20425 4.7943 8.18111 5.99929 8.18111Z" fill="#D1D5DB"/>
<path d="M9.27202 2.18164C8.97076 2.18164 8.72656 2.42585 8.72656 2.7271C8.72656 3.02834 8.97076 3.27255 9.27202 3.27255C9.57327 3.27255 9.81747 3.02834 9.81747 2.7271C9.81747 2.42585 9.57327 2.18164 9.27202 2.18164Z" fill="#D1D5DB"/>
<path fill-rule="evenodd" clip-rule="evenodd" d="M0.356705 1.78694C0 2.48702 0 3.40347 0 5.23636V6.76364C0 8.59653 0 9.513 0.356705 10.213C0.670473 10.8289 1.17113 11.3295 1.78694 11.6433C2.48702 12 3.40347 12 5.23636 12H6.76364C8.59653 12 9.513 12 10.213 11.6433C10.8289 11.3295 11.3295 10.8289 11.6433 10.213C12 9.513 12 8.59653 12 6.76364V5.23636C12 3.40347 12 2.48702 11.6433 1.78694C11.3295 1.17113 10.8289 0.670473 10.213 0.356705C9.513 0 8.59653 0 6.76364 0H5.23636C3.40347 0 2.48702 0 1.78694 0.356705C1.17113 0.670473 0.670473 1.17113 0.356705 1.78694ZM6.76364 1.09091H5.23636C4.30191 1.09091 3.66668 1.09176 3.17568 1.13187C2.6974 1.17095 2.45282 1.24178 2.2822 1.32871C1.87167 1.53789 1.53789 1.87167 1.32871 2.2822C1.24178 2.45282 1.17095 2.6974 1.13187 3.17568C1.09176 3.66668 1.09091 4.30191 1.09091 5.23636V6.76364C1.09091 7.69811 1.09176 8.33329 1.13187 8.82431C1.17095 9.30262 1.24178 9.5472 1.32871 9.71782C1.53789 10.1283 1.87167 10.4621 2.2822 10.6713C2.45282 10.7582 2.6974 10.8291 3.17568 10.8681C3.66668 10.9082 4.30191 10.9091 5.23636 10.9091H6.76364C7.69811 10.9091 8.33329 10.9082 8.82431 10.8681C9.30262 10.8291 9.5472 10.7582 9.71782 10.6713C10.1283 10.4621 10.4621 10.1283 10.6713 9.71782C10.7582 9.5472 10.8291 9.30262 10.8681 8.82431C10.9082 8.33329 10.9091 7.69811 10.9091 6.76364V5.23636C10.9091 4.30191 10.9082 3.66668 10.8681 3.17568C10.8291 2.6974 10.7582 2.45282 10.6713 2.2822C10.4621 1.87167 10.1283 1.53789 9.71782 1.32871C9.5472 1.24178 9.30262 1.17095 8.82431 1.13187C8.33329 1.09176 7.69811 1.09091 6.76364 1.09091Z" fill="#D1D5DB"/>
</svg>
