<svg width="12" height="13" viewBox="0 0 12 13" fill="none" xmlns="http://www.w3.org/2000/svg">
<path d="M6 0.5C2.68594 0.5 0 3.18594 0 6.5C0 9.81406 2.68594 12.5 6 12.5C9.31406 12.5 12 9.81406 12 6.5C12 3.18594 9.31406 0.5 6 0.5ZM4.32187 9.01016H3.15234V5.26719H4.32187V9.01016ZM3.70547 4.79844H3.69609C3.27187 4.79844 2.99766 4.5125 2.99766 4.14922C2.99766 3.77891 3.28125 3.5 3.7125 3.5C4.14375 3.5 4.40859 3.77891 4.41797 4.14922C4.42031 4.51016 4.14609 4.79844 3.70547 4.79844ZM9 9.01016H7.67344V7.07422C7.67344 6.56797 7.46719 6.22109 7.01016 6.22109C6.66094 6.22109 6.46641 6.45547 6.37734 6.68047C6.34453 6.76016 6.34922 6.87266 6.34922 6.9875V9.01016H5.03438C5.03438 9.01016 5.05078 5.57891 5.03438 5.26719H6.34922V5.85547C6.42656 5.59766 6.84609 5.23203 7.51641 5.23203C8.34844 5.23203 9 5.77109 9 6.92891V9.01016Z" fill="#D1D5DB"/>
</svg>
