<svg width="22" height="24" viewBox="0 0 22 24" fill="none" xmlns="http://www.w3.org/2000/svg">
<g clip-path="url(#clip0_207_3524)">
<path d="M6.99916 6.88392V9.10304H14.3962V6.88392C14.3962 4.84048 12.7411 3.18539 10.6977 3.18539C8.65425 3.18539 6.99916 4.84048 6.99916 6.88392ZM4.04033 9.10304V6.88392C4.04033 3.20851 7.02227 0.226562 10.6977 0.226562C14.3731 0.226562 17.3551 3.20851 17.3551 6.88392V9.10304H18.0948C19.7267 9.10304 21.0536 10.4299 21.0536 12.0619V20.9384C21.0536 22.5703 19.7267 23.8972 18.0948 23.8972H3.30062C1.66865 23.8972 0.341797 22.5703 0.341797 20.9384V12.0619C0.341797 10.4299 1.66865 9.10304 3.30062 9.10304H4.04033Z" fill="#059669"/>
</g>
<defs>
<clipPath id="clip0_207_3524">
<path d="M0.341797 0.226562H21.0536V23.8972H0.341797V0.226562Z" fill="white"/>
</clipPath>
</defs>
</svg>
