<svg width="12" height="10" viewBox="0 0 12 10" fill="none" xmlns="http://www.w3.org/2000/svg">
<path fill-rule="evenodd" clip-rule="evenodd" d="M3.09645 0C2.22677 0 1.44033 0.21736 0.869515 0.747402C0.293285 1.28248 0 2.07707 0 3.09645V6.86604C0 7.88544 0.293285 8.68002 0.869515 9.21509C1.44033 9.74514 2.22677 9.96249 3.09645 9.96249H8.48158C9.35127 9.96249 10.1377 9.74514 10.7085 9.21509C11.2847 8.68002 11.578 7.88544 11.578 6.86604V3.09645C11.578 2.07707 11.2847 1.28248 10.7085 0.747402C10.1377 0.21736 9.35127 0 8.48158 0H3.09645ZM9.68165 3.0223C9.85812 2.88591 9.89065 2.63226 9.75424 2.45576C9.61789 2.27925 9.36425 2.24673 9.18773 2.38312L6.20054 4.69131C5.95816 4.87866 5.61981 4.87866 5.37737 4.69131L2.39024 2.38312C2.21373 2.24673 1.96009 2.27925 1.8237 2.45576C1.68731 2.63226 1.71983 2.88591 1.89634 3.0223L4.8835 5.33052C5.41685 5.74259 6.16112 5.74259 6.69447 5.33052L9.68165 3.0223Z" fill="#A6A6A6"/>
</svg>
