<svg width="9" height="16" viewBox="0 0 9 16" fill="none" xmlns="http://www.w3.org/2000/svg">
<path d="M0 4.5C0 3.30653 0.474106 2.16193 1.31802 1.31802C2.16193 0.474106 3.30653 0 4.5 0C5.69347 0 6.83807 0.474106 7.68198 1.31802C8.52589 2.16193 9 3.30653 9 4.5C9 5.69347 8.52589 6.83807 7.68198 7.68198C6.83807 8.52589 5.69347 9 4.5 9C3.30653 9 2.16193 8.52589 1.31802 7.68198C0.474106 6.83807 0 5.69347 0 4.5ZM4.5 2.5C4.775 2.5 5 2.275 5 2C5 1.725 4.775 1.5 4.5 1.5C2.84375 1.5 1.5 2.84375 1.5 4.5C1.5 4.775 1.725 5 2 5C2.275 5 2.5 4.775 2.5 4.5C2.5 3.39687 3.39687 2.5 4.5 2.5ZM3.5 15V9.90938C3.825 9.96875 4.15938 10 4.5 10C4.84062 10 5.175 9.96875 5.5 9.90938V15C5.5 15.5531 5.05312 16 4.5 16C3.94688 16 3.5 15.5531 3.5 15Z" fill="#64748B"/>
</svg>
