<svg width="9" height="13" viewBox="0 0 9 13" fill="none" xmlns="http://www.w3.org/2000/svg">
<path d="M4.44194 0C1.99308 0 1.0501e-06 1.99387 0 4.44273C-1.53476e-06 8.75167 4.19188 12.0274 4.19188 12.0274C4.33914 12.1447 4.5479 12.1447 4.69516 12.0274C4.69516 12.0274 8.88784 8.75167 8.88783 4.44273C8.88782 1.99387 6.89081 0 4.44194 0ZM4.44194 2.4241C5.55245 2.4241 6.46373 3.33222 6.46373 4.44273C6.46374 5.55325 5.55246 6.46373 4.44194 6.46373C3.33142 6.46373 2.4233 5.55325 2.42331 4.44273C2.42331 3.33222 3.33143 2.4241 4.44194 2.4241Z" fill="#A6A6A6"/>
</svg>
