<svg width="26" height="26" viewBox="0 0 26 26" fill="none" xmlns="http://www.w3.org/2000/svg">
<path fill-rule="evenodd" clip-rule="evenodd" d="M13.1649 25.7001C13.1631 25.8153 13.0698 25.9091 12.9545 25.9091C12.8393 25.9091 12.746 25.8154 12.7442 25.7001C12.693 22.3819 11.4201 19.4745 8.92733 16.9818C6.43456 14.489 3.52912 13.216 0.209012 13.1649C0.0937413 13.1631 0 13.0698 0 12.9545C0 12.8393 0.0937412 12.746 0.209012 12.7442C3.52912 12.6931 6.43456 11.42 8.92733 8.92101C11.4199 6.42223 12.6929 3.51691 12.7442 0.209002C12.746 0.0937318 12.8393 0 12.9545 0C13.0698 0 13.1631 0.0937384 13.1649 0.209009C13.2161 3.52716 14.489 6.43459 16.9818 8.92733C19.4745 11.4201 22.38 12.6931 25.7001 12.7442C25.8153 12.746 25.9091 12.8393 25.9091 12.9545C25.9091 13.0698 25.8154 13.1631 25.7001 13.1649C22.3819 13.2161 19.4745 14.489 16.9818 16.9818C14.489 19.4745 13.216 22.38 13.1649 25.7001Z" fill="#121212"/>
</svg>
