<svg width="31" height="24" viewBox="0 0 31 24" fill="none" xmlns="http://www.w3.org/2000/svg">
<g clip-path="url(#clip0_207_3530)">
<path d="M7.18812 0.226562C8.16904 0.226563 9.10977 0.616228 9.80338 1.30984C10.497 2.00345 10.8867 2.94418 10.8867 3.9251C10.8867 4.90601 10.497 5.84675 9.80338 6.54036C9.10977 7.23396 8.16904 7.62363 7.18812 7.62363C6.20721 7.62363 5.26647 7.23396 4.57286 6.54036C3.87925 5.84675 3.48959 4.90601 3.48959 3.9251C3.48959 2.94418 3.87925 2.00345 4.57286 1.30984C5.26647 0.616228 6.20721 0.226563 7.18812 0.226562ZM24.2014 0.226562C25.1823 0.226563 26.123 0.616228 26.8166 1.30984C27.5102 2.00345 27.8999 2.94418 27.8999 3.9251C27.8999 4.90601 27.5102 5.84675 26.8166 6.54036C26.123 7.23396 25.1823 7.62363 24.2014 7.62363C23.2205 7.62363 22.2797 7.23396 21.5861 6.54036C20.8925 5.84675 20.5028 4.90601 20.5028 3.9251C20.5028 2.94418 20.8925 2.00345 21.5861 1.30984C22.2797 0.616228 23.2205 0.226563 24.2014 0.226562ZM0.530762 14.036C0.530762 11.3129 2.74064 9.10304 5.46368 9.10304H7.43777C8.17286 9.10304 8.87096 9.26486 9.49971 9.55149C9.43961 9.88436 9.41187 10.2311 9.41187 10.5825C9.41187 12.3485 10.1886 13.9343 11.4137 15.0207C11.4045 15.0207 11.3952 15.0207 11.3813 15.0207H1.5155C0.974586 15.0207 0.530762 14.5769 0.530762 14.036ZM19.2685 15.0207C19.2592 15.0207 19.25 15.0207 19.2361 15.0207C20.4659 13.9343 21.2379 12.3485 21.2379 10.5825C21.2379 10.2311 21.2056 9.88898 21.1501 9.55149C21.7788 9.26023 22.4769 9.10304 23.212 9.10304H25.1861C27.9092 9.10304 30.119 11.3129 30.119 14.036C30.119 14.5815 29.6752 15.0207 29.1343 15.0207H19.2685ZM10.8867 10.5825C10.8867 9.40536 11.3543 8.27648 12.1866 7.44415C13.0189 6.61182 14.1478 6.14422 15.3249 6.14422C16.502 6.14422 17.6309 6.61182 18.4632 7.44415C19.2955 8.27648 19.7631 9.40536 19.7631 10.5825C19.7631 11.7596 19.2955 12.8884 18.4632 13.7208C17.6309 14.5531 16.502 15.0207 15.3249 15.0207C14.1478 15.0207 13.0189 14.5531 12.1866 13.7208C11.3543 12.8884 10.8867 11.7596 10.8867 10.5825ZM6.44842 22.6628C6.44842 19.2601 9.20845 16.5001 12.6111 16.5001H18.0387C21.4413 16.5001 24.2014 19.2601 24.2014 22.6628C24.2014 23.3424 23.6512 23.8972 22.967 23.8972H7.6828C7.0032 23.8972 6.44842 23.347 6.44842 22.6628Z" fill="#2563EB"/>
</g>
<defs>
<clipPath id="clip0_207_3530">
<path d="M0.530762 0.226562H30.119V23.8972H0.530762V0.226562Z" fill="white"/>
</clipPath>
</defs>
</svg>
