<svg width="10" height="10" viewBox="0 0 10 10" fill="none" xmlns="http://www.w3.org/2000/svg">
<path d="M6.76167 5.87313L6.51638 6.11696C6.51638 6.11696 5.93339 6.69667 4.34208 5.11436C2.75079 3.53211 3.33377 2.95243 3.33377 2.95243L3.48822 2.79885C3.86873 2.42053 3.90459 1.81312 3.5726 1.36969L2.89357 0.462624C2.48269 -0.086207 1.68875 -0.158707 1.21782 0.309551L0.372569 1.15C0.139059 1.38219 -0.0174219 1.68317 0.00155533 2.01706C0.0501023 2.87125 0.436577 4.70913 2.59313 6.85343C4.88006 9.12736 7.02587 9.21772 7.90337 9.13592C8.18092 9.11007 8.42229 8.96871 8.6168 8.77528L9.38181 8.01468C9.89819 7.50121 9.75257 6.62096 9.09187 6.26182L8.06304 5.70253C7.62922 5.46671 7.10072 5.53596 6.76167 5.87313Z" fill="#A6A6A6"/>
</svg>
