<svg width="16" height="16" viewBox="0 0 16 16" fill="none" xmlns="http://www.w3.org/2000/svg">
<g clip-path="url(#clip0_108_8006)">
<path d="M2.45616 0.156626C2.15928 -0.0746243 1.73741 -0.0464993 1.46866 0.219126L0.218659 1.46913C-0.046966 1.73475 -0.075091 2.15663 0.153034 2.45663L2.65303 5.70663C2.79366 5.891 3.01553 6.00038 3.24678 6.00038H4.93741L8.34366 9.40663C7.88428 10.3129 8.03116 11.4504 8.79053 12.2066L12.2905 15.7066C12.6812 16.0973 13.3155 16.0973 13.7062 15.7066L15.7062 13.7066C16.0968 13.316 16.0968 12.6816 15.7062 12.291L12.2062 8.791C11.4499 8.03475 10.3124 7.88475 9.40616 8.34413L5.99991 4.93788V3.25038C5.99991 3.016 5.89053 2.79725 5.70616 2.65663L2.45616 0.156626ZM0.621784 12.3785C0.224909 12.7754 -9.10025e-05 13.316 -9.10025e-05 13.8785C-9.10025e-05 15.0504 0.949909 16.0004 2.12178 16.0004C2.68428 16.0004 3.22491 15.7754 3.62178 15.3785L7.30303 11.6973C7.05928 11.0441 7.02178 10.3348 7.19053 9.66288L5.26241 7.73475L0.621784 12.3785ZM15.9999 4.50038C15.9999 4.17225 15.9655 3.8535 15.8999 3.54725C15.8249 3.19725 15.3968 3.10663 15.1437 3.35975L13.1468 5.35663C13.053 5.45038 12.9249 5.5035 12.7937 5.5035H10.9999C10.7249 5.5035 10.4999 5.2785 10.4999 5.0035V3.20663C10.4999 3.07538 10.553 2.94725 10.6468 2.8535L12.6437 0.856626C12.8968 0.603501 12.8062 0.175376 12.4562 0.100376C12.1468 0.0347507 11.828 0.000375661 11.4999 0.000375661C9.01553 0.000375661 6.99991 2.016 6.99991 4.50038V4.52538L9.66553 7.191C10.7905 6.90663 12.0343 7.20663 12.9155 8.08788L13.4062 8.5785C14.9374 7.85975 15.9999 6.3035 15.9999 4.50038ZM1.74991 13.5004C1.74991 13.3015 1.82893 13.1107 1.96958 12.97C2.11023 12.8294 2.301 12.7504 2.49991 12.7504C2.69882 12.7504 2.88959 12.8294 3.03024 12.97C3.17089 13.1107 3.24991 13.3015 3.24991 13.5004C3.24991 13.6993 3.17089 13.8901 3.03024 14.0307C2.88959 14.1714 2.69882 14.2504 2.49991 14.2504C2.301 14.2504 2.11023 14.1714 1.96958 14.0307C1.82893 13.8901 1.74991 13.6993 1.74991 13.5004Z" fill="#023AA2"/>
</g>
<defs>
<clipPath id="clip0_108_8006">
<path d="M0 0H16V16H0V0Z" fill="white"/>
</clipPath>
</defs>
</svg>
