<svg width="17" height="16" viewBox="0 0 17 16" fill="none" xmlns="http://www.w3.org/2000/svg">
<g clip-path="url(#clip0_194_1998)">
<path d="M8.20314 0C8.34689 0 8.49064 0.03125 8.62189 0.090625L14.5063 2.5875C15.1938 2.87813 15.7063 3.55625 15.7031 4.375C15.6875 7.475 14.4125 13.1469 9.02814 15.725C8.50626 15.975 7.90001 15.975 7.37814 15.725C1.99376 13.1469 0.718764 7.475 0.703139 4.375C0.700014 3.55625 1.21251 2.87813 1.90001 2.5875L7.78751 0.090625C7.91564 0.03125 8.05939 0 8.20314 0ZM8.20314 2.0875V13.9C12.5156 11.8125 13.675 7.19062 13.7031 4.41875L8.20314 2.0875Z" fill="#023AA2"/>
</g>
<defs>
<clipPath id="clip0_194_1998">
<path d="M0.203125 0H16.2031V16H0.203125V0Z" fill="white"/>
</clipPath>
</defs>
</svg>
