<svg width="15" height="15" viewBox="0 0 15 15" fill="none" xmlns="http://www.w3.org/2000/svg">
<path d="M7.23242 0.891504C7.63984 0.702832 8.11016 0.702832 8.51758 0.891504L14.4949 3.65322C14.7273 3.75986 14.875 3.99229 14.875 4.24932C14.875 4.50635 14.7273 4.73877 14.4949 4.84541L8.51758 7.60713C8.11016 7.7958 7.63984 7.7958 7.23242 7.60713L1.25508 4.84541C1.02266 4.73604 0.875 4.50361 0.875 4.24932C0.875 3.99502 1.02266 3.75986 1.25508 3.65322L7.23242 0.891504ZM13.0402 6.48057L14.4949 7.15322C14.7273 7.25986 14.875 7.49229 14.875 7.74932C14.875 8.00635 14.7273 8.23877 14.4949 8.34541L8.51758 11.1071C8.11016 11.2958 7.63984 11.2958 7.23242 11.1071L1.25508 8.34541C1.02266 8.23603 0.875 8.00361 0.875 7.74932C0.875 7.49502 1.02266 7.25986 1.25508 7.15322L2.70977 6.48057L6.86602 8.4001C7.50586 8.69541 8.24414 8.69541 8.88398 8.4001L13.0402 6.48057ZM8.88398 11.9001L13.0402 9.98057L14.4949 10.6532C14.7273 10.7599 14.875 10.9923 14.875 11.2493C14.875 11.5063 14.7273 11.7388 14.4949 11.8454L8.51758 14.6071C8.11016 14.7958 7.63984 14.7958 7.23242 14.6071L1.25508 11.8454C1.02266 11.736 0.875 11.5036 0.875 11.2493C0.875 10.995 1.02266 10.7599 1.25508 10.6532L2.70977 9.98057L6.86602 11.9001C7.50586 12.1954 8.24414 12.1954 8.88398 11.9001Z" fill="#023AA2"/>
</svg>
