<svg width="17" height="14" viewBox="0 0 17 14" fill="none" xmlns="http://www.w3.org/2000/svg">
<path d="M2.5625 1C2.5625 0.446875 2.11563 0 1.5625 0C1.00937 0 0.5625 0.446875 0.5625 1V11.5C0.5625 12.8813 1.68125 14 3.0625 14H15.5625C16.1156 14 16.5625 13.5531 16.5625 13C16.5625 12.4469 16.1156 12 15.5625 12H3.0625C2.7875 12 2.5625 11.775 2.5625 11.5V1ZM15.2688 3.70625C15.6594 3.31563 15.6594 2.68125 15.2688 2.29063C14.8781 1.9 14.2437 1.9 13.8531 2.29063L10.5625 5.58437L8.76875 3.79063C8.37813 3.4 7.74375 3.4 7.35313 3.79063L3.85313 7.29062C3.4625 7.68125 3.4625 8.31563 3.85313 8.70625C4.24375 9.09688 4.87813 9.09688 5.26875 8.70625L8.0625 5.91563L9.85625 7.70938C10.2469 8.1 10.8813 8.1 11.2719 7.70938L15.2719 3.70937L15.2688 3.70625Z" fill="#023AA2"/>
</svg>
