<svg width="13" height="13" viewBox="0 0 13 13" fill="none" xmlns="http://www.w3.org/2000/svg">
<path fill-rule="evenodd" clip-rule="evenodd" d="M10.2238 9.12527C10.068 9.56612 9.44896 9.93082 8.95525 10.0375C8.61728 10.1092 8.17656 10.166 6.69156 9.55061C5.02368 8.8596 2.70764 6.39816 2.70764 4.76016C2.70764 3.92629 3.18843 2.9553 4.02915 2.9553C4.43368 2.9553 4.52286 2.96319 4.65598 3.28251C4.81172 3.65872 5.1917 4.58562 5.23693 4.68064C5.42369 5.07043 5.04694 5.29861 4.77359 5.63798C4.68635 5.7401 4.58749 5.85056 4.69799 6.0406C4.80785 6.22677 5.18782 6.84604 5.74615 7.34313C6.46732 7.98566 7.05215 8.19079 7.26152 8.27806C7.41726 8.3427 7.60337 8.32764 7.7171 8.20611C7.86121 8.05033 8.04021 7.79187 8.22244 7.53718C8.35104 7.35489 8.51454 7.33213 8.68579 7.39677C8.80146 7.43685 10.2716 8.11959 10.3336 8.22883C10.3795 8.30834 10.3795 8.68441 10.2238 9.12527ZM6.46345 0H6.46021C2.89763 0 0 2.8985 0 6.46215C0 7.87521 0.455586 9.18617 1.2304 10.2495L0.425213 12.6507L2.90862 11.8572C3.93029 12.5333 5.14969 12.9243 6.46345 12.9243C10.026 12.9243 12.9243 10.0258 12.9243 6.46215C12.9243 2.8985 10.026 0 6.46345 0Z" fill="#A6A6A6"/>
</svg>
