<svg width="26" height="28" viewBox="0 0 26 28" fill="none" xmlns="http://www.w3.org/2000/svg">
<path d="M12.0134 25.4766H5.93555V27.6472H12.0134V25.4766Z" fill="#023AA2"/>
<path d="M18.9587 25.4766H12.8809V27.6472H18.9587V25.4766Z" fill="#023AA2"/>
<path d="M25.904 25.4766H19.8262V27.6472H25.904V25.4766Z" fill="#023AA2"/>
<path d="M8.53876 22.4375H2.46094V24.6081H8.53876V22.4375Z" fill="#023AA2"/>
<path d="M15.486 22.4375H9.4082V24.6081H15.486V22.4375Z" fill="#023AA2"/>
<path d="M22.4313 22.4375H16.3535V24.6081H22.4313V22.4375Z" fill="#023AA2"/>
<path d="M25.9056 22.4375H23.3008V24.6081H25.9056V22.4375Z" fill="#023AA2"/>
<path d="M2.46094 19.7383V21.5686H5.06572V20.9373C4.10198 20.7342 3.21897 20.3144 2.46094 19.7383Z" fill="#023AA2"/>
<path d="M5.06572 25.4766H2.46094V27.6472H5.06572V25.4766Z" fill="#023AA2"/>
<path d="M6.42395 21.0807C6.25897 21.0807 6.09749 21.0681 5.93555 21.0559V21.5691H12.0134V19.3984H10.7973C9.63476 20.4408 8.10449 21.0807 6.42395 21.0807Z" fill="#023AA2"/>
<path d="M18.9587 19.3984H12.8809V21.5691H18.9587V19.3984Z" fill="#023AA2"/>
<path d="M25.904 19.3984H19.8262V21.5691H25.904V19.3984Z" fill="#023AA2"/>
<path d="M15.4864 18.53V16.3594H12.7214C12.4874 17.1569 12.105 17.8892 11.6074 18.53H15.4864Z" fill="#023AA2"/>
<path d="M22.4313 16.3594H16.3535V18.53H22.4313V16.3594Z" fill="#023AA2"/>
<path d="M25.9056 16.3594H23.3008V18.53H25.9056V16.3594Z" fill="#023AA2"/>
<path d="M12.8809 13.3568C12.9481 13.7332 12.9894 14.1187 12.9894 14.5142C12.9894 14.8468 12.9564 15.1715 12.9086 15.491H18.9587V13.3203H12.8809V13.3568Z" fill="#023AA2"/>
<path d="M25.904 13.3203H19.8262V15.4909H25.904V13.3203Z" fill="#023AA2"/>
<path d="M2.95001 7.41423C2.60098 7.85487 2.52153 8.59851 2.53148 9.2376C2.53452 9.42428 2.54405 9.60229 2.55708 9.75987C2.57356 9.95477 2.5944 10.1197 2.61092 10.2348L2.68039 10.2248C1.48434 11.2689 0.725087 12.8013 0.725087 14.514C0.725087 16.5905 1.8395 18.4021 3.49916 19.398C3.98016 19.6867 4.50634 19.9055 5.06639 20.0427C5.34859 20.1117 5.63769 20.1621 5.93465 20.1872C6.09613 20.2011 6.25807 20.212 6.42305 20.212C7.49361 20.212 8.49126 19.9116 9.34689 19.398C9.75412 19.1536 10.1313 18.8649 10.4643 18.5297C11.0656 17.9246 11.5271 17.1835 11.8097 16.3591C12.0081 15.7795 12.121 15.1609 12.121 14.514C12.121 14.1372 12.0823 13.7695 12.0124 13.4131C12.0063 13.3819 12.0003 13.351 11.9933 13.3202C11.4441 10.7467 9.16017 8.81611 6.423 8.81611C6.31232 8.81611 6.20459 8.82651 6.09568 8.83259L6.11084 8.82001C5.99017 8.6746 5.87554 8.54608 5.76181 8.41932C5.63674 8.27999 5.51693 8.15365 5.39971 8.03602C4.73937 7.37178 4.19935 7.05008 3.73524 7.04314L0.833637 0.263265C0.738979 0.0427154 0.484153 -0.058888 0.263604 0.0349067C0.0431003 0.12911 -0.0593658 0.38439 0.0352462 0.604939L2.95001 7.41423ZM4.38567 8.27554C4.49549 8.36629 4.61879 8.47739 4.75903 8.61763C4.86277 8.72095 4.97654 8.84208 5.09853 8.9771C4.49726 9.12033 3.93463 9.35868 3.42411 9.67561C3.41154 9.50672 3.40627 9.34174 3.40586 9.18198C3.40546 9.00443 3.41022 8.83295 3.42411 8.67973C3.42847 8.62938 3.43583 8.58684 3.44191 8.5399C3.46402 8.57549 3.48922 8.60632 3.51918 8.6337C3.59863 8.70534 3.69982 8.74915 3.80747 8.74915C3.86435 8.74915 3.92251 8.73784 3.97808 8.71401C4.13788 8.64586 4.23249 8.4926 4.23817 8.32979C4.24035 8.26769 4.23208 8.20477 4.20648 8.14398L4.20212 8.13399C4.25805 8.17353 4.31925 8.22043 4.38567 8.27554Z" fill="#023AA2"/>
</svg>
