<svg width="65" height="64" viewBox="0 0 65 64" fill="none" xmlns="http://www.w3.org/2000/svg">
<path d="M32.5 0C50.1731 0 64.5 14.3269 64.5 32C64.5 49.6731 50.1731 64 32.5 64C14.8269 64 0.5 49.6731 0.5 32C0.5 14.3269 14.8269 0 32.5 0Z" fill="#DBEAFE"/>
<path d="M32.5 0C50.1731 0 64.5 14.3269 64.5 32C64.5 49.6731 50.1731 64 32.5 64C14.8269 64 0.5 49.6731 0.5 32C0.5 14.3269 14.8269 0 32.5 0Z" stroke="#E5E7EB"/>
<path d="M32.0125 43.4766H25.9347V45.6472H32.0125V43.4766Z" fill="#023AA2"/>
<path d="M38.9586 43.4766H32.8807V45.6472H38.9586V43.4766Z" fill="#023AA2"/>
<path d="M45.9046 43.4766H39.8268V45.6472H45.9046V43.4766Z" fill="#023AA2"/>
<path d="M28.5394 40.4375H22.4616V42.6081H28.5394V40.4375Z" fill="#023AA2"/>
<path d="M35.4855 40.4375H29.4077V42.6081H35.4855V40.4375Z" fill="#023AA2"/>
<path d="M42.4316 40.4375H36.3538V42.6081H42.4316V40.4375Z" fill="#023AA2"/>
<path d="M45.9046 40.4375H43.2999V42.6081H45.9046V40.4375Z" fill="#023AA2"/>
<path d="M22.4616 37.7383V39.5686H25.0664V38.9373C24.1027 38.7342 23.2196 38.3144 22.4616 37.7383Z" fill="#023AA2"/>
<path d="M25.0664 43.4766H22.4616V45.6472H25.0664V43.4766Z" fill="#023AA2"/>
<path d="M26.4231 39.0807C26.2581 39.0807 26.0966 39.0681 25.9347 39.0559V39.5691H32.0125V37.3984H30.7965C29.6339 38.4408 28.1036 39.0807 26.4231 39.0807Z" fill="#023AA2"/>
<path d="M38.9586 37.3984H32.8807V39.5691H38.9586V37.3984Z" fill="#023AA2"/>
<path d="M45.9046 37.3984H39.8268V39.5691H45.9046V37.3984Z" fill="#023AA2"/>
<path d="M35.4855 36.53V34.3594H32.7206C32.4866 35.1569 32.1041 35.8892 31.6066 36.53H35.4855Z" fill="#023AA2"/>
<path d="M42.4316 34.3594H36.3538V36.53H42.4316V34.3594Z" fill="#023AA2"/>
<path d="M45.9046 34.3594H43.2999V36.53H45.9046V34.3594Z" fill="#023AA2"/>
<path d="M32.8807 31.3568C32.948 31.7332 32.9893 32.1187 32.9893 32.5142C32.9893 32.8468 32.9563 33.1715 32.9085 33.491H38.9586V31.3203H32.8807V31.3568Z" fill="#023AA2"/>
<path d="M45.9046 31.3203H39.8268V33.4909H45.9046V31.3203Z" fill="#023AA2"/>
<path d="M22.95 25.4142C22.601 25.8549 22.5216 26.5985 22.5315 27.2376C22.5345 27.4243 22.5441 27.6023 22.5571 27.7599C22.5736 27.9548 22.5944 28.1197 22.611 28.2348L22.6804 28.2248C21.4844 29.2689 20.7251 30.8013 20.7251 32.514C20.7251 34.5905 21.8395 36.4021 23.4992 37.398C23.9802 37.6867 24.5064 37.9055 25.0664 38.0427C25.3486 38.1117 25.6377 38.1621 25.9347 38.1872C26.0962 38.2011 26.2581 38.212 26.4231 38.212C27.4936 38.212 28.4913 37.9116 29.3469 37.398C29.7542 37.1536 30.1314 36.8649 30.4643 36.5297C31.0656 35.9246 31.5271 35.1835 31.8097 34.3591C32.0081 33.7795 32.121 33.1609 32.121 32.514C32.121 32.1372 32.0823 31.7695 32.0124 31.4131C32.0064 31.3819 32.0003 31.351 31.9933 31.3202C31.4441 28.7467 29.1602 26.8161 26.423 26.8161C26.3124 26.8161 26.2046 26.8265 26.0957 26.8326L26.1109 26.82C25.9902 26.6746 25.8756 26.5461 25.7618 26.4193C25.6368 26.28 25.517 26.1536 25.3997 26.036C24.7394 25.3718 24.1994 25.0501 23.7353 25.0431L20.8337 18.2633C20.739 18.0427 20.4842 17.9411 20.2636 18.0349C20.0431 18.1291 19.9407 18.3844 20.0353 18.6049L22.95 25.4142ZM24.3857 26.2755C24.4955 26.3663 24.6188 26.4774 24.7591 26.6176C24.8628 26.721 24.9766 26.8421 25.0986 26.9771C24.4973 27.1203 23.9347 27.3587 23.4241 27.6756C23.4116 27.5067 23.4063 27.3417 23.4059 27.182C23.4055 27.0044 23.4103 26.833 23.4241 26.6797C23.4285 26.6294 23.4359 26.5868 23.4419 26.5399C23.4641 26.5755 23.4892 26.6063 23.5192 26.6337C23.5987 26.7053 23.6999 26.7491 23.8075 26.7491C23.8644 26.7491 23.9225 26.7378 23.9781 26.714C24.1379 26.6459 24.2325 26.4926 24.2382 26.3298C24.2404 26.2677 24.2321 26.2048 24.2065 26.144L24.2022 26.134C24.2581 26.1735 24.3193 26.2204 24.3857 26.2755Z" fill="#023AA2"/>
</svg>
