<svg width="65" height="64" viewBox="0 0 65 64" fill="none" xmlns="http://www.w3.org/2000/svg">
<path d="M32.5 0C50.1731 0 64.5 14.3269 64.5 32C64.5 49.6731 50.1731 64 32.5 64C14.8269 64 0.5 49.6731 0.5 32C0.5 14.3269 14.8269 0 32.5 0Z" fill="#DBEAFE"/>
<path d="M32.5 0C50.1731 0 64.5 14.3269 64.5 32C64.5 49.6731 50.1731 64 32.5 64C14.8269 64 0.5 49.6731 0.5 32C0.5 14.3269 14.8269 0 32.5 0Z" stroke="#E5E7EB"/>
<path d="M44.5 48H20.5V16H44.5V48Z" stroke="#E5E7EB"/>
<g clip-path="url(#clip0_174_2823)">
<path d="M32.6219 19C32.5422 19 32.4625 19.0047 32.3828 19.0234C28.375 19.7969 25.9187 23.7953 26.6172 27.8734C26.7531 28.6703 27.0109 29.4156 27.3625 30.0953L22 29.5H21.8781C21.1187 29.5 20.5 30.1187 20.5 30.8781C20.5 30.9578 20.5047 31.0375 20.5234 31.1172C21.2969 35.125 25.2953 37.5812 29.3734 36.8828C30.1703 36.7469 30.9156 36.4891 31.5953 36.1375L31 41.5V41.6219C31 42.3813 31.6187 43 32.3781 43C32.4578 43 32.5375 42.9953 32.6172 42.9766C36.625 42.2031 39.0812 38.2047 38.3828 34.1266C38.2469 33.3297 37.9891 32.5844 37.6375 31.9047L43 32.5H43.1219C43.8813 32.5 44.5 31.8813 44.5 31.1219C44.5 31.0422 44.4953 30.9625 44.4766 30.8828C43.7031 26.875 39.7047 24.4187 35.6266 25.1172C34.8297 25.2531 34.0844 25.5109 33.4047 25.8625L34 20.5V20.3781C34 19.6187 33.3813 19 32.6219 19ZM32.5 29.5C32.8978 29.5 33.2794 29.658 33.5607 29.9393C33.842 30.2206 34 30.6022 34 31C34 31.3978 33.842 31.7794 33.5607 32.0607C33.2794 32.342 32.8978 32.5 32.5 32.5C32.1022 32.5 31.7206 32.342 31.4393 32.0607C31.158 31.7794 31 31.3978 31 31C31 30.6022 31.158 30.2206 31.4393 29.9393C31.7206 29.658 32.1022 29.5 32.5 29.5Z" fill="#023AA2"/>
</g>
<defs>
<clipPath id="clip0_174_2823">
<path d="M20.5 19H44.5V43H20.5V19Z" fill="white"/>
</clipPath>
</defs>
</svg>
