<svg width="65" height="64" viewBox="0 0 65 64" fill="none" xmlns="http://www.w3.org/2000/svg">
<path d="M32.5 0C50.1731 0 64.5 14.3269 64.5 32C64.5 49.6731 50.1731 64 32.5 64C14.8269 64 0.5 49.6731 0.5 32C0.5 14.3269 14.8269 0 32.5 0Z" fill="#DBEAFE"/>
<path d="M32.5 0C50.1731 0 64.5 14.3269 64.5 32C64.5 49.6731 50.1731 64 32.5 64C14.8269 64 0.5 49.6731 0.5 32C0.5 14.3269 14.8269 0 32.5 0Z" stroke="#E5E7EB"/>
<path d="M44.5 48H20.5V16H44.5V48Z" stroke="#E5E7EB"/>
<path d="M44.5 43H20.5V19H44.5V43Z" stroke="#E5E7EB"/>
<path d="M32.5 19C32.7156 19 32.9312 19.0469 33.1281 19.1359L41.9547 22.8813C42.9859 23.3172 43.7547 24.3344 43.75 25.5625C43.7266 30.2125 41.8141 38.7203 33.7375 42.5875C32.9547 42.9625 32.0453 42.9625 31.2625 42.5875C23.1859 38.7203 21.2734 30.2125 21.25 25.5625C21.2453 24.3344 22.0141 23.3172 23.0453 22.8813L31.8766 19.1359C32.0687 19.0469 32.2844 19 32.5 19ZM32.5 22.1313V39.85C38.9688 36.7188 40.7078 29.7859 40.75 25.6281L32.5 22.1313Z" fill="#023AA2"/>
</svg>
