<svg width="65" height="64" viewBox="0 0 65 64" fill="none" xmlns="http://www.w3.org/2000/svg">
<path d="M32.5 0C50.1731 0 64.5 14.3269 64.5 32C64.5 49.6731 50.1731 64 32.5 64C14.8269 64 0.5 49.6731 0.5 32C0.5 14.3269 14.8269 0 32.5 0Z" fill="#DBEAFE"/>
<path d="M32.5 0C50.1731 0 64.5 14.3269 64.5 32C64.5 49.6731 50.1731 64 32.5 64C14.8269 64 0.5 49.6731 0.5 32C0.5 14.3269 14.8269 0 32.5 0Z" stroke="#E5E7EB"/>
<path d="M40.8003 24.2002V39.8008H25.1997V24.2002H40.8003Z" stroke="#023AA2" stroke-width="1.73332"/>
<path d="M40.8 24.2012H25.2001V39.801H40.8V24.2012Z" stroke="#023AA2" stroke-width="1.73332" stroke-linecap="round" stroke-linejoin="round"/>
<path d="M35.5999 29.3994V34.5996H30.3997V29.3994H35.5999Z" stroke="#023AA2" stroke-width="1.73332"/>
<path d="M35.6 29.4004H30.4001V34.6003H35.6V29.4004Z" stroke="#023AA2" stroke-width="1.73332" stroke-linecap="round" stroke-linejoin="round"/>
<path d="M29.5334 44.9988V39.7988" stroke="#023AA2" stroke-width="1.73332" stroke-linecap="round"/>
<path d="M33 44.9988V39.7988" stroke="#023AA2" stroke-width="1.73332" stroke-linecap="round"/>
<path d="M36.4666 44.9988V39.7988" stroke="#023AA2" stroke-width="1.73332" stroke-linecap="round"/>
<path d="M29.5334 24.1999V19" stroke="#023AA2" stroke-width="1.73332" stroke-linecap="round"/>
<path d="M33 24.1999V19" stroke="#023AA2" stroke-width="1.73332" stroke-linecap="round"/>
<path d="M36.4666 24.1999V19" stroke="#023AA2" stroke-width="1.73332" stroke-linecap="round"/>
<path d="M45.9999 35.4648H40.8" stroke="#023AA2" stroke-width="1.73332" stroke-linecap="round"/>
<path d="M45.9999 32H40.8" stroke="#023AA2" stroke-width="1.73332" stroke-linecap="round"/>
<path d="M45.9999 28.5332H40.8" stroke="#023AA2" stroke-width="1.73332" stroke-linecap="round"/>
<path d="M25.2001 35.4648H20.0002" stroke="#023AA2" stroke-width="1.73332" stroke-linecap="round"/>
<path d="M25.2001 32H20.0002" stroke="#023AA2" stroke-width="1.73332" stroke-linecap="round"/>
<path d="M25.2001 28.5332H20.0002" stroke="#023AA2" stroke-width="1.73332" stroke-linecap="round"/>
</svg>
