<svg width="28" height="28" viewBox="0 0 28 28" fill="none" xmlns="http://www.w3.org/2000/svg">
<path d="M21.668 6.06738V21.668H6.06738V6.06738H21.668Z" stroke="#023AA2" stroke-width="1.73332"/>
<path d="M21.6682 6.06836H6.06836V21.6682H21.6682V6.06836Z" stroke="#023AA2" stroke-width="1.73332" stroke-linecap="round" stroke-linejoin="round"/>
<path d="M16.4668 11.2666V16.4668H11.2666V11.2666H16.4668Z" stroke="#023AA2" stroke-width="1.73332"/>
<path d="M16.4675 11.2676H11.2676V16.4675H16.4675V11.2676Z" stroke="#023AA2" stroke-width="1.73332" stroke-linecap="round" stroke-linejoin="round"/>
<path d="M10.4004 26.866V21.666" stroke="#023AA2" stroke-width="1.73332" stroke-linecap="round"/>
<path d="M13.8672 26.866V21.666" stroke="#023AA2" stroke-width="1.73332" stroke-linecap="round"/>
<path d="M17.334 26.866V21.666" stroke="#023AA2" stroke-width="1.73332" stroke-linecap="round"/>
<path d="M10.4004 6.06713V0.867188" stroke="#023AA2" stroke-width="1.73332" stroke-linecap="round"/>
<path d="M13.8672 6.06713V0.867188" stroke="#023AA2" stroke-width="1.73332" stroke-linecap="round"/>
<path d="M17.334 6.06713V0.867188" stroke="#023AA2" stroke-width="1.73332" stroke-linecap="round"/>
<path d="M26.866 17.332H21.666" stroke="#023AA2" stroke-width="1.73332" stroke-linecap="round"/>
<path d="M26.866 13.8672H21.666" stroke="#023AA2" stroke-width="1.73332" stroke-linecap="round"/>
<path d="M26.866 10.4004H21.666" stroke="#023AA2" stroke-width="1.73332" stroke-linecap="round"/>
<path d="M6.06713 17.332H0.867188" stroke="#023AA2" stroke-width="1.73332" stroke-linecap="round"/>
<path d="M6.06713 13.8672H0.867188" stroke="#023AA2" stroke-width="1.73332" stroke-linecap="round"/>
<path d="M6.06713 10.4004H0.867188" stroke="#023AA2" stroke-width="1.73332" stroke-linecap="round"/>
</svg>
