<svg width="65" height="64" viewBox="0 0 65 64" fill="none" xmlns="http://www.w3.org/2000/svg">
<path d="M32.5 0C50.1731 0 64.5 14.3269 64.5 32C64.5 49.6731 50.1731 64 32.5 64C14.8269 64 0.5 49.6731 0.5 32C0.5 14.3269 14.8269 0 32.5 0Z" fill="#DBEAFE"/>
<path d="M32.5 0C50.1731 0 64.5 14.3269 64.5 32C64.5 49.6731 50.1731 64 32.5 64C14.8269 64 0.5 49.6731 0.5 32C0.5 14.3269 14.8269 0 32.5 0Z" stroke="#E5E7EB"/>
<path d="M44.5 48H20.5V16H44.5V48Z" stroke="#E5E7EB"/>
<g clip-path="url(#clip0_174_2607)">
<path d="M37 23.5C37 24.1703 36.8547 24.8078 36.5875 25.3844L39.0625 29.6594C37.9516 30.8453 36.5219 31.7266 34.9141 32.1719L32.5 28L29.3125 33.5078C30.3203 33.8266 31.3891 34 32.5047 34C35.8188 34 38.7766 32.4672 40.7031 30.0625C41.2234 29.4156 42.1656 29.3125 42.8125 29.8281C43.4594 30.3438 43.5625 31.2906 43.0469 31.9375C40.5672 35.0219 36.7656 37 32.5 37C30.8406 37 29.2469 36.7 27.7797 36.1516L25.1266 40.7359C24.9062 41.1156 24.5781 41.425 24.1844 41.6219L21.5875 42.9203C21.3531 43.0375 21.0766 43.0234 20.8562 42.8875C20.6359 42.7516 20.5 42.5078 20.5 42.25V39.6531C20.5 39.2594 20.6031 38.8703 20.8047 38.5234L23.6172 33.6625C23.0172 33.1375 22.4594 32.5609 21.9625 31.9375C21.4422 31.2906 21.55 30.3484 22.1969 29.8281C22.8438 29.3078 23.7859 29.4156 24.3062 30.0625C24.5734 30.3953 24.8594 30.7094 25.1594 31.0047L28.4125 25.3844C28.15 24.8125 28 24.175 28 23.5C28 21.0156 30.0156 19 32.5 19C34.9844 19 37 21.0156 37 23.5ZM37.9844 37.4641C39.5125 36.8641 40.9141 36.0203 42.1516 34.9844L44.2 38.5234C44.3969 38.8656 44.5047 39.2547 44.5047 39.6531V42.25C44.5047 42.5078 44.3687 42.7516 44.1484 42.8875C43.9281 43.0234 43.6516 43.0375 43.4172 42.9203L40.8203 41.6219C40.4266 41.425 40.0984 41.1156 39.8781 40.7359L37.9844 37.4641ZM32.5 25C32.8978 25 33.2794 24.842 33.5607 24.5607C33.842 24.2794 34 23.8978 34 23.5C34 23.1022 33.842 22.7206 33.5607 22.4393C33.2794 22.158 32.8978 22 32.5 22C32.1022 22 31.7206 22.158 31.4393 22.4393C31.158 22.7206 31 23.1022 31 23.5C31 23.8978 31.158 24.2794 31.4393 24.5607C31.7206 24.842 32.1022 25 32.5 25Z" fill="#023AA2"/>
</g>
<defs>
<clipPath id="clip0_174_2607">
<path d="M20.5 19H44.5V43H20.5V19Z" fill="white"/>
</clipPath>
</defs>
</svg>
