<svg width="65" height="64" viewBox="0 0 65 64" fill="none" xmlns="http://www.w3.org/2000/svg">
<path d="M32.5 0C50.1731 0 64.5 14.3269 64.5 32C64.5 49.6731 50.1731 64 32.5 64C14.8269 64 0.5 49.6731 0.5 32C0.5 14.3269 14.8269 0 32.5 0Z" fill="#DBEAFE"/>
<path d="M32.5 0C50.1731 0 64.5 14.3269 64.5 32C64.5 49.6731 50.1731 64 32.5 64C14.8269 64 0.5 49.6731 0.5 32C0.5 14.3269 14.8269 0 32.5 0Z" stroke="#E5E7EB"/>
<path d="M44.5 48H20.5V16H44.5V48Z" stroke="#E5E7EB"/>
<g clip-path="url(#clip0_174_2912)">
<path d="M32.5 20.5C33.1656 20.5 33.7797 20.8516 34.1172 21.4281L44.2422 38.6781C44.5844 39.2594 44.5844 39.9766 44.2516 40.5578C43.9188 41.1391 43.2953 41.5 42.625 41.5H22.375C21.7047 41.5 21.0813 41.1391 20.7484 40.5578C20.4156 39.9766 20.4203 39.2547 20.7578 38.6781L30.8828 21.4281C31.2203 20.8516 31.8344 20.5 32.5 20.5ZM32.5 26.5C31.8766 26.5 31.375 27.0016 31.375 27.625V32.875C31.375 33.4984 31.8766 34 32.5 34C33.1234 34 33.625 33.4984 33.625 32.875V27.625C33.625 27.0016 33.1234 26.5 32.5 26.5ZM34 37C34 36.6022 33.842 36.2206 33.5607 35.9393C33.2794 35.658 32.8978 35.5 32.5 35.5C32.1022 35.5 31.7207 35.658 31.4393 35.9393C31.158 36.2206 31 36.6022 31 37C31 37.3978 31.158 37.7794 31.4393 38.0607C31.7207 38.342 32.1022 38.5 32.5 38.5C32.8978 38.5 33.2794 38.342 33.5607 38.0607C33.842 37.7794 34 37.3978 34 37Z" fill="#023AA2"/>
</g>
<defs>
<clipPath id="clip0_174_2912">
<path d="M20.5 19H44.5V43H20.5V19Z" fill="white"/>
</clipPath>
</defs>
</svg>
