<svg width="24" height="21" viewBox="0 0 24 21" fill="none" xmlns="http://www.w3.org/2000/svg">
<path d="M11.9983 0C12.6639 0 13.278 0.351562 13.6155 0.928125L23.7405 18.1781C24.0826 18.7594 24.0826 19.4766 23.7498 20.0578C23.417 20.6391 22.7936 21 22.1233 21H1.87327C1.20296 21 0.57952 20.6391 0.246707 20.0578C-0.0861051 19.4766 -0.0814176 18.7547 0.256082 18.1781L10.3811 0.928125C10.7186 0.351562 11.3326 0 11.9983 0ZM11.9983 6C11.3748 6 10.8733 6.50156 10.8733 7.125V12.375C10.8733 12.9984 11.3748 13.5 11.9983 13.5C12.6217 13.5 13.1233 12.9984 13.1233 12.375V7.125C13.1233 6.50156 12.6217 6 11.9983 6ZM13.4983 16.5C13.4983 16.1022 13.3402 15.7206 13.0589 15.4393C12.7776 15.158 12.3961 15 11.9983 15C11.6004 15 11.2189 15.158 10.9376 15.4393C10.6563 15.7206 10.4983 16.1022 10.4983 16.5C10.4983 16.8978 10.6563 17.2794 10.9376 17.5607C11.2189 17.842 11.6004 18 11.9983 18C12.3961 18 12.7776 17.842 13.0589 17.5607C13.3402 17.2794 13.4983 16.8978 13.4983 16.5Z" fill="#023AA2"/>
</svg>
