<svg width="27" height="21" viewBox="0 0 27 21" fill="none" xmlns="http://www.w3.org/2000/svg">
<path d="M12 0H8.49375C7.22344 0 6.08906 0.801562 5.66719 1.99687L0.145312 17.5875C0.0515625 17.8594 0 18.15 0 18.4406C0 19.8516 1.14844 21 2.55937 21H12V18C12 17.1703 12.6703 16.5 13.5 16.5C14.3297 16.5 15 17.1703 15 18V21H24.4406C25.8563 21 27 19.8516 27 18.4406C27 18.15 26.9484 17.8594 26.8547 17.5875L21.3328 1.99687C20.9062 0.801562 19.7766 0 18.5062 0H15V3C15 3.82969 14.3297 4.5 13.5 4.5C12.6703 4.5 12 3.82969 12 3V0ZM15 9V12C15 12.8297 14.3297 13.5 13.5 13.5C12.6703 13.5 12 12.8297 12 12V9C12 8.17031 12.6703 7.5 13.5 7.5C14.3297 7.5 15 8.17031 15 9Z" fill="#023AA2"/>
</svg>
