<svg width="65" height="64" viewBox="0 0 65 64" fill="none" xmlns="http://www.w3.org/2000/svg">
<path d="M32.5 0C50.1731 0 64.5 14.3269 64.5 32C64.5 49.6731 50.1731 64 32.5 64C14.8269 64 0.5 49.6731 0.5 32C0.5 14.3269 14.8269 0 32.5 0Z" fill="#DBEAFE"/>
<path d="M32.5 0C50.1731 0 64.5 14.3269 64.5 32C64.5 49.6731 50.1731 64 32.5 64C14.8269 64 0.5 49.6731 0.5 32C0.5 14.3269 14.8269 0 32.5 0Z" stroke="#E5E7EB"/>
<path d="M46 48H19V16H46V48Z" stroke="#E5E7EB"/>
<path d="M46 43H19V19H46V43Z" stroke="#E5E7EB"/>
<path d="M31 20.5H27.4937C26.2234 20.5 25.0891 21.3016 24.6672 22.4969L19.1453 38.0875C19.0516 38.3594 19 38.65 19 38.9406C19 40.3516 20.1484 41.5 21.5594 41.5H31V38.5C31 37.6703 31.6703 37 32.5 37C33.3297 37 34 37.6703 34 38.5V41.5H43.4406C44.8563 41.5 46 40.3516 46 38.9406C46 38.65 45.9484 38.3594 45.8547 38.0875L40.3328 22.4969C39.9062 21.3016 38.7766 20.5 37.5062 20.5H34V23.5C34 24.3297 33.3297 25 32.5 25C31.6703 25 31 24.3297 31 23.5V20.5ZM34 29.5V32.5C34 33.3297 33.3297 34 32.5 34C31.6703 34 31 33.3297 31 32.5V29.5C31 28.6703 31.6703 28 32.5 28C33.3297 28 34 28.6703 34 29.5Z" fill="#023AA2"/>
</svg>
