<svg width="27" height="24" viewBox="0 0 27 24" fill="none" xmlns="http://www.w3.org/2000/svg">
<path d="M13.6312 2.27344L17.3063 3.66563L13.5 5.12813L9.69375 3.66563L13.3688 2.27344C13.4531 2.24062 13.5469 2.24062 13.6359 2.27344H13.6312ZM6.375 4.33125V9.59062C6.31406 9.60938 6.25313 9.62812 6.19219 9.65156L1.69219 11.3578C0.675 11.7422 0 12.7219 0 13.8094V19.3969C0 20.4375 0.614063 21.3797 1.57031 21.8016L6.07031 23.7797C6.74531 24.075 7.50938 24.075 8.18438 23.7797L13.5 21.4406L18.8203 23.7797C19.4953 24.075 20.2594 24.075 20.9344 23.7797L25.4344 21.8016C26.3859 21.3844 27.0047 20.4375 27.0047 19.3969V13.8094C27.0047 12.7172 26.3297 11.7422 25.3125 11.3531L20.8125 9.64687C20.7516 9.62344 20.6906 9.60469 20.6297 9.58594V4.33125C20.6297 3.23906 19.9547 2.26406 18.9375 1.875L14.4375 0.16875C13.8375 -0.05625 13.1766 -0.05625 12.5766 0.16875L8.07656 1.875C7.05 2.26406 6.375 3.24375 6.375 4.33125ZM18.375 9.86719L14.5125 11.3297V7.14844L18.375 5.66719V9.86719ZM7.25625 11.7562L10.9312 13.1484L7.125 14.6063L3.31875 13.1484L6.99375 11.7562C7.07812 11.7234 7.17187 11.7234 7.26094 11.7562H7.25625ZM8.1375 21.3375V16.6266L12 15.1453V19.6406L8.1375 21.3375ZM19.7438 11.7562C19.8281 11.7234 19.9219 11.7234 20.0109 11.7562L23.6859 13.1484L19.875 14.6063L16.0687 13.1484L19.7438 11.7562ZM24.525 19.7391L20.8875 21.3375V16.6266L24.75 15.1453V19.3969C24.75 19.5469 24.6609 19.6781 24.525 19.7391Z" fill="#023AA2"/>
</svg>
