<svg width="65" height="64" viewBox="0 0 65 64" fill="none" xmlns="http://www.w3.org/2000/svg">
<path d="M32.5 0C50.1731 0 64.5 14.3269 64.5 32C64.5 49.6731 50.1731 64 32.5 64C14.8269 64 0.5 49.6731 0.5 32C0.5 14.3269 14.8269 0 32.5 0Z" fill="#DBEAFE"/>
<path d="M32.5 0C50.1731 0 64.5 14.3269 64.5 32C64.5 49.6731 50.1731 64 32.5 64C14.8269 64 0.5 49.6731 0.5 32C0.5 14.3269 14.8269 0 32.5 0Z" stroke="#E5E7EB"/>
<path d="M46 48H19V16H46V48Z" stroke="#E5E7EB"/>
<g clip-path="url(#clip0_174_3016)">
<path d="M32.6312 21.2773L36.3063 22.6695L32.5 24.132L28.6938 22.6695L32.3688 21.2773C32.4531 21.2445 32.5469 21.2445 32.6359 21.2773H32.6312ZM25.375 23.3352V28.5945C25.3141 28.6133 25.2531 28.632 25.1922 28.6555L20.6922 30.3617C19.675 30.7461 19 31.7258 19 32.8133V38.4008C19 39.4414 19.6141 40.3836 20.5703 40.8055L25.0703 42.7836C25.7453 43.0789 26.5094 43.0789 27.1844 42.7836L32.5 40.4445L37.8203 42.7836C38.4953 43.0789 39.2594 43.0789 39.9344 42.7836L44.4344 40.8055C45.3859 40.3883 46.0047 39.4414 46.0047 38.4008V32.8133C46.0047 31.7211 45.3297 30.7461 44.3125 30.357L39.8125 28.6508C39.7516 28.6273 39.6906 28.6086 39.6297 28.5898V23.3352C39.6297 22.243 38.9547 21.268 37.9375 20.8789L33.4375 19.1727C32.8375 18.9477 32.1766 18.9477 31.5766 19.1727L27.0766 20.8789C26.05 21.268 25.375 22.2477 25.375 23.3352ZM37.375 28.8711L33.5125 30.3336V26.1523L37.375 24.6711V28.8711ZM26.2563 30.7602L29.9312 32.1523L26.125 33.6102L22.3188 32.1523L25.9937 30.7602C26.0781 30.7273 26.1719 30.7273 26.2609 30.7602H26.2563ZM27.1375 40.3414V35.6305L31 34.1492V38.6445L27.1375 40.3414ZM38.7438 30.7602C38.8281 30.7273 38.9219 30.7273 39.0109 30.7602L42.6859 32.1523L38.875 33.6102L35.0687 32.1523L38.7438 30.7602ZM43.525 38.743L39.8875 40.3414V35.6305L43.75 34.1492V38.4008C43.75 38.5508 43.6609 38.682 43.525 38.743Z" fill="#023AA2"/>
</g>
<defs>
<clipPath id="clip0_174_3016">
<path d="M19 19H46V43H19V19Z" fill="white"/>
</clipPath>
</defs>
</svg>
