<svg width="65" height="64" viewBox="0 0 65 64" fill="none" xmlns="http://www.w3.org/2000/svg">
<path d="M32.5 0C50.1731 0 64.5 14.3269 64.5 32C64.5 49.6731 50.1731 64 32.5 64C14.8269 64 0.5 49.6731 0.5 32C0.5 14.3269 14.8269 0 32.5 0Z" fill="#DBEAFE"/>
<path d="M32.5 0C50.1731 0 64.5 14.3269 64.5 32C64.5 49.6731 50.1731 64 32.5 64C14.8269 64 0.5 49.6731 0.5 32C0.5 14.3269 14.8269 0 32.5 0Z" stroke="#E5E7EB"/>
<path d="M44.5 48H20.5V16H44.5V48Z" stroke="#E5E7EB"/>
<g clip-path="url(#clip0_174_2791)">
<path d="M26.8375 24.5031L25.6141 28H39.3859L38.1625 24.5031C37.9516 23.9031 37.3844 23.5 36.7469 23.5H28.2531C27.6156 23.5 27.0484 23.9031 26.8375 24.5031ZM22.3562 28.225L24.0063 23.5141C24.6391 21.7094 26.3406 20.5 28.2531 20.5H36.7469C38.6594 20.5 40.3609 21.7094 40.9938 23.5141L42.6437 28.225C43.7312 28.675 44.5 29.7484 44.5 31V37.75V40C44.5 40.8297 43.8297 41.5 43 41.5H41.5C40.6703 41.5 40 40.8297 40 40V37.75H25V40C25 40.8297 24.3297 41.5 23.5 41.5H22C21.1703 41.5 20.5 40.8297 20.5 40V37.75V31C20.5 29.7484 21.2687 28.675 22.3562 28.225ZM26.5 32.5C26.5 32.1022 26.342 31.7206 26.0607 31.4393C25.7794 31.158 25.3978 31 25 31C24.6022 31 24.2206 31.158 23.9393 31.4393C23.658 31.7206 23.5 32.1022 23.5 32.5C23.5 32.8978 23.658 33.2794 23.9393 33.5607C24.2206 33.842 24.6022 34 25 34C25.3978 34 25.7794 33.842 26.0607 33.5607C26.342 33.2794 26.5 32.8978 26.5 32.5ZM40 34C40.3978 34 40.7794 33.842 41.0607 33.5607C41.342 33.2794 41.5 32.8978 41.5 32.5C41.5 32.1022 41.342 31.7206 41.0607 31.4393C40.7794 31.158 40.3978 31 40 31C39.6022 31 39.2206 31.158 38.9393 31.4393C38.658 31.7206 38.5 32.1022 38.5 32.5C38.5 32.8978 38.658 33.2794 38.9393 33.5607C39.2206 33.842 39.6022 34 40 34Z" fill="#023AA2"/>
</g>
<defs>
<clipPath id="clip0_174_2791">
<path d="M20.5 19H44.5V43H20.5V19Z" fill="white"/>
</clipPath>
</defs>
</svg>
