<svg width="65" height="64" viewBox="0 0 65 64" fill="none" xmlns="http://www.w3.org/2000/svg">
<path d="M32.5 0C50.1731 0 64.5 14.3269 64.5 32C64.5 49.6731 50.1731 64 32.5 64C14.8269 64 0.5 49.6731 0.5 32C0.5 14.3269 14.8269 0 32.5 0Z" fill="#DBEAFE"/>
<path d="M32.5 0C50.1731 0 64.5 14.3269 64.5 32C64.5 49.6731 50.1731 64 32.5 64C14.8269 64 0.5 49.6731 0.5 32C0.5 14.3269 14.8269 0 32.5 0Z" stroke="#E5E7EB"/>
<path d="M43 48H22V16H43V48Z" stroke="#E5E7EB"/>
<g clip-path="url(#clip0_174_2839)">
<path d="M29.4672 19.2524C29.8328 18.9102 30.4 18.9149 30.7656 19.257C32.0594 20.4711 33.2734 21.7789 34.4078 23.1945C34.9234 22.5195 35.5094 21.7836 36.1422 21.1836C36.5125 20.8367 37.0844 20.8367 37.4547 21.1883C39.0766 22.7352 40.45 24.7789 41.4156 26.7195C42.3672 28.632 43 30.5867 43 31.9649C43 37.9461 38.3219 42.9992 32.5 42.9992C26.6125 42.9992 22 37.9414 22 31.9602C22 30.1602 22.8344 27.9617 24.1281 25.7867C25.4359 23.5789 27.2828 21.2774 29.4672 19.2524ZM32.5797 38.4992C33.7656 38.4992 34.8156 38.1711 35.8047 37.5149C37.7781 36.1367 38.3078 33.3805 37.1219 31.2149C36.9109 30.793 36.3719 30.7649 36.0672 31.1211L34.8859 32.4945C34.5766 32.8508 34.0188 32.8414 33.7281 32.4711C32.9547 31.4867 31.5719 29.7289 30.7844 28.7305C30.4891 28.3555 29.9266 28.3508 29.6266 28.7258C28.0422 30.718 27.2453 31.9742 27.2453 33.3852C27.25 36.5961 29.6219 38.4992 32.5797 38.4992Z" fill="#023AA2"/>
</g>
<defs>
<clipPath id="clip0_174_2839">
<path d="M22 19H43V43H22V19Z" fill="white"/>
</clipPath>
</defs>
</svg>
