<svg width="21" height="24" viewBox="0 0 21 24" fill="none" xmlns="http://www.w3.org/2000/svg">
<path d="M7.46719 0.254309C7.83281 -0.0878786 8.4 -0.0831911 8.76562 0.258996C10.0594 1.47306 11.2734 2.78087 12.4078 4.1965C12.9234 3.5215 13.5094 2.78556 14.1422 2.18556C14.5125 1.83868 15.0844 1.83868 15.4547 2.19025C17.0766 3.73712 18.45 5.78087 19.4156 7.7215C20.3672 9.634 21 11.5887 21 12.9668C21 18.9481 16.3219 24.0012 10.5 24.0012C4.6125 24.0012 0 18.9434 0 12.9621C0 11.1621 0.834375 8.96368 2.12813 6.78868C3.43594 4.58087 5.28281 2.27931 7.46719 0.254309ZM10.5797 19.5012C11.7656 19.5012 12.8156 19.1731 13.8047 18.5168C15.7781 17.1387 16.3078 14.3824 15.1219 12.2168C14.9109 11.7949 14.3719 11.7668 14.0672 12.1231L12.8859 13.4965C12.5766 13.8527 12.0188 13.8434 11.7281 13.4731C10.9547 12.4887 9.57187 10.7309 8.78437 9.73243C8.48906 9.35743 7.92656 9.35275 7.62656 9.72775C6.04219 11.7199 5.24531 12.9762 5.24531 14.3871C5.25 17.5981 7.62187 19.5012 10.5797 19.5012Z" fill="#023AA2"/>
</svg>
