<svg width="65" height="64" viewBox="0 0 65 64" fill="none" xmlns="http://www.w3.org/2000/svg">
<path d="M32.5 0C50.1731 0 64.5 14.3269 64.5 32C64.5 49.6731 50.1731 64 32.5 64C14.8269 64 0.5 49.6731 0.5 32C0.5 14.3269 14.8269 0 32.5 0Z" fill="#DBEAFE"/>
<path d="M32.5 0C50.1731 0 64.5 14.3269 64.5 32C64.5 49.6731 50.1731 64 32.5 64C14.8269 64 0.5 49.6731 0.5 32C0.5 14.3269 14.8269 0 32.5 0Z" stroke="#E5E7EB"/>
<path d="M43 48H22V16H43V48Z" stroke="#E5E7EB"/>
<g clip-path="url(#clip0_174_2691)">
<path d="M32.5 19C33.3297 19 34 19.6703 34 20.5V21.9109L34.7031 21.2078C35.1437 20.7672 35.8562 20.7672 36.2922 21.2078C36.7281 21.6484 36.7328 22.3609 36.2922 22.7969L33.9953 25.0938V28.3891L36.8734 26.7109L37.7031 23.6125C37.8625 23.0125 38.4812 22.6562 39.0812 22.8156C39.6812 22.975 40.0375 23.5938 39.8781 24.1938L39.6344 25.0984L40.7406 24.4516C41.4578 24.0344 42.3766 24.2781 42.7937 24.9906C43.2109 25.7031 42.9719 26.6266 42.2547 27.0438L41.0687 27.7375L42.0859 28.0094C42.6859 28.1687 43.0422 28.7875 42.8828 29.3875C42.7234 29.9875 42.1047 30.3438 41.5047 30.1844L38.3312 29.3359L35.4766 31L38.3312 32.6641L41.5047 31.8156C42.1047 31.6562 42.7234 32.0125 42.8828 32.6125C43.0422 33.2125 42.6859 33.8312 42.0859 33.9906L41.0687 34.2625L42.2547 34.9562C42.9719 35.3734 43.2109 36.2922 42.7937 37.0094C42.3766 37.7266 41.4578 37.9656 40.7406 37.5484L39.6344 36.9016L39.8781 37.8063C40.0375 38.4062 39.6812 39.025 39.0812 39.1844C38.4812 39.3438 37.8625 38.9875 37.7031 38.3875L36.8734 35.2891L34 33.6109V36.9062L36.2969 39.2031C36.7375 39.6437 36.7375 40.3562 36.2969 40.7922C35.8562 41.2281 35.1437 41.2328 34.7078 40.7922L34.0047 40.0891V41.5C34.0047 42.3297 33.3344 43 32.5047 43C31.675 43 31.0047 42.3297 31.0047 41.5V40.0891L30.3016 40.7922C29.8609 41.2328 29.1484 41.2328 28.7125 40.7922C28.2766 40.3516 28.2719 39.6391 28.7125 39.2031L31.0094 36.9062V33.6109L28.1312 35.2891L27.3016 38.3875C27.1422 38.9875 26.5234 39.3438 25.9234 39.1844C25.3234 39.025 24.9672 38.4062 25.1266 37.8063L25.3703 36.9016L24.2547 37.5438C23.5375 37.9609 22.6187 37.7172 22.2016 37.0047C21.7844 36.2922 22.0281 35.3687 22.7406 34.9516L23.9266 34.2578L22.9094 33.9859C22.3094 33.8266 21.9531 33.2078 22.1125 32.6078C22.2719 32.0078 22.8906 31.6516 23.4906 31.8109L26.6641 32.6594L29.5234 31L26.6687 29.3359L23.4953 30.1844C22.8953 30.3438 22.2766 29.9875 22.1172 29.3875C21.9578 28.7875 22.3141 28.1687 22.9141 28.0094L23.9312 27.7375L22.7453 27.0438C22.0281 26.6266 21.7891 25.7078 22.2062 24.9953C22.6234 24.2828 23.5422 24.0391 24.2594 24.4563L25.3656 25.1031L25.1219 24.1984C24.9625 23.5984 25.3187 22.9797 25.9187 22.8203C26.5187 22.6609 27.1375 23.0172 27.2969 23.6172L28.1266 26.7156L31 28.3891V25.0891L28.7031 22.7969C28.2625 22.3563 28.2625 21.6437 28.7031 21.2078C29.1437 20.7719 29.8562 20.7672 30.2922 21.2078L30.9953 21.9109V20.5C30.9953 19.6703 31.6656 19 32.4953 19H32.5Z" fill="#023AA2"/>
</g>
<defs>
<clipPath id="clip0_174_2691">
<path d="M22 19H43V43H22V19Z" fill="white"/>
</clipPath>
</defs>
</svg>
