<svg width="21" height="24" viewBox="0 0 21 24" fill="none" xmlns="http://www.w3.org/2000/svg">
<path d="M10.5024 0C11.3321 0 12.0024 0.670312 12.0024 1.5V2.91094L12.7056 2.20781C13.1462 1.76719 13.8587 1.76719 14.2946 2.20781C14.7306 2.64844 14.7352 3.36094 14.2946 3.79688L11.9977 6.09375V9.38906L14.8759 7.71094L15.7056 4.6125C15.8649 4.0125 16.4837 3.65625 17.0837 3.81563C17.6837 3.975 18.0399 4.59375 17.8806 5.19375L17.6368 6.09844L18.7431 5.45156C19.4602 5.03438 20.379 5.27813 20.7962 5.99063C21.2134 6.70312 20.9743 7.62656 20.2571 8.04375L19.0712 8.7375L20.0884 9.00937C20.6884 9.16875 21.0446 9.7875 20.8852 10.3875C20.7259 10.9875 20.1071 11.3438 19.5071 11.1844L16.3337 10.3359L13.479 12L16.3337 13.6641L19.5071 12.8156C20.1071 12.6562 20.7259 13.0125 20.8852 13.6125C21.0446 14.2125 20.6884 14.8312 20.0884 14.9906L19.0712 15.2625L20.2571 15.9562C20.9743 16.3734 21.2134 17.2922 20.7962 18.0094C20.379 18.7266 19.4602 18.9656 18.7431 18.5484L17.6368 17.9016L17.8806 18.8063C18.0399 19.4062 17.6837 20.025 17.0837 20.1844C16.4837 20.3438 15.8649 19.9875 15.7056 19.3875L14.8759 16.2891L12.0024 14.6109V17.9062L14.2993 20.2031C14.7399 20.6437 14.7399 21.3562 14.2993 21.7922C13.8587 22.2281 13.1462 22.2328 12.7102 21.7922L12.0071 21.0891V22.5C12.0071 23.3297 11.3368 24 10.5071 24C9.67744 24 9.00712 23.3297 9.00712 22.5V21.0891L8.304 21.7922C7.86337 22.2328 7.15087 22.2328 6.71494 21.7922C6.279 21.3516 6.27431 20.6391 6.71494 20.2031L9.01181 17.9062V14.6109L6.13369 16.2891L5.304 19.3875C5.14462 19.9875 4.52587 20.3438 3.92587 20.1844C3.32587 20.025 2.96962 19.4062 3.129 18.8063L3.37275 17.9016L2.25712 18.5438C1.53994 18.9609 0.621186 18.7172 0.203998 18.0047C-0.213189 17.2922 0.030561 16.3687 0.743061 15.9516L1.929 15.2578L0.911811 14.9859C0.311811 14.8266 -0.044439 14.2078 0.114936 13.6078C0.274311 13.0078 0.893061 12.6516 1.49306 12.8109L4.6665 13.6594L7.52587 12L4.67119 10.3359L1.49775 11.1844C0.897748 11.3438 0.278998 10.9875 0.119623 10.3875C-0.0397515 9.7875 0.316498 9.16875 0.916498 9.00937L1.93369 8.7375L0.747748 8.04375C0.030561 7.62656 -0.208501 6.70781 0.208686 5.99531C0.625873 5.28281 1.54462 5.03906 2.26181 5.45625L3.36806 6.10312L3.12431 5.19844C2.96494 4.59844 3.32119 3.97969 3.92119 3.82031C4.52119 3.66094 5.13994 4.01719 5.29931 4.61719L6.129 7.71563L9.00244 9.38906V6.08906L6.70556 3.79688C6.26494 3.35625 6.26494 2.64375 6.70556 2.20781C7.14619 1.77187 7.85869 1.76719 8.29462 2.20781L8.99775 2.91094V1.5C8.99775 0.670312 9.66806 0 10.4977 0H10.5024Z" fill="#023AA2"/>
</svg>
