<svg width="65" height="64" viewBox="0 0 65 64" fill="none" xmlns="http://www.w3.org/2000/svg">
<path d="M32.5 0C50.1731 0 64.5 14.3269 64.5 32C64.5 49.6731 50.1731 64 32.5 64C14.8269 64 0.5 49.6731 0.5 32C0.5 14.3269 14.8269 0 32.5 0Z" fill="#DBEAFE"/>
<path d="M32.5 0C50.1731 0 64.5 14.3269 64.5 32C64.5 49.6731 50.1731 64 32.5 64C14.8269 64 0.5 49.6731 0.5 32C0.5 14.3269 14.8269 0 32.5 0Z" stroke="#E5E7EB"/>
<path d="M44.5 48H20.5V16H44.5V48Z" stroke="#E5E7EB"/>
<g clip-path="url(#clip0_174_2699)">
<path d="M23.5 20.5C21.8453 20.5 20.5 21.8453 20.5 23.5V38.5C20.5 40.1547 21.8453 41.5 23.5 41.5H41.5C43.1547 41.5 44.5 40.1547 44.5 38.5V23.5C44.5 21.8453 43.1547 20.5 41.5 20.5H23.5ZM25 23.5H40C40.8297 23.5 41.5 24.1703 41.5 25C41.5 25.8297 40.8297 26.5 40 26.5H25C24.1703 26.5 23.5 25.8297 23.5 25C23.5 24.1703 24.1703 23.5 25 23.5Z" fill="#023AA2"/>
</g>
<defs>
<clipPath id="clip0_174_2699">
<path d="M20.5 19H44.5V43H20.5V19Z" fill="white"/>
</clipPath>
</defs>
</svg>
