<svg width="24" height="24" viewBox="0 0 24 24" fill="none" xmlns="http://www.w3.org/2000/svg">
<path d="M3.6857 0.234938C3.24039 -0.111937 2.60758 -0.069749 2.20445 0.328689L0.329453 2.20369C-0.0689842 2.60213 -0.111172 3.23494 0.231016 3.68494L3.98102 8.55994C4.19195 8.8365 4.52477 9.00056 4.87164 9.00056H7.40758L12.517 14.1099C11.8279 15.4693 12.0482 17.1756 13.1873 18.3099L18.4373 23.5599C19.0232 24.1459 19.9748 24.1459 20.5607 23.5599L23.5607 20.5599C24.1466 19.974 24.1466 19.0224 23.5607 18.4365L18.3107 13.1865C17.1763 12.0521 15.4701 11.8271 14.1107 12.5162L9.00133 7.40681V4.87556C9.00133 4.524 8.83727 4.19588 8.5607 3.98494L3.6857 0.234938ZM0.934141 18.5678C0.338828 19.1631 0.00132834 19.974 0.00132834 20.8178C0.00132834 22.5756 1.42633 24.0006 3.18414 24.0006C4.02789 24.0006 4.83883 23.6631 5.43414 23.0678L10.956 17.5459C10.5904 16.5662 10.5341 15.5021 10.7873 14.4943L7.89508 11.6021L0.934141 18.5678ZM24.0013 6.75056C24.0013 6.25838 23.9498 5.78025 23.8513 5.32088C23.7388 4.79588 23.0966 4.65994 22.717 5.03963L19.7216 8.03494C19.581 8.17556 19.3888 8.25525 19.192 8.25525H16.5013C16.0888 8.25525 15.7513 7.91775 15.7513 7.50525V4.80994C15.7513 4.61306 15.831 4.42088 15.9716 4.28025L18.967 1.28494C19.3466 0.905251 19.2107 0.263063 18.6857 0.150563C18.2216 0.052126 17.7435 0.000563491 17.2513 0.000563491C13.5248 0.000563491 10.5013 3.024 10.5013 6.75056V6.78806L14.4998 10.7865C16.1873 10.3599 18.0529 10.8099 19.3748 12.1318L20.1107 12.8678C22.4076 11.7896 24.0013 9.45525 24.0013 6.75056ZM2.62633 20.2506C2.62633 19.9522 2.74485 19.666 2.95583 19.4551C3.16681 19.2441 3.45296 19.1256 3.75133 19.1256C4.0497 19.1256 4.33584 19.2441 4.54682 19.4551C4.7578 19.666 4.87633 19.9522 4.87633 20.2506C4.87633 20.5489 4.7578 20.8351 4.54682 21.0461C4.33584 21.257 4.0497 21.3756 3.75133 21.3756C3.45296 21.3756 3.16681 21.257 2.95583 21.0461C2.74485 20.8351 2.62633 20.5489 2.62633 20.2506Z" fill="#023AA2"/>
</svg>
