<svg width="27" height="24" viewBox="0 0 27 24" fill="none" xmlns="http://www.w3.org/2000/svg">
<path d="M15 1.49784C15 1.03377 14.7891 0.597836 14.4234 0.316586C14.0578 0.0353362 13.5844 -0.0677888 13.1344 0.0447112L4.70156 2.15409C3.70313 2.40252 3 3.30252 3 4.33377V20.9978H1.5C0.670312 20.9978 0 21.6681 0 22.4978C0 23.3275 0.670312 23.9978 1.5 23.9978H4.5H13.5H15V22.4978V1.49784ZM12 11.9978C12 12.8275 11.4984 13.4978 10.875 13.4978C10.2516 13.4978 9.75 12.8275 9.75 11.9978C9.75 11.1681 10.2516 10.4978 10.875 10.4978C11.4984 10.4978 12 11.1681 12 11.9978ZM16.5 5.99784H21V22.4978C21 23.3275 21.6703 23.9978 22.5 23.9978H25.5C26.3297 23.9978 27 23.3275 27 22.4978C27 21.6681 26.3297 20.9978 25.5 20.9978H24V5.99784C24 4.34315 22.6547 2.99784 21 2.99784H16.5V5.99784Z" fill="#023AA2"/>
</svg>
