<svg width="65" height="64" viewBox="0 0 65 64" fill="none" xmlns="http://www.w3.org/2000/svg">
<path d="M32.5 0C50.1731 0 64.5 14.3269 64.5 32C64.5 49.6731 50.1731 64 32.5 64C14.8269 64 0.5 49.6731 0.5 32C0.5 14.3269 14.8269 0 32.5 0Z" fill="#DBEAFE"/>
<path d="M32.5 0C50.1731 0 64.5 14.3269 64.5 32C64.5 49.6731 50.1731 64 32.5 64C14.8269 64 0.5 49.6731 0.5 32C0.5 14.3269 14.8269 0 32.5 0Z" stroke="#E5E7EB"/>
<path d="M46 48H19V16H46V48Z" stroke="#E5E7EB"/>
<g clip-path="url(#clip0_174_2723)">
<path d="M34 20.4998C34 20.0357 33.7891 19.5998 33.4234 19.3185C33.0578 19.0373 32.5844 18.9342 32.1344 19.0467L23.7016 21.156C22.7031 21.4045 22 22.3045 22 23.3357V39.9998H20.5C19.6703 39.9998 19 40.6701 19 41.4998C19 42.3295 19.6703 42.9998 20.5 42.9998H23.5H32.5H34V41.4998V20.4998ZM31 30.9998C31 31.8295 30.4984 32.4998 29.875 32.4998C29.2516 32.4998 28.75 31.8295 28.75 30.9998C28.75 30.1701 29.2516 29.4998 29.875 29.4998C30.4984 29.4998 31 30.1701 31 30.9998ZM35.5 24.9998H40V41.4998C40 42.3295 40.6703 42.9998 41.5 42.9998H44.5C45.3297 42.9998 46 42.3295 46 41.4998C46 40.6701 45.3297 39.9998 44.5 39.9998H43V24.9998C43 23.3451 41.6547 21.9998 40 21.9998H35.5V24.9998Z" fill="#023AA2"/>
</g>
<defs>
<clipPath id="clip0_174_2723">
<path d="M19 19H46V43H19V19Z" fill="white"/>
</clipPath>
</defs>
</svg>
