<svg width="65" height="64" viewBox="0 0 65 64" fill="none" xmlns="http://www.w3.org/2000/svg">
<path d="M32.5 0C50.1731 0 64.5 14.3269 64.5 32C64.5 49.6731 50.1731 64 32.5 64C14.8269 64 0.5 49.6731 0.5 32C0.5 14.3269 14.8269 0 32.5 0Z" fill="#DBEAFE"/>
<path d="M32.5 0C50.1731 0 64.5 14.3269 64.5 32C64.5 49.6731 50.1731 64 32.5 64C14.8269 64 0.5 49.6731 0.5 32C0.5 14.3269 14.8269 0 32.5 0Z" stroke="#E5E7EB"/>
<path d="M43 48H22V16H43V48Z" stroke="#E5E7EB"/>
<g clip-path="url(#clip0_174_3060)">
<path d="M38.3781 21.091C38.6547 20.4489 38.4484 19.6989 37.8812 19.2864C37.3141 18.8739 36.5406 18.9114 36.0109 19.3707L24.0109 29.8707C23.5422 30.2832 23.3734 30.9442 23.5937 31.5254C23.8141 32.1067 24.3766 32.5004 25 32.5004H30.2266L26.6219 40.9098C26.3453 41.552 26.5516 42.302 27.1187 42.7145C27.6859 43.127 28.4594 43.0895 28.9891 42.6301L40.9891 32.1301C41.4578 31.7176 41.6266 31.0567 41.4062 30.4754C41.1859 29.8942 40.6281 29.5051 40 29.5051H34.7734L38.3781 21.091Z" fill="#023AA2"/>
</g>
<defs>
<clipPath id="clip0_174_3060">
<path d="M22 19H43V43H22V19Z" fill="white"/>
</clipPath>
</defs>
</svg>
