<svg width="18" height="24" viewBox="0 0 18 24" fill="none" xmlns="http://www.w3.org/2000/svg">
<path d="M14.8801 2.09105C15.1566 1.44886 14.9504 0.698862 14.3832 0.286362C13.816 -0.126138 13.0426 -0.0886384 12.5129 0.370737L0.512881 10.8707C0.0441306 11.2832 -0.124619 11.9442 0.0956931 12.5254C0.316006 13.1067 0.878505 13.5004 1.50194 13.5004H6.72851L3.12382 21.9098C2.84726 22.552 3.05351 23.302 3.62069 23.7145C4.18788 24.127 4.96132 24.0895 5.49101 23.6301L17.491 13.1301C17.9598 12.7176 18.1285 12.0567 17.9082 11.4754C17.6879 10.8942 17.1301 10.5051 16.5019 10.5051H11.2754L14.8801 2.09105Z" fill="#023AA2"/>
</svg>
