<svg width="65" height="64" viewBox="0 0 65 64" fill="none" xmlns="http://www.w3.org/2000/svg">
<path d="M32.5 0C50.1731 0 64.5 14.3269 64.5 32C64.5 49.6731 50.1731 64 32.5 64C14.8269 64 0.5 49.6731 0.5 32C0.5 14.3269 14.8269 0 32.5 0Z" fill="#DBEAFE"/>
<path d="M32.5 0C50.1731 0 64.5 14.3269 64.5 32C64.5 49.6731 50.1731 64 32.5 64C14.8269 64 0.5 49.6731 0.5 32C0.5 14.3269 14.8269 0 32.5 0Z" stroke="#E5E7EB"/>
<path d="M47.5 48H17.5V16H47.5V48Z" stroke="#E5E7EB"/>
<g clip-path="url(#clip0_174_2755)">
<path d="M17.5 41.8742V27.0289C17.5 25.8008 18.2453 24.6992 19.3844 24.2445L31.9422 19.2242C32.2984 19.0789 32.6969 19.0789 33.0578 19.2242L45.6156 24.2445C46.7547 24.6992 47.5 25.8055 47.5 27.0289V41.8742C47.5 42.4977 46.9984 42.9992 46.375 42.9992H44.125C43.5016 42.9992 43 42.4977 43 41.8742V29.4992C43 28.6695 42.3297 27.9992 41.5 27.9992H23.5C22.6703 27.9992 22 28.6695 22 29.4992V41.8742C22 42.4977 21.4984 42.9992 20.875 42.9992H18.625C18.0016 42.9992 17.5 42.4977 17.5 41.8742ZM40.375 42.9992H24.625C24.0016 42.9992 23.5 42.4977 23.5 41.8742V39.2492H41.5V41.8742C41.5 42.4977 40.9984 42.9992 40.375 42.9992ZM23.5 37.7492V34.7492H41.5V37.7492H23.5ZM23.5 33.2492V29.4992H41.5V33.2492H23.5Z" fill="#023AA2"/>
</g>
<defs>
<clipPath id="clip0_174_2755">
<path d="M17.5 19H47.5V43H17.5V19Z" fill="white"/>
</clipPath>
</defs>
</svg>
