<svg width="30" height="24" viewBox="0 0 30 24" fill="none" xmlns="http://www.w3.org/2000/svg">
<path d="M0 22.759V7.91367C0 6.68555 0.745313 5.58398 1.88438 5.1293L14.4422 0.108984C14.7984 -0.0363281 15.1969 -0.0363281 15.5578 0.108984L28.1156 5.1293C29.2547 5.58398 30 6.69023 30 7.91367V22.759C30 23.3824 29.4984 23.884 28.875 23.884H26.625C26.0016 23.884 25.5 23.3824 25.5 22.759V10.384C25.5 9.5543 24.8297 8.88398 24 8.88398H6C5.17031 8.88398 4.5 9.5543 4.5 10.384V22.759C4.5 23.3824 3.99844 23.884 3.375 23.884H1.125C0.501562 23.884 0 23.3824 0 22.759ZM22.875 23.884H7.125C6.50156 23.884 6 23.3824 6 22.759V20.134H24V22.759C24 23.3824 23.4984 23.884 22.875 23.884ZM6 18.634V15.634H24V18.634H6ZM6 14.134V10.384H24V14.134H6Z" fill="#023AA2"/>
</svg>
