<svg width="65" height="64" viewBox="0 0 65 64" fill="none" xmlns="http://www.w3.org/2000/svg">
<path d="M32.5 0C50.1731 0 64.5 14.3269 64.5 32C64.5 49.6731 50.1731 64 32.5 64C14.8269 64 0.5 49.6731 0.5 32C0.5 14.3269 14.8269 0 32.5 0Z" fill="#DBEAFE"/>
<path d="M32.5 0C50.1731 0 64.5 14.3269 64.5 32C64.5 49.6731 50.1731 64 32.5 64C14.8269 64 0.5 49.6731 0.5 32C0.5 14.3269 14.8269 0 32.5 0Z" stroke="#E5E7EB"/>
<path d="M47.5 48H17.5V16H47.5V48Z" stroke="#E5E7EB"/>
<g clip-path="url(#clip0_174_2715)">
<path d="M40 21.25C40 20.0078 38.9922 19 37.75 19H33.25C32.0078 19 31 20.0078 31 21.25V23.5H28V20.125C28 19.5016 27.4984 19 26.875 19C26.2516 19 25.75 19.5016 25.75 20.125V23.5H22.75V20.125C22.75 19.5016 22.2484 19 21.625 19C21.0016 19 20.5 19.5016 20.5 20.125V23.5H19.75C18.5078 23.5 17.5 24.5078 17.5 25.75V30.25V40.75C17.5 41.9922 18.5078 43 19.75 43H31.75H33.25H37.75H45.25C46.4922 43 47.5 41.9922 47.5 40.75V30.25C47.5 29.0078 46.4922 28 45.25 28H40V21.25ZM44.5 36.25V37.75C44.5 38.1625 44.1625 38.5 43.75 38.5H42.25C41.8375 38.5 41.5 38.1625 41.5 37.75V36.25C41.5 35.8375 41.8375 35.5 42.25 35.5H43.75C44.1625 35.5 44.5 35.8375 44.5 36.25ZM28.75 38.5H27.25C26.8375 38.5 26.5 38.1625 26.5 37.75V36.25C26.5 35.8375 26.8375 35.5 27.25 35.5H28.75C29.1625 35.5 29.5 35.8375 29.5 36.25V37.75C29.5 38.1625 29.1625 38.5 28.75 38.5ZM23.5 37.75C23.5 38.1625 23.1625 38.5 22.75 38.5H21.25C20.8375 38.5 20.5 38.1625 20.5 37.75V36.25C20.5 35.8375 20.8375 35.5 21.25 35.5H22.75C23.1625 35.5 23.5 35.8375 23.5 36.25V37.75ZM43.75 31C44.1625 31 44.5 31.3375 44.5 31.75V33.25C44.5 33.6625 44.1625 34 43.75 34H42.25C41.8375 34 41.5 33.6625 41.5 33.25V31.75C41.5 31.3375 41.8375 31 42.25 31H43.75ZM29.5 27.25V28.75C29.5 29.1625 29.1625 29.5 28.75 29.5H27.25C26.8375 29.5 26.5 29.1625 26.5 28.75V27.25C26.5 26.8375 26.8375 26.5 27.25 26.5H28.75C29.1625 26.5 29.5 26.8375 29.5 27.25ZM22.75 26.5C23.1625 26.5 23.5 26.8375 23.5 27.25V28.75C23.5 29.1625 23.1625 29.5 22.75 29.5H21.25C20.8375 29.5 20.5 29.1625 20.5 28.75V27.25C20.5 26.8375 20.8375 26.5 21.25 26.5H22.75ZM29.5 33.25C29.5 33.6625 29.1625 34 28.75 34H27.25C26.8375 34 26.5 33.6625 26.5 33.25V31.75C26.5 31.3375 26.8375 31 27.25 31H28.75C29.1625 31 29.5 31.3375 29.5 31.75V33.25ZM22.75 34H21.25C20.8375 34 20.5 33.6625 20.5 33.25V31.75C20.5 31.3375 20.8375 31 21.25 31H22.75C23.1625 31 23.5 31.3375 23.5 31.75V33.25C23.5 33.6625 23.1625 34 22.75 34ZM37 31.75V33.25C37 33.6625 36.6625 34 36.25 34H34.75C34.3375 34 34 33.6625 34 33.25V31.75C34 31.3375 34.3375 31 34.75 31H36.25C36.6625 31 37 31.3375 37 31.75ZM36.25 22C36.6625 22 37 22.3375 37 22.75V24.25C37 24.6625 36.6625 25 36.25 25H34.75C34.3375 25 34 24.6625 34 24.25V22.75C34 22.3375 34.3375 22 34.75 22H36.25ZM37 27.25V28.75C37 29.1625 36.6625 29.5 36.25 29.5H34.75C34.3375 29.5 34 29.1625 34 28.75V27.25C34 26.8375 34.3375 26.5 34.75 26.5H36.25C36.6625 26.5 37 26.8375 37 27.25Z" fill="#023AA2"/>
</g>
<defs>
<clipPath id="clip0_174_2715">
<path d="M17.5 19H47.5V43H17.5V19Z" fill="white"/>
</clipPath>
</defs>
</svg>
