<svg width="30" height="24" viewBox="0 0 30 24" fill="none" xmlns="http://www.w3.org/2000/svg">
<path d="M22.5 2.25C22.5 1.00781 21.4922 0 20.25 0H15.75C14.5078 0 13.5 1.00781 13.5 2.25V4.5H10.5V1.125C10.5 0.501562 9.99844 0 9.375 0C8.75156 0 8.25 0.501562 8.25 1.125V4.5H5.25V1.125C5.25 0.501562 4.74844 0 4.125 0C3.50156 0 3 0.501562 3 1.125V4.5H2.25C1.00781 4.5 0 5.50781 0 6.75V11.25V21.75C0 22.9922 1.00781 24 2.25 24H14.25H15.75H20.25H27.75C28.9922 24 30 22.9922 30 21.75V11.25C30 10.0078 28.9922 9 27.75 9H22.5V2.25ZM27 17.25V18.75C27 19.1625 26.6625 19.5 26.25 19.5H24.75C24.3375 19.5 24 19.1625 24 18.75V17.25C24 16.8375 24.3375 16.5 24.75 16.5H26.25C26.6625 16.5 27 16.8375 27 17.25ZM11.25 19.5H9.75C9.3375 19.5 9 19.1625 9 18.75V17.25C9 16.8375 9.3375 16.5 9.75 16.5H11.25C11.6625 16.5 12 16.8375 12 17.25V18.75C12 19.1625 11.6625 19.5 11.25 19.5ZM6 18.75C6 19.1625 5.6625 19.5 5.25 19.5H3.75C3.3375 19.5 3 19.1625 3 18.75V17.25C3 16.8375 3.3375 16.5 3.75 16.5H5.25C5.6625 16.5 6 16.8375 6 17.25V18.75ZM26.25 12C26.6625 12 27 12.3375 27 12.75V14.25C27 14.6625 26.6625 15 26.25 15H24.75C24.3375 15 24 14.6625 24 14.25V12.75C24 12.3375 24.3375 12 24.75 12H26.25ZM12 8.25V9.75C12 10.1625 11.6625 10.5 11.25 10.5H9.75C9.3375 10.5 9 10.1625 9 9.75V8.25C9 7.8375 9.3375 7.5 9.75 7.5H11.25C11.6625 7.5 12 7.8375 12 8.25ZM5.25 7.5C5.6625 7.5 6 7.8375 6 8.25V9.75C6 10.1625 5.6625 10.5 5.25 10.5H3.75C3.3375 10.5 3 10.1625 3 9.75V8.25C3 7.8375 3.3375 7.5 3.75 7.5H5.25ZM12 14.25C12 14.6625 11.6625 15 11.25 15H9.75C9.3375 15 9 14.6625 9 14.25V12.75C9 12.3375 9.3375 12 9.75 12H11.25C11.6625 12 12 12.3375 12 12.75V14.25ZM5.25 15H3.75C3.3375 15 3 14.6625 3 14.25V12.75C3 12.3375 3.3375 12 3.75 12H5.25C5.6625 12 6 12.3375 6 12.75V14.25C6 14.6625 5.6625 15 5.25 15ZM19.5 12.75V14.25C19.5 14.6625 19.1625 15 18.75 15H17.25C16.8375 15 16.5 14.6625 16.5 14.25V12.75C16.5 12.3375 16.8375 12 17.25 12H18.75C19.1625 12 19.5 12.3375 19.5 12.75ZM18.75 3C19.1625 3 19.5 3.3375 19.5 3.75V5.25C19.5 5.6625 19.1625 6 18.75 6H17.25C16.8375 6 16.5 5.6625 16.5 5.25V3.75C16.5 3.3375 16.8375 3 17.25 3H18.75ZM19.5 8.25V9.75C19.5 10.1625 19.1625 10.5 18.75 10.5H17.25C16.8375 10.5 16.5 10.1625 16.5 9.75V8.25C16.5 7.8375 16.8375 7.5 17.25 7.5H18.75C19.1625 7.5 19.5 7.8375 19.5 8.25Z" fill="#023AA2"/>
</svg>
