<svg width="65" height="64" viewBox="0 0 65 64" fill="none" xmlns="http://www.w3.org/2000/svg">
<path d="M32.5 0C50.1731 0 64.5 14.3269 64.5 32C64.5 49.6731 50.1731 64 32.5 64C14.8269 64 0.5 49.6731 0.5 32C0.5 14.3269 14.8269 0 32.5 0Z" fill="#DBEAFE"/>
<path d="M32.5 0C50.1731 0 64.5 14.3269 64.5 32C64.5 49.6731 50.1731 64 32.5 64C14.8269 64 0.5 49.6731 0.5 32C0.5 14.3269 14.8269 0 32.5 0Z" stroke="#E5E7EB"/>
<path d="M43 48H22V16H43V48Z" stroke="#E5E7EB"/>
<path d="M43 43H22V19H43V43Z" stroke="#E5E7EB"/>
<path d="M22 23.5C22 21.8453 23.3453 20.5 25 20.5H40C41.6547 20.5 43 21.8453 43 23.5V38.5C43 40.1547 41.6547 41.5 40 41.5H25C23.3453 41.5 22 40.1547 22 38.5V23.5Z" fill="#023AA2"/>
</svg>
