<svg width="65" height="64" viewBox="0 0 65 64" fill="none" xmlns="http://www.w3.org/2000/svg">
<path d="M32.5 0C50.1731 0 64.5 14.3269 64.5 32C64.5 49.6731 50.1731 64 32.5 64C14.8269 64 0.5 49.6731 0.5 32C0.5 14.3269 14.8269 0 32.5 0Z" fill="#DBEAFE"/>
<path d="M32.5 0C50.1731 0 64.5 14.3269 64.5 32C64.5 49.6731 50.1731 64 32.5 64C14.8269 64 0.5 49.6731 0.5 32C0.5 14.3269 14.8269 0 32.5 0Z" stroke="#E5E7EB"/>
<path d="M46 48H19V16H46V48Z" stroke="#E5E7EB"/>
<path d="M46 43H19V19H46V43Z" stroke="#E5E7EB"/>
<path d="M31 20.5C30.1703 20.5 29.5 21.1703 29.5 22V22.1078V26.7766C29.5 27.0391 29.2891 27.25 29.0266 27.25C28.8578 27.25 28.6984 27.1609 28.6141 27.0109L26.3641 23.0781C22.8906 24.7891 20.5 28.3656 20.5 32.5V35.5H44.5V32.3875C44.4578 28.3 42.0766 24.775 38.6359 23.0781L36.3859 27.0109C36.3016 27.1609 36.1422 27.25 35.9734 27.25C35.7109 27.25 35.5 27.0391 35.5 26.7766V22.1078V22C35.5 21.1703 34.8297 20.5 34 20.5H31ZM19.7781 37C19.3469 37 19 37.3469 19 37.7781C19 37.9984 19.0938 38.2094 19.2719 38.3359C20.2891 39.0812 24.2406 41.5 32.5 41.5C40.7594 41.5 44.7109 39.0812 45.7281 38.3359C45.9062 38.2047 46 37.9984 46 37.7781C46 37.3469 45.6531 37 45.2219 37H19.7781Z" fill="#023AA2"/>
</svg>
