<svg width="27" height="21" viewBox="0 0 27 21" fill="none" xmlns="http://www.w3.org/2000/svg">
<path d="M12 0C11.1703 0 10.5 0.670312 10.5 1.5V1.60781V6.27656C10.5 6.53906 10.2891 6.75 10.0266 6.75C9.85781 6.75 9.69844 6.66094 9.61406 6.51094L7.36406 2.57812C3.89063 4.28906 1.5 7.86563 1.5 12V15H25.5V11.8875C25.4578 7.8 23.0766 4.275 19.6359 2.57812L17.3859 6.51094C17.3016 6.66094 17.1422 6.75 16.9734 6.75C16.7109 6.75 16.5 6.53906 16.5 6.27656V1.60781V1.5C16.5 0.670312 15.8297 0 15 0H12ZM0.778125 16.5C0.346875 16.5 0 16.8469 0 17.2781C0 17.4984 0.09375 17.7094 0.271875 17.8359C1.28906 18.5812 5.24063 21 13.5 21C21.7594 21 25.7109 18.5812 26.7281 17.8359C26.9062 17.7047 27 17.4984 27 17.2781C27 16.8469 26.6531 16.5 26.2219 16.5H0.778125Z" fill="#023AA2"/>
</svg>
