<svg width="18" height="24" viewBox="0 0 18 24" fill="none" xmlns="http://www.w3.org/2000/svg">
<path d="M7.2 1.40156L7.95 0.403125C8.1375 0.15 8.4375 0 8.75156 0C9.3 0 9.75 0.45 9.75 0.998437V2.03906C9.75 2.65313 10.0031 3.24375 10.4484 3.66562L14.4188 7.45312C16.7063 9.6375 18 12.6656 18 15.8297C18 20.3438 14.3438 24 9.82969 24H9C4.03125 24 0 19.9688 0 15V14.8219C0 12.5344 0.909375 10.3406 2.52656 8.72344L2.69063 8.55938C2.8875 8.3625 3.15938 8.25 3.44063 8.25C4.02656 8.25 4.5 8.72344 4.5 9.30938V13.5C4.5 15.1547 5.84531 16.5 7.5 16.5C9.15469 16.5 10.5 15.1547 10.5 13.5V13.3172C10.5 12.4734 10.1625 11.6625 9.56719 11.0672L7.75781 9.25781C6.63281 8.13281 6 6.6 6 5.00625C6 3.70781 6.42188 2.4375 7.2 1.40156Z" fill="#023AA2"/>
</svg>
