<svg width="65" height="64" viewBox="0 0 65 64" fill="none" xmlns="http://www.w3.org/2000/svg">
<path d="M32.5 0C50.1731 0 64.5 14.3269 64.5 32C64.5 49.6731 50.1731 64 32.5 64C14.8269 64 0.5 49.6731 0.5 32C0.5 14.3269 14.8269 0 32.5 0Z" fill="#DBEAFE"/>
<path d="M32.5 0C50.1731 0 64.5 14.3269 64.5 32C64.5 49.6731 50.1731 64 32.5 64C14.8269 64 0.5 49.6731 0.5 32C0.5 14.3269 14.8269 0 32.5 0Z" stroke="#E5E7EB"/>
<path d="M41.5 48H23.5V16H41.5V48Z" stroke="#E5E7EB"/>
<g clip-path="url(#clip0_174_2880)">
<path d="M30.7 20.4016L31.45 19.4031C31.6375 19.15 31.9375 19 32.2516 19C32.8 19 33.25 19.45 33.25 19.9984V21.0391C33.25 21.6531 33.5031 22.2437 33.9484 22.6656L37.9188 26.4531C40.2063 28.6375 41.5 31.6656 41.5 34.8297C41.5 39.3438 37.8438 43 33.3297 43H32.5C27.5312 43 23.5 38.9688 23.5 34V33.8219C23.5 31.5344 24.4094 29.3406 26.0266 27.7234L26.1906 27.5594C26.3875 27.3625 26.6594 27.25 26.9406 27.25C27.5266 27.25 28 27.7234 28 28.3094V32.5C28 34.1547 29.3453 35.5 31 35.5C32.6547 35.5 34 34.1547 34 32.5V32.3172C34 31.4734 33.6625 30.6625 33.0672 30.0672L31.2578 28.2578C30.1328 27.1328 29.5 25.6 29.5 24.0063C29.5 22.7078 29.9219 21.4375 30.7 20.4016Z" fill="#023AA2"/>
</g>
<defs>
<clipPath id="clip0_174_2880">
<path d="M23.5 19H41.5V43H23.5V19Z" fill="white"/>
</clipPath>
</defs>
</svg>
