<svg width="65" height="64" viewBox="0 0 65 64" fill="none" xmlns="http://www.w3.org/2000/svg">
<path d="M32.5 0C50.1731 0 64.5 14.3269 64.5 32C64.5 49.6731 50.1731 64 32.5 64C14.8269 64 0.5 49.6731 0.5 32C0.5 14.3269 14.8269 0 32.5 0Z" fill="#DBEAFE"/>
<path d="M32.5 0C50.1731 0 64.5 14.3269 64.5 32C64.5 49.6731 50.1731 64 32.5 64C14.8269 64 0.5 49.6731 0.5 32C0.5 14.3269 14.8269 0 32.5 0Z" stroke="#E5E7EB"/>
<path d="M43 48H22V16H43V48Z" stroke="#E5E7EB"/>
<path d="M43 43H22V19H43V43Z" stroke="#E5E7EB"/>
<path d="M40 23.5V29.5H34V23.5H40ZM40 32.5V38.5H34V32.5H40ZM31 29.5H25V23.5H31V29.5ZM25 32.5H31V38.5H25V32.5ZM25 20.5C23.3453 20.5 22 21.8453 22 23.5V38.5C22 40.1547 23.3453 41.5 25 41.5H40C41.6547 41.5 43 40.1547 43 38.5V23.5C43 21.8453 41.6547 20.5 40 20.5H25Z" fill="#023AA2"/>
</svg>
