<svg width="30" height="21" viewBox="0 0 30 21" fill="none" xmlns="http://www.w3.org/2000/svg">
<path d="M3 6C3 2.68594 5.68594 0 9 0H21C24.3141 0 27 2.68594 27 6V7.575C25.2891 7.92188 24 9.43594 24 11.25V13.5H6V11.25C6 9.43594 4.71094 7.92188 3 7.575V6ZM25.5 11.25C25.5 10.2703 26.1281 9.43594 27 9.12656C27.2344 9.04219 27.4875 9 27.75 9C28.9922 9 30 10.0078 30 11.25V19.5C30 20.3297 29.3297 21 28.5 21H27C26.1703 21 25.5 20.3297 25.5 19.5H4.5C4.5 20.3297 3.82969 21 3 21H1.5C0.670312 21 0 20.3297 0 19.5V11.25C0 10.0078 1.00781 9 2.25 9C2.5125 9 2.76562 9.04688 3 9.12656C3.87188 9.43594 4.5 10.2703 4.5 11.25V13.5V15H6H24H25.5V13.5V11.25Z" fill="#023AA2"/>
</svg>
