<svg width="65" height="64" viewBox="0 0 65 64" fill="none" xmlns="http://www.w3.org/2000/svg">
<path d="M32.5 0C50.1731 0 64.5 14.3269 64.5 32C64.5 49.6731 50.1731 64 32.5 64C14.8269 64 0.5 49.6731 0.5 32C0.5 14.3269 14.8269 0 32.5 0Z" fill="#DBEAFE"/>
<path d="M32.5 0C50.1731 0 64.5 14.3269 64.5 32C64.5 49.6731 50.1731 64 32.5 64C14.8269 64 0.5 49.6731 0.5 32C0.5 14.3269 14.8269 0 32.5 0Z" stroke="#E5E7EB"/>
<path d="M47.5 48H17.5V16H47.5V48Z" stroke="#E5E7EB"/>
<g clip-path="url(#clip0_174_2615)">
<path d="M20.5 26.5C20.5 23.1859 23.1859 20.5 26.5 20.5H38.5C41.8141 20.5 44.5 23.1859 44.5 26.5V28.075C42.7891 28.4219 41.5 29.9359 41.5 31.75V34H23.5V31.75C23.5 29.9359 22.2109 28.4219 20.5 28.075V26.5ZM43 31.75C43 30.7703 43.6281 29.9359 44.5 29.6266C44.7344 29.5422 44.9875 29.5 45.25 29.5C46.4922 29.5 47.5 30.5078 47.5 31.75V40C47.5 40.8297 46.8297 41.5 46 41.5H44.5C43.6703 41.5 43 40.8297 43 40H22C22 40.8297 21.3297 41.5 20.5 41.5H19C18.1703 41.5 17.5 40.8297 17.5 40V31.75C17.5 30.5078 18.5078 29.5 19.75 29.5C20.0125 29.5 20.2656 29.5469 20.5 29.6266C21.3719 29.9359 22 30.7703 22 31.75V34V35.5H23.5H41.5H43V34V31.75Z" fill="#023AA2"/>
</g>
<defs>
<clipPath id="clip0_174_2615">
<path d="M17.5 19H47.5V43H17.5V19Z" fill="white"/>
</clipPath>
</defs>
</svg>
