<svg width="24" height="24" viewBox="0 0 24 24" fill="none" xmlns="http://www.w3.org/2000/svg">
<path d="M10.8984 0.242578C11.5969 -0.0808594 12.4031 -0.0808594 13.1016 0.242578L23.3484 4.97695C23.7469 5.15977 24 5.5582 24 5.99883C24 6.43945 23.7469 6.83789 23.3484 7.0207L13.1016 11.7551C12.4031 12.0785 11.5969 12.0785 10.8984 11.7551L0.651563 7.0207C0.253125 6.8332 0 6.43477 0 5.99883C0 5.56289 0.253125 5.15977 0.651563 4.97695L10.8984 0.242578ZM20.8547 9.82383L23.3484 10.977C23.7469 11.1598 24 11.5582 24 11.9988C24 12.4395 23.7469 12.8379 23.3484 13.0207L13.1016 17.7551C12.4031 18.0785 11.5969 18.0785 10.8984 17.7551L0.651563 13.0207C0.253125 12.8332 0 12.4348 0 11.9988C0 11.5629 0.253125 11.1598 0.651563 10.977L3.14531 9.82383L10.2703 13.1145C11.3672 13.6207 12.6328 13.6207 13.7297 13.1145L20.8547 9.82383ZM13.7297 19.1145L20.8547 15.8238L23.3484 16.977C23.7469 17.1598 24 17.5582 24 17.9988C24 18.4395 23.7469 18.8379 23.3484 19.0207L13.1016 23.7551C12.4031 24.0785 11.5969 24.0785 10.8984 23.7551L0.651563 19.0207C0.253125 18.8332 0 18.4348 0 17.9988C0 17.5629 0.253125 17.1598 0.651563 16.977L3.14531 15.8238L10.2703 19.1145C11.3672 19.6207 12.6328 19.6207 13.7297 19.1145Z" fill="#023AA2"/>
</svg>
