<svg width="65" height="64" viewBox="0 0 65 64" fill="none" xmlns="http://www.w3.org/2000/svg">
<path d="M32.5 0C50.1731 0 64.5 14.3269 64.5 32C64.5 49.6731 50.1731 64 32.5 64C14.8269 64 0.5 49.6731 0.5 32C0.5 14.3269 14.8269 0 32.5 0Z" fill="#DBEAFE"/>
<path d="M32.5 0C50.1731 0 64.5 14.3269 64.5 32C64.5 49.6731 50.1731 64 32.5 64C14.8269 64 0.5 49.6731 0.5 32C0.5 14.3269 14.8269 0 32.5 0Z" stroke="#E5E7EB"/>
<path d="M46 48H19V16H46V48Z" stroke="#E5E7EB"/>
<path d="M46 43H19V19H46V43Z" stroke="#E5E7EB"/>
<path d="M31.3984 19.2445C32.0969 18.9211 32.9031 18.9211 33.6016 19.2445L43.8484 23.9789C44.2469 24.1617 44.5 24.5602 44.5 25.0008C44.5 25.4414 44.2469 25.8398 43.8484 26.0227L33.6016 30.757C32.9031 31.0805 32.0969 31.0805 31.3984 30.757L21.1516 26.0227C20.7531 25.8352 20.5 25.4367 20.5 25.0008C20.5 24.5648 20.7531 24.1617 21.1516 23.9789L31.3984 19.2445ZM41.3547 28.8258L43.8484 29.9789C44.2469 30.1617 44.5 30.5602 44.5 31.0008C44.5 31.4414 44.2469 31.8398 43.8484 32.0227L33.6016 36.757C32.9031 37.0805 32.0969 37.0805 31.3984 36.757L21.1516 32.0227C20.7531 31.8352 20.5 31.4367 20.5 31.0008C20.5 30.5648 20.7531 30.1617 21.1516 29.9789L23.6453 28.8258L30.7703 32.1164C31.8672 32.6227 33.1328 32.6227 34.2297 32.1164L41.3547 28.8258ZM34.2297 38.1164L41.3547 34.8258L43.8484 35.9789C44.2469 36.1617 44.5 36.5602 44.5 37.0008C44.5 37.4414 44.2469 37.8398 43.8484 38.0227L33.6016 42.757C32.9031 43.0805 32.0969 43.0805 31.3984 42.757L21.1516 38.0227C20.7531 37.8352 20.5 37.4367 20.5 37.0008C20.5 36.5648 20.7531 36.1617 21.1516 35.9789L23.6453 34.8258L30.7703 38.1164C31.8672 38.6227 33.1328 38.6227 34.2297 38.1164Z" fill="#023AA2"/>
</svg>
