<svg width="65" height="64" viewBox="0 0 65 64" fill="none" xmlns="http://www.w3.org/2000/svg">
<path d="M32.5 0C50.1731 0 64.5 14.3269 64.5 32C64.5 49.6731 50.1731 64 32.5 64C14.8269 64 0.5 49.6731 0.5 32C0.5 14.3269 14.8269 0 32.5 0Z" fill="#DBEAFE"/>
<path d="M32.5 0C50.1731 0 64.5 14.3269 64.5 32C64.5 49.6731 50.1731 64 32.5 64C14.8269 64 0.5 49.6731 0.5 32C0.5 14.3269 14.8269 0 32.5 0Z" stroke="#E5E7EB"/>
<path d="M46 48H19V16H46V48Z" stroke="#E5E7EB"/>
<path d="M46 43H19V19H46V43Z" stroke="#E5E7EB"/>
<path d="M30.25 25.75C30.25 24.5565 29.7759 23.4119 28.932 22.568C28.0881 21.7241 26.9435 21.25 25.75 21.25C24.5565 21.25 23.4119 21.7241 22.568 22.568C21.7241 23.4119 21.25 24.5565 21.25 25.75C21.25 26.9435 21.7241 28.0881 22.568 28.932C23.4119 29.7759 24.5565 30.25 25.75 30.25C26.9435 30.25 28.0881 29.7759 28.932 28.932C29.7759 28.0881 30.25 26.9435 30.25 25.75ZM32.3312 27.25C31.6516 30.2547 28.9609 32.5 25.75 32.5C22.0234 32.5 19 29.4766 19 25.75C19 22.0234 22.0234 19 25.75 19C28.9609 19 31.6516 21.2453 32.3312 24.25H35.6969C36.1094 23.7906 36.7094 23.5 37.375 23.5H42.25C43.4922 23.5 44.5 24.5078 44.5 25.75C44.5 26.9922 43.4922 28 42.25 28H37.375C36.7094 28 36.1094 27.7094 35.6969 27.25H32.3312ZM25.75 22.75C26.5456 22.75 27.3087 23.0661 27.8713 23.6287C28.4339 24.1913 28.75 24.9544 28.75 25.75C28.75 26.5456 28.4339 27.3087 27.8713 27.8713C27.3087 28.4339 26.5456 28.75 25.75 28.75C24.9544 28.75 24.1913 28.4339 23.6287 27.8713C23.0661 27.3087 22.75 26.5456 22.75 25.75C22.75 24.9544 23.0661 24.1913 23.6287 23.6287C24.1913 23.0661 24.9544 22.75 25.75 22.75ZM37.75 30.25C38.3734 30.25 38.875 30.7516 38.875 31.375V31.75H43.375C43.9984 31.75 44.5 32.2516 44.5 32.875C44.5 33.4984 43.9984 34 43.375 34H32.125C31.5016 34 31 33.4984 31 32.875C31 32.2516 31.5016 31.75 32.125 31.75H36.625V31.375C36.625 30.7516 37.1266 30.25 37.75 30.25ZM32.5 40.75V35.5H43V40.75C43 41.9922 41.9922 43 40.75 43H34.75C33.5078 43 32.5 41.9922 32.5 40.75ZM21.25 34H25H25.75H27.25C28.4922 34 29.5 35.0078 29.5 36.25C29.5 37.4922 28.4922 38.5 27.25 38.5H26.5C26.5 39.3297 25.8297 40 25 40H22C21.1703 40 20.5 39.3297 20.5 38.5V34.75C20.5 34.3375 20.8375 34 21.25 34ZM27.25 37C27.6625 37 28 36.6625 28 36.25C28 35.8375 27.6625 35.5 27.25 35.5H26.5V37H27.25ZM20.125 40.75H28.375C28.9984 40.75 29.5 41.2516 29.5 41.875C29.5 42.4984 28.9984 43 28.375 43H20.125C19.5016 43 19 42.4984 19 41.875C19 41.2516 19.5016 40.75 20.125 40.75Z" fill="#023AA2"/>
</svg>
