<svg width="65" height="64" viewBox="0 0 65 64" fill="none" xmlns="http://www.w3.org/2000/svg">
<path d="M32.5 0C50.1731 0 64.5 14.3269 64.5 32C64.5 49.6731 50.1731 64 32.5 64C14.8269 64 0.5 49.6731 0.5 32C0.5 14.3269 14.8269 0 32.5 0Z" fill="#DBEAFE"/>
<path d="M32.5 0C50.1731 0 64.5 14.3269 64.5 32C64.5 49.6731 50.1731 64 32.5 64C14.8269 64 0.5 49.6731 0.5 32C0.5 14.3269 14.8269 0 32.5 0Z" stroke="#E5E7EB"/>
<path d="M46 48H19V16H46V48Z" stroke="#E5E7EB"/>
<g clip-path="url(#clip0_174_2864)">
<path d="M23.5 19C21.8453 19 20.5 20.3453 20.5 22V40C19.6703 40 19 40.6703 19 41.5C19 42.3297 19.6703 43 20.5 43H34C34.8297 43 35.5 42.3297 35.5 41.5C35.5 40.6703 34.8297 40 34 40V33.25H34.75C35.7859 33.25 36.625 34.0891 36.625 35.125V36.625C36.625 38.4906 38.1344 40 40 40C41.8656 40 43.375 38.4906 43.375 36.625V30.8266C44.8984 30.3484 46 28.9281 46 27.25V25.75C46 25.3375 45.6625 25 45.25 25H44.5V22.75C44.5 22.3375 44.1625 22 43.75 22C43.3375 22 43 22.3375 43 22.75V25H41.5V22.75C41.5 22.3375 41.1625 22 40.75 22C40.3375 22 40 22.3375 40 22.75V25H39.25C38.8375 25 38.5 25.3375 38.5 25.75V27.25C38.5 28.9281 39.6016 30.3484 41.125 30.8266V36.625C41.125 37.2484 40.6234 37.75 40 37.75C39.3766 37.75 38.875 37.2484 38.875 36.625V35.125C38.875 32.8469 37.0281 31 34.75 31H34V22C34 20.3453 32.6547 19 31 19H23.5ZM29.1672 22.8766C29.4484 23.0641 29.5656 23.4156 29.4625 23.7344L28.2906 27.2453H31C31.3141 27.2453 31.5953 27.4422 31.7031 27.7328C31.8109 28.0234 31.7266 28.3562 31.4875 28.5625L26.2375 33.0625C25.9797 33.2828 25.6094 33.3016 25.3328 33.1141C25.0563 32.9266 24.9344 32.575 25.0375 32.2562L26.2094 28.7453H23.5C23.1859 28.7453 22.9047 28.5484 22.7969 28.2578C22.6891 27.9672 22.7734 27.6344 23.0125 27.4281L28.2625 22.9281C28.5203 22.7078 28.8906 22.6891 29.1672 22.8766Z" fill="#023AA2"/>
</g>
<defs>
<clipPath id="clip0_174_2864">
<path d="M19 19H46V43H19V19Z" fill="white"/>
</clipPath>
</defs>
</svg>
