<svg width="27" height="24" viewBox="0 0 27 24" fill="none" xmlns="http://www.w3.org/2000/svg">
<path d="M4.5 0C2.84531 0 1.5 1.34531 1.5 3V21C0.670312 21 0 21.6703 0 22.5C0 23.3297 0.670312 24 1.5 24H15C15.8297 24 16.5 23.3297 16.5 22.5C16.5 21.6703 15.8297 21 15 21V14.25H15.75C16.7859 14.25 17.625 15.0891 17.625 16.125V17.625C17.625 19.4906 19.1344 21 21 21C22.8656 21 24.375 19.4906 24.375 17.625V11.8266C25.8984 11.3484 27 9.92813 27 8.25V6.75C27 6.3375 26.6625 6 26.25 6H25.5V3.75C25.5 3.3375 25.1625 3 24.75 3C24.3375 3 24 3.3375 24 3.75V6H22.5V3.75C22.5 3.3375 22.1625 3 21.75 3C21.3375 3 21 3.3375 21 3.75V6H20.25C19.8375 6 19.5 6.3375 19.5 6.75V8.25C19.5 9.92813 20.6016 11.3484 22.125 11.8266V17.625C22.125 18.2484 21.6234 18.75 21 18.75C20.3766 18.75 19.875 18.2484 19.875 17.625V16.125C19.875 13.8469 18.0281 12 15.75 12H15V3C15 1.34531 13.6547 0 12 0H4.5ZM10.1672 3.87656C10.4484 4.06406 10.5656 4.41563 10.4625 4.73438L9.29062 8.24531H12C12.3141 8.24531 12.5953 8.44219 12.7031 8.73281C12.8109 9.02344 12.7266 9.35625 12.4875 9.5625L7.2375 14.0625C6.97969 14.2828 6.60938 14.3016 6.33281 14.1141C6.05625 13.9266 5.93438 13.575 6.0375 13.2562L7.20938 9.74531H4.5C4.18594 9.74531 3.90469 9.54844 3.79688 9.25781C3.68906 8.96719 3.77344 8.63438 4.0125 8.42813L9.2625 3.92813C9.52031 3.70781 9.89062 3.68906 10.1672 3.87656Z" fill="#023AA2"/>
</svg>
