<svg width="65" height="64" viewBox="0 0 65 64" fill="none" xmlns="http://www.w3.org/2000/svg">
<path d="M32.5 0C50.1731 0 64.5 14.3269 64.5 32C64.5 49.6731 50.1731 64 32.5 64C14.8269 64 0.5 49.6731 0.5 32C0.5 14.3269 14.8269 0 32.5 0Z" fill="#DBEAFE"/>
<path d="M32.5 0C50.1731 0 64.5 14.3269 64.5 32C64.5 49.6731 50.1731 64 32.5 64C14.8269 64 0.5 49.6731 0.5 32C0.5 14.3269 14.8269 0 32.5 0Z" stroke="#E5E7EB"/>
<path d="M44.5 48H20.5V16H44.5V48Z" stroke="#E5E7EB"/>
<g clip-path="url(#clip0_174_2920)">
<path d="M37 34C41.1437 34 44.5 30.6438 44.5 26.5C44.5 25.7828 44.3969 25.0891 44.2094 24.4281C44.0641 23.9219 43.4406 23.8094 43.0703 24.1797L39.4703 27.7797C39.3297 27.9203 39.1375 28 38.9406 28H36.25C35.8375 28 35.5 27.6625 35.5 27.25V24.5594C35.5 24.3625 35.5797 24.1703 35.7203 24.0297L39.3203 20.4297C39.6906 20.0594 39.5734 19.4359 39.0719 19.2906C38.4109 19.1031 37.7172 19 37 19C32.8562 19 29.5 22.3562 29.5 26.5C29.5 27.3953 29.6594 28.2578 29.9453 29.0547L21.4328 37.5672C20.8375 38.1625 20.5 38.9734 20.5 39.8172C20.5 41.575 21.925 43 23.6828 43C24.5266 43 25.3375 42.6625 25.9328 42.0672L34.4453 33.5547C35.2422 33.8453 36.1047 34 37 34ZM24.25 38.125C24.5484 38.125 24.8345 38.2435 25.0455 38.4545C25.2565 38.6655 25.375 38.9516 25.375 39.25C25.375 39.5484 25.2565 39.8345 25.0455 40.0455C24.8345 40.2565 24.5484 40.375 24.25 40.375C23.9516 40.375 23.6655 40.2565 23.4545 40.0455C23.2435 39.8345 23.125 39.5484 23.125 39.25C23.125 38.9516 23.2435 38.6655 23.4545 38.4545C23.6655 38.2435 23.9516 38.125 24.25 38.125Z" fill="#023AA2"/>
</g>
<defs>
<clipPath id="clip0_174_2920">
<path d="M20.5 19H44.5V43H20.5V19Z" fill="white"/>
</clipPath>
</defs>
</svg>
