<svg width="65" height="64" viewBox="0 0 65 64" fill="none" xmlns="http://www.w3.org/2000/svg">
<path d="M32.5 0C50.1731 0 64.5 14.3269 64.5 32C64.5 49.6731 50.1731 64 32.5 64C14.8269 64 0.5 49.6731 0.5 32C0.5 14.3269 14.8269 0 32.5 0Z" fill="#DBEAFE"/>
<path d="M32.5 0C50.1731 0 64.5 14.3269 64.5 32C64.5 49.6731 50.1731 64 32.5 64C14.8269 64 0.5 49.6731 0.5 32C0.5 14.3269 14.8269 0 32.5 0Z" stroke="#E5E7EB"/>
<path d="M44.5 48H20.5V16H44.5V48Z" stroke="#E5E7EB"/>
<g clip-path="url(#clip0_174_2667)">
<path d="M20.5094 40.9797C20.6266 42.1141 21.5828 43 22.75 43H27.25H42.25C43.4922 43 44.5 41.9922 44.5 40.75V36.25C44.5 35.0078 43.4922 34 42.25 34H40V37.75C40 38.1625 39.6625 38.5 39.25 38.5C38.8375 38.5 38.5 38.1625 38.5 37.75V34H35.5V37.75C35.5 38.1625 35.1625 38.5 34.75 38.5C34.3375 38.5 34 38.1625 34 37.75V34H31V37.75C31 38.1625 30.6625 38.5 30.25 38.5C29.8375 38.5 29.5 38.1625 29.5 37.75V34H25.75C25.3375 34 25 33.6625 25 33.25C25 32.8375 25.3375 32.5 25.75 32.5H29.5V29.5H25.75C25.3375 29.5 25 29.1625 25 28.75C25 28.3375 25.3375 28 25.75 28H29.5V25H25.75C25.3375 25 25 24.6625 25 24.25C25 23.8375 25.3375 23.5 25.75 23.5H29.5V21.25C29.5 20.0078 28.4922 19 27.25 19H22.75C21.5078 19 20.5 20.0078 20.5 21.25V36.25V40.75C20.5 40.8297 20.5047 40.9047 20.5094 40.9797Z" fill="#023AA2"/>
</g>
<defs>
<clipPath id="clip0_174_2667">
<path d="M20.5 19H44.5V43H20.5V19Z" fill="white"/>
</clipPath>
</defs>
</svg>
