<svg width="65" height="64" viewBox="0 0 65 64" fill="none" xmlns="http://www.w3.org/2000/svg">
<path d="M32.5 0C50.1731 0 64.5 14.3269 64.5 32C64.5 49.6731 50.1731 64 32.5 64C14.8269 64 0.5 49.6731 0.5 32C0.5 14.3269 14.8269 0 32.5 0Z" fill="#DBEAFE"/>
<path d="M32.5 0C50.1731 0 64.5 14.3269 64.5 32C64.5 49.6731 50.1731 64 32.5 64C14.8269 64 0.5 49.6731 0.5 32C0.5 14.3269 14.8269 0 32.5 0Z" stroke="#E5E7EB"/>
<path d="M45.4422 22H18.5578C18.2498 22 18 22.2497 18 22.5578V42.0797C18 42.3877 18.2498 42.6374 18.5578 42.6374H45.4422C45.7502 42.6374 46 42.3877 46 42.0797V22.5578C46 22.2497 45.7502 22 45.4422 22ZM19.1155 23.1155H31.4422V26.9084H19.1155V23.1155ZM38.4144 28.0239V31.7888H25.5856V28.0239H38.4144ZM19.1155 28.0239H24.4701V31.7888H19.1155V28.0239ZM19.1155 32.9044H31.4422V36.6414H19.1155V32.9044ZM24.4701 41.5219H19.1155V37.7569H24.4701L24.4701 41.5219ZM38.4144 41.5219H25.5856V37.7569H38.4144V41.5219ZM44.8845 41.5219H39.5299V37.7569H44.8845V41.5219ZM44.8845 36.6414H32.5578V32.9044H44.8844L44.8845 36.6414ZM44.8845 31.7888H39.5299V28.0239H44.8845V31.7888ZM44.8845 26.9084H32.5578V23.1155H44.8844L44.8845 26.9084Z" fill="#023AA2"/>
<path d="M37.4661 40.0156H33.6175C33.3095 40.0156 33.0597 40.2653 33.0597 40.5734C33.0597 40.8814 33.3095 41.1311 33.6175 41.1311H37.4661C37.7741 41.1311 38.0239 40.8814 38.0239 40.5734C38.0239 40.2653 37.7741 40.0156 37.4661 40.0156Z" fill="#023AA2"/>
<path d="M31.8327 40.0156H31.3865C31.0785 40.0156 30.8287 40.2653 30.8287 40.5734C30.8287 40.8814 31.0785 41.1311 31.3865 41.1311H31.8327C32.1407 41.1311 32.3904 40.8814 32.3904 40.5734C32.3904 40.2653 32.1407 40.0156 31.8327 40.0156Z" fill="#023AA2"/>
</svg>
