<svg width="28" height="21" viewBox="0 0 28 21" fill="none" xmlns="http://www.w3.org/2000/svg">
<path d="M27.4422 0H0.557758C0.249758 0 0 0.249703 0 0.557758V20.0797C0 20.3877 0.249758 20.6374 0.557758 20.6374H27.4422C27.7502 20.6374 28 20.3877 28 20.0797V0.557758C28 0.249703 27.7502 0 27.4422 0ZM1.11552 1.11552H13.4422V4.90837H1.11552V1.11552ZM20.4144 6.02388V9.78884H7.58565V6.02388H20.4144ZM1.11552 6.02388H6.47008V9.78884H1.11552V6.02388ZM1.11552 10.9044H13.4422V14.6414H1.11552V10.9044ZM6.47013 19.5219H1.11552V15.7569H6.47008L6.47013 19.5219ZM20.4144 19.5219H7.58565V15.7569H20.4144V19.5219ZM26.8845 19.5219H21.5299V15.7569H26.8845V19.5219ZM26.8845 14.6414H14.5578V10.9044H26.8844L26.8845 14.6414ZM26.8845 9.78884H21.5299V6.02388H26.8845V9.78884ZM26.8845 4.90837H14.5578V1.11552H26.8844L26.8845 4.90837Z" fill="#023AA2"/>
<path d="M19.4669 18.0156H15.6183C15.3103 18.0156 15.0605 18.2653 15.0605 18.5734C15.0605 18.8814 15.3103 19.1311 15.6183 19.1311H19.4669C19.7749 19.1311 20.0247 18.8814 20.0247 18.5734C20.0247 18.2653 19.7749 18.0156 19.4669 18.0156Z" fill="#023AA2"/>
<path d="M13.8321 18.0156H13.3859C13.0779 18.0156 12.8281 18.2653 12.8281 18.5734C12.8281 18.8814 13.0779 19.1311 13.3859 19.1311H13.8321C14.1401 19.1311 14.3898 18.8814 14.3898 18.5734C14.3898 18.2653 14.1401 18.0156 13.8321 18.0156Z" fill="#023AA2"/>
</svg>
