<svg width="65" height="64" viewBox="0 0 65 64" fill="none" xmlns="http://www.w3.org/2000/svg">
<path d="M32.5 0C50.1731 0 64.5 14.3269 64.5 32C64.5 49.6731 50.1731 64 32.5 64C14.8269 64 0.5 49.6731 0.5 32C0.5 14.3269 14.8269 0 32.5 0Z" fill="#DBEAFE"/>
<path d="M32.5 0C50.1731 0 64.5 14.3269 64.5 32C64.5 49.6731 50.1731 64 32.5 64C14.8269 64 0.5 49.6731 0.5 32C0.5 14.3269 14.8269 0 32.5 0Z" stroke="#E5E7EB"/>
<path d="M41.5 48H23.5V16H41.5V48Z" stroke="#E5E7EB"/>
<g clip-path="url(#clip0_174_2707)">
<path d="M25.75 19C24.5078 19 23.5 20.0078 23.5 21.25V40.75C23.5 41.9922 24.5078 43 25.75 43H30.25V39.25C30.25 38.0078 31.2578 37 32.5 37C33.7422 37 34.75 38.0078 34.75 39.25V43H39.25C40.4922 43 41.5 41.9922 41.5 40.75V21.25C41.5 20.0078 40.4922 19 39.25 19H25.75ZM26.5 30.25C26.5 29.8375 26.8375 29.5 27.25 29.5H28.75C29.1625 29.5 29.5 29.8375 29.5 30.25V31.75C29.5 32.1625 29.1625 32.5 28.75 32.5H27.25C26.8375 32.5 26.5 32.1625 26.5 31.75V30.25ZM31.75 29.5H33.25C33.6625 29.5 34 29.8375 34 30.25V31.75C34 32.1625 33.6625 32.5 33.25 32.5H31.75C31.3375 32.5 31 32.1625 31 31.75V30.25C31 29.8375 31.3375 29.5 31.75 29.5ZM35.5 30.25C35.5 29.8375 35.8375 29.5 36.25 29.5H37.75C38.1625 29.5 38.5 29.8375 38.5 30.25V31.75C38.5 32.1625 38.1625 32.5 37.75 32.5H36.25C35.8375 32.5 35.5 32.1625 35.5 31.75V30.25ZM27.25 23.5H28.75C29.1625 23.5 29.5 23.8375 29.5 24.25V25.75C29.5 26.1625 29.1625 26.5 28.75 26.5H27.25C26.8375 26.5 26.5 26.1625 26.5 25.75V24.25C26.5 23.8375 26.8375 23.5 27.25 23.5ZM31 24.25C31 23.8375 31.3375 23.5 31.75 23.5H33.25C33.6625 23.5 34 23.8375 34 24.25V25.75C34 26.1625 33.6625 26.5 33.25 26.5H31.75C31.3375 26.5 31 26.1625 31 25.75V24.25ZM36.25 23.5H37.75C38.1625 23.5 38.5 23.8375 38.5 24.25V25.75C38.5 26.1625 38.1625 26.5 37.75 26.5H36.25C35.8375 26.5 35.5 26.1625 35.5 25.75V24.25C35.5 23.8375 35.8375 23.5 36.25 23.5Z" fill="#023AA2"/>
</g>
<defs>
<clipPath id="clip0_174_2707">
<path d="M23.5 19H41.5V43H23.5V19Z" fill="white"/>
</clipPath>
</defs>
</svg>
