<svg width="65" height="64" viewBox="0 0 65 64" fill="none" xmlns="http://www.w3.org/2000/svg">
<path d="M32.5 0C50.1731 0 64.5 14.3269 64.5 32C64.5 49.6731 50.1731 64 32.5 64C14.8269 64 0.5 49.6731 0.5 32C0.5 14.3269 14.8269 0 32.5 0Z" fill="#DBEAFE"/>
<path d="M32.5 0C50.1731 0 64.5 14.3269 64.5 32C64.5 49.6731 50.1731 64 32.5 64C14.8269 64 0.5 49.6731 0.5 32C0.5 14.3269 14.8269 0 32.5 0Z" stroke="#E5E7EB"/>
<path d="M26.0358 30.5449H22.0831V32.7273H26.0358V30.5449Z" fill="#023AA2"/>
<path d="M42.532 30.5449H38.5142V32.7273H42.532V30.5449Z" fill="#023AA2"/>
<path d="M49.5548 30.5449H46.7947V32.7273H49.5548V30.5449Z" fill="#023AA2"/>
<path d="M34.2513 30.5449H30.2986V32.7273H34.2513V30.5449Z" fill="#023AA2"/>
<path d="M17.8204 30.5449H15V32.7273H17.8204V30.5449Z" fill="#023AA2"/>
<path d="M26.0358 35.1582H22.0831V37.3406H26.0358V35.1582Z" fill="#023AA2"/>
<path d="M42.532 35.1582H38.5142V37.3406H42.532V35.1582Z" fill="#023AA2"/>
<path d="M49.5548 35.1582H46.7947V37.3406H49.5548V35.1582Z" fill="#023AA2"/>
<path d="M34.2513 35.1582H30.2986V37.3406H34.2513V35.1582Z" fill="#023AA2"/>
<path d="M17.8204 35.1582H15V37.3406H17.8204V35.1582Z" fill="#023AA2"/>
<path d="M23.1747 28.5919V42.0552H16.7292V28.5919L19.952 21L23.1747 28.5919Z" fill="#436AB1"/>
<path d="M31.3899 28.5919V42.0552H24.9445V28.5919L28.1651 21.0051L28.1672 21L31.3899 28.5919Z" fill="#436AB1"/>
<path d="M39.6052 28.5919V42.0552H33.1599V28.5919L36.3826 21L36.3832 21.0015L39.6052 28.5919Z" fill="#436AB1"/>
<path d="M47.886 28.5919V42.0552H41.4406V28.5919L44.6633 21L47.886 28.5919Z" fill="#436AB1"/>
<path d="M23.1747 28.5919V42.0552H19.952V21L23.1747 28.5919Z" fill="#002E84"/>
<path d="M31.3899 28.5919V42.0552H28.165V21.0051L28.1672 21L31.3899 28.5919Z" fill="#002E84"/>
<path d="M39.6051 28.5924V42.0557H36.3832V21.002L39.6051 28.5924Z" fill="#002E84"/>
<path d="M47.8859 28.5919V42.0552H44.6633V21L47.8859 28.5919Z" fill="#002E84"/>
</svg>
