<svg width="35" height="22" viewBox="0 0 35 22" fill="none" xmlns="http://www.w3.org/2000/svg">
<path d="M11.0367 9.54492H7.08398V11.7273H11.0367V9.54492Z" fill="#023AA2"/>
<path d="M27.5315 9.54492H23.5137V11.7273H27.5315V9.54492Z" fill="#023AA2"/>
<path d="M34.5551 9.54492H31.7949V11.7273H34.5551V9.54492Z" fill="#023AA2"/>
<path d="M19.2515 9.54492H15.2988V11.7273H19.2515V9.54492Z" fill="#023AA2"/>
<path d="M2.8204 9.54492H0V11.7273H2.8204V9.54492Z" fill="#023AA2"/>
<path d="M11.0367 14.1582H7.08398V16.3406H11.0367V14.1582Z" fill="#023AA2"/>
<path d="M27.5315 14.1582H23.5137V16.3406H27.5315V14.1582Z" fill="#023AA2"/>
<path d="M34.5551 14.1582H31.7949V16.3406H34.5551V14.1582Z" fill="#023AA2"/>
<path d="M19.2515 14.1582H15.2988V16.3406H19.2515V14.1582Z" fill="#023AA2"/>
<path d="M2.8204 14.1582H0V16.3406H2.8204V14.1582Z" fill="#023AA2"/>
<path d="M8.17392 7.59192V21.0552H1.72852V7.59192L4.95122 0L8.17392 7.59192Z" fill="#436AB1"/>
<path d="M16.3888 7.59192V21.0552H9.94336V7.59192L13.1639 0.00512898L13.1661 0L16.3888 7.59192Z" fill="#436AB1"/>
<path d="M24.6035 7.59192V21.0552H18.1582V7.59192L21.3809 0L21.3816 0.00148447L24.6035 7.59192Z" fill="#436AB1"/>
<path d="M32.8848 7.59192V21.0552H26.4395V7.59192L29.6622 0L32.8848 7.59192Z" fill="#436AB1"/>
<path d="M8.17388 7.59192V21.0552H4.95117V0L8.17388 7.59192Z" fill="#002E84"/>
<path d="M16.3889 7.59192V21.0552H13.1641V0.00512898L13.1662 0L16.3889 7.59192Z" fill="#002E84"/>
<path d="M24.6048 7.59239V21.0557H21.3828V0.00195312L24.6048 7.59239Z" fill="#002E84"/>
<path d="M32.8847 7.59192V21.0552H29.6621V0L32.8847 7.59192Z" fill="#002E84"/>
</svg>
