<svg width="24" height="24" viewBox="0 0 24 24" fill="none" xmlns="http://www.w3.org/2000/svg">
<path d="M12 0C14.4844 0 16.5 2.01562 16.5 4.5V4.66875C16.5 5.40469 15.9047 6 15.1688 6H8.83125C8.09531 6 7.5 5.40469 7.5 4.66875V4.5C7.5 2.01562 9.51562 0 12 0ZM1.94063 4.94063C2.52656 4.35469 3.47812 4.35469 4.06406 4.94063L7.06406 7.94062C7.09687 7.97344 7.125 8.00625 7.15313 8.03906C7.81875 7.69688 8.57812 7.50469 9.37969 7.50469H14.625C15.4266 7.50469 16.1812 7.69688 16.8516 8.03906C16.8797 8.00625 16.9078 7.97344 16.9406 7.94062L19.9406 4.94063C20.5266 4.35469 21.4781 4.35469 22.0641 4.94063C22.65 5.52656 22.65 6.47812 22.0641 7.06406L19.0641 10.0641C19.0312 10.0969 18.9984 10.125 18.9656 10.1531C19.2563 10.7156 19.4391 11.3391 19.4859 12.0047H22.5C23.3297 12.0047 24 12.675 24 13.5047C24 14.3344 23.3297 15.0047 22.5 15.0047H19.5C19.5 16.1578 19.2422 17.2453 18.7781 18.2203C18.8813 18.2812 18.975 18.3563 19.0594 18.4453L22.0594 21.4453C22.6453 22.0312 22.6453 22.9828 22.0594 23.5687C21.4734 24.1547 20.5219 24.1547 19.9359 23.5687L16.9781 20.6109C15.8297 21.6328 14.3625 22.3078 12.7453 22.4672V11.25C12.7453 10.8375 12.4078 10.5 11.9953 10.5C11.5828 10.5 11.2453 10.8375 11.2453 11.25V22.4625C9.62812 22.3031 8.16094 21.6281 7.0125 20.6063L4.05937 23.5594C3.47344 24.1453 2.52187 24.1453 1.93594 23.5594C1.35 22.9734 1.35 22.0219 1.93594 21.4359L4.93594 18.4359C5.025 18.3469 5.11875 18.2766 5.21719 18.2109C4.75781 17.2406 4.5 16.1531 4.5 15H1.5C0.670312 15 0 14.3297 0 13.5C0 12.6703 0.670312 12 1.5 12H4.51406C4.56563 11.3391 4.74844 10.7109 5.03438 10.1484C5.00156 10.1203 4.96875 10.0922 4.93594 10.0594L1.93594 7.05938C1.35 6.47344 1.35 5.52188 1.93594 4.93594L1.94063 4.94063Z" fill="#023AA2"/>
</svg>
