<svg width="65" height="64" viewBox="0 0 65 64" fill="none" xmlns="http://www.w3.org/2000/svg">
<path d="M32.5 0C50.1731 0 64.5 14.3269 64.5 32C64.5 49.6731 50.1731 64 32.5 64C14.8269 64 0.5 49.6731 0.5 32C0.5 14.3269 14.8269 0 32.5 0Z" fill="#DBEAFE"/>
<path d="M32.5 0C50.1731 0 64.5 14.3269 64.5 32C64.5 49.6731 50.1731 64 32.5 64C14.8269 64 0.5 49.6731 0.5 32C0.5 14.3269 14.8269 0 32.5 0Z" stroke="#E5E7EB"/>
<path d="M44.5 48H20.5V16H44.5V48Z" stroke="#E5E7EB"/>
<g clip-path="url(#clip0_174_2928)">
<path d="M32.5 19C34.9844 19 37 21.0156 37 23.5V23.6687C37 24.4047 36.4047 25 35.6688 25H29.3312C28.5953 25 28 24.4047 28 23.6687V23.5C28 21.0156 30.0156 19 32.5 19ZM22.4406 23.9406C23.0266 23.3547 23.9781 23.3547 24.5641 23.9406L27.5641 26.9406C27.5969 26.9734 27.625 27.0063 27.6531 27.0391C28.3188 26.6969 29.0781 26.5047 29.8797 26.5047H35.125C35.9266 26.5047 36.6812 26.6969 37.3516 27.0391C37.3797 27.0063 37.4078 26.9734 37.4406 26.9406L40.4406 23.9406C41.0266 23.3547 41.9781 23.3547 42.5641 23.9406C43.15 24.5266 43.15 25.4781 42.5641 26.0641L39.5641 29.0641C39.5312 29.0969 39.4984 29.125 39.4656 29.1531C39.7563 29.7156 39.9391 30.3391 39.9859 31.0047H43C43.8297 31.0047 44.5 31.675 44.5 32.5047C44.5 33.3344 43.8297 34.0047 43 34.0047H40C40 35.1578 39.7422 36.2453 39.2781 37.2203C39.3813 37.2812 39.475 37.3563 39.5594 37.4453L42.5594 40.4453C43.1453 41.0312 43.1453 41.9828 42.5594 42.5687C41.9734 43.1547 41.0219 43.1547 40.4359 42.5687L37.4781 39.6109C36.3297 40.6328 34.8625 41.3078 33.2453 41.4672V30.25C33.2453 29.8375 32.9078 29.5 32.4953 29.5C32.0828 29.5 31.7453 29.8375 31.7453 30.25V41.4625C30.1281 41.3031 28.6609 40.6281 27.5125 39.6063L24.5594 42.5594C23.9734 43.1453 23.0219 43.1453 22.4359 42.5594C21.85 41.9734 21.85 41.0219 22.4359 40.4359L25.4359 37.4359C25.525 37.3469 25.6188 37.2766 25.7172 37.2109C25.2578 36.2406 25 35.1531 25 34H22C21.1703 34 20.5 33.3297 20.5 32.5C20.5 31.6703 21.1703 31 22 31H25.0141C25.0656 30.3391 25.2484 29.7109 25.5344 29.1484C25.5016 29.1203 25.4688 29.0922 25.4359 29.0594L22.4359 26.0594C21.85 25.4734 21.85 24.5219 22.4359 23.9359L22.4406 23.9406Z" fill="#023AA2"/>
</g>
<defs>
<clipPath id="clip0_174_2928">
<path d="M20.5 19H44.5V43H20.5V19Z" fill="white"/>
</clipPath>
</defs>
</svg>
