<svg width="24" height="24" viewBox="0 0 24 24" fill="none" xmlns="http://www.w3.org/2000/svg">
<path d="M20.25 3H9.75C9.3375 3 9 3.3375 9 3.75V4.5H6V3.75C6 1.67812 7.67812 0 9.75 0H20.25C22.3219 0 24 1.67812 24 3.75V14.25C24 16.3219 22.3219 18 20.25 18H19.5V15H20.25C20.6625 15 21 14.6625 21 14.25V3.75C21 3.3375 20.6625 3 20.25 3ZM0 9C0 7.34531 1.34531 6 3 6H15C16.6547 6 18 7.34531 18 9V21C18 22.6547 16.6547 24 15 24H3C1.34531 24 0 22.6547 0 21V9ZM3 10.5C3 11.3297 3.67031 12 4.5 12H13.5C14.3297 12 15 11.3297 15 10.5C15 9.67031 14.3297 9 13.5 9H4.5C3.67031 9 3 9.67031 3 10.5Z" fill="#023AA2"/>
</svg>
