<svg width="65" height="64" viewBox="0 0 65 64" fill="none" xmlns="http://www.w3.org/2000/svg">
<path d="M32.5 0C50.1731 0 64.5 14.3269 64.5 32C64.5 49.6731 50.1731 64 32.5 64C14.8269 64 0.5 49.6731 0.5 32C0.5 14.3269 14.8269 0 32.5 0Z" fill="#DBEAFE"/>
<path d="M32.5 0C50.1731 0 64.5 14.3269 64.5 32C64.5 49.6731 50.1731 64 32.5 64C14.8269 64 0.5 49.6731 0.5 32C0.5 14.3269 14.8269 0 32.5 0Z" stroke="#E5E7EB"/>
<path d="M44.5 48H20.5V16H44.5V48Z" stroke="#E5E7EB"/>
<g clip-path="url(#clip0_174_2731)">
<path d="M40.75 22H30.25C29.8375 22 29.5 22.3375 29.5 22.75V23.5H26.5V22.75C26.5 20.6781 28.1781 19 30.25 19H40.75C42.8219 19 44.5 20.6781 44.5 22.75V33.25C44.5 35.3219 42.8219 37 40.75 37H40V34H40.75C41.1625 34 41.5 33.6625 41.5 33.25V22.75C41.5 22.3375 41.1625 22 40.75 22ZM20.5 28C20.5 26.3453 21.8453 25 23.5 25H35.5C37.1547 25 38.5 26.3453 38.5 28V40C38.5 41.6547 37.1547 43 35.5 43H23.5C21.8453 43 20.5 41.6547 20.5 40V28ZM23.5 29.5C23.5 30.3297 24.1703 31 25 31H34C34.8297 31 35.5 30.3297 35.5 29.5C35.5 28.6703 34.8297 28 34 28H25C24.1703 28 23.5 28.6703 23.5 29.5Z" fill="#023AA2"/>
</g>
<defs>
<clipPath id="clip0_174_2731">
<path d="M20.5 19H44.5V43H20.5V19Z" fill="white"/>
</clipPath>
</defs>
</svg>
