<svg width="65" height="64" viewBox="0 0 65 64" fill="none" xmlns="http://www.w3.org/2000/svg">
<path d="M32.5 0C50.1731 0 64.5 14.3269 64.5 32C64.5 49.6731 50.1731 64 32.5 64C14.8269 64 0.5 49.6731 0.5 32C0.5 14.3269 14.8269 0 32.5 0Z" fill="#DBEAFE"/>
<path d="M32.5 0C50.1731 0 64.5 14.3269 64.5 32C64.5 49.6731 50.1731 64 32.5 64C14.8269 64 0.5 49.6731 0.5 32C0.5 14.3269 14.8269 0 32.5 0Z" stroke="#E5E7EB"/>
<path d="M44.5 48H20.5V16H44.5V48Z" stroke="#E5E7EB"/>
<g clip-path="url(#clip0_174_3032)">
<path d="M24.1844 19.2349C23.739 18.8881 23.1062 18.9303 22.7031 19.3287L20.8281 21.2037C20.4297 21.6021 20.3875 22.2349 20.7297 22.6849L24.4797 27.5599C24.6906 27.8365 25.0234 28.0006 25.3703 28.0006H27.9062L33.0156 33.1099C32.3265 34.4693 32.5469 36.1756 33.6859 37.3099L38.9359 42.5599C39.5219 43.1459 40.4734 43.1459 41.0594 42.5599L44.0594 39.5599C44.6453 38.974 44.6453 38.0224 44.0594 37.4365L38.8094 32.1865C37.675 31.0521 35.9687 30.8271 34.6094 31.5162L29.5 26.4068V23.8756C29.5 23.524 29.3359 23.1959 29.0594 22.9849L24.1844 19.2349ZM21.4328 37.5678C20.8375 38.1631 20.5 38.974 20.5 39.8178C20.5 41.5756 21.925 43.0006 23.6828 43.0006C24.5265 43.0006 25.3375 42.6631 25.9328 42.0678L31.4547 36.5459C31.089 35.5662 31.0328 34.5021 31.2859 33.4943L28.3937 30.6021L21.4328 37.5678ZM44.5 25.7506C44.5 25.2584 44.4484 24.7803 44.35 24.3209C44.2375 23.7959 43.5953 23.6599 43.2156 24.0396L40.2203 27.0349C40.0797 27.1756 39.8875 27.2553 39.6906 27.2553H37C36.5875 27.2553 36.25 26.9178 36.25 26.5053V23.8099C36.25 23.6131 36.3297 23.4209 36.4703 23.2803L39.4656 20.2849C39.8453 19.9053 39.7094 19.2631 39.1844 19.1506C38.7203 19.0521 38.2422 19.0006 37.75 19.0006C34.0234 19.0006 31 22.024 31 25.7506V25.7881L34.9984 29.7865C36.6859 29.3599 38.5515 29.8099 39.8734 31.1318L40.6094 31.8678C42.9062 30.7896 44.5 28.4553 44.5 25.7506ZM23.125 39.2506C23.125 38.9522 23.2435 38.666 23.4545 38.4551C23.6655 38.2441 23.9516 38.1256 24.25 38.1256C24.5484 38.1256 24.8345 38.2441 25.0455 38.4551C25.2565 38.666 25.375 38.9522 25.375 39.2506C25.375 39.5489 25.2565 39.8351 25.0455 40.0461C24.8345 40.257 24.5484 40.3756 24.25 40.3756C23.9516 40.3756 23.6655 40.257 23.4545 40.0461C23.2435 39.8351 23.125 39.5489 23.125 39.2506Z" fill="#023AA2"/>
</g>
<defs>
<clipPath id="clip0_174_3032">
<path d="M20.5 19H44.5V43H20.5V19Z" fill="white"/>
</clipPath>
</defs>
</svg>
