<svg width="24" height="24" viewBox="0 0 24 24" fill="none" xmlns="http://www.w3.org/2000/svg">
<path d="M0 3C0 1.34531 1.34531 0 3 0H16.5C18.1547 0 19.5 1.34531 19.5 3V6C19.5 7.65469 18.1547 9 16.5 9H3C1.34531 9 0 7.65469 0 6V3ZM7.5 16.5C7.5 15.6703 8.17031 15 9 15V14.25C9 12.1781 10.6781 10.5 12.75 10.5H19.5C20.3297 10.5 21 9.82969 21 9V7.5V3.25781C22.7484 3.87656 24 5.54063 24 7.5V9C24 11.4844 21.9844 13.5 19.5 13.5H12.75C12.3375 13.5 12 13.8375 12 14.25V15C12.8297 15 13.5 15.6703 13.5 16.5V22.5C13.5 23.3297 12.8297 24 12 24H9C8.17031 24 7.5 23.3297 7.5 22.5V16.5Z" fill="#023AA2"/>
</svg>
