<svg width="65" height="64" viewBox="0 0 65 64" fill="none" xmlns="http://www.w3.org/2000/svg">
<path d="M32.5 0C50.1731 0 64.5 14.3269 64.5 32C64.5 49.6731 50.1731 64 32.5 64C14.8269 64 0.5 49.6731 0.5 32C0.5 14.3269 14.8269 0 32.5 0Z" fill="#DBEAFE"/>
<path d="M32.5 0C50.1731 0 64.5 14.3269 64.5 32C64.5 49.6731 50.1731 64 32.5 64C14.8269 64 0.5 49.6731 0.5 32C0.5 14.3269 14.8269 0 32.5 0Z" stroke="#E5E7EB"/>
<path d="M44.5 48H20.5V16H44.5V48Z" stroke="#E5E7EB"/>
<g clip-path="url(#clip0_174_2944)">
<path d="M20.5 22C20.5 20.3453 21.8453 19 23.5 19H37C38.6547 19 40 20.3453 40 22V25C40 26.6547 38.6547 28 37 28H23.5C21.8453 28 20.5 26.6547 20.5 25V22ZM28 35.5C28 34.6703 28.6703 34 29.5 34V33.25C29.5 31.1781 31.1781 29.5 33.25 29.5H40C40.8297 29.5 41.5 28.8297 41.5 28V26.5V22.2578C43.2484 22.8766 44.5 24.5406 44.5 26.5V28C44.5 30.4844 42.4844 32.5 40 32.5H33.25C32.8375 32.5 32.5 32.8375 32.5 33.25V34C33.3297 34 34 34.6703 34 35.5V41.5C34 42.3297 33.3297 43 32.5 43H29.5C28.6703 43 28 42.3297 28 41.5V35.5Z" fill="#023AA2"/>
</g>
<defs>
<clipPath id="clip0_174_2944">
<path d="M20.5 19H44.5V43H20.5V19Z" fill="white"/>
</clipPath>
</defs>
</svg>
