<svg width="65" height="64" viewBox="0 0 65 64" fill="none" xmlns="http://www.w3.org/2000/svg">
<path d="M32.5 0C50.1731 0 64.5 14.3269 64.5 32C64.5 49.6731 50.1731 64 32.5 64C14.8269 64 0.5 49.6731 0.5 32C0.5 14.3269 14.8269 0 32.5 0Z" fill="#DBEAFE"/>
<path d="M32.5 0C50.1731 0 64.5 14.3269 64.5 32C64.5 49.6731 50.1731 64 32.5 64C14.8269 64 0.5 49.6731 0.5 32C0.5 14.3269 14.8269 0 32.5 0Z" stroke="#E5E7EB"/>
<path d="M46 48H19V16H46V48Z" stroke="#E5E7EB"/>
<g clip-path="url(#clip0_174_2936)">
<path d="M45.5594 21.559C46.1453 20.973 46.1453 20.0215 45.5594 19.4355C44.9734 18.8496 44.0219 18.8496 43.4359 19.4355L34.4359 28.4355L32.8094 26.809C32.6125 26.6121 32.3406 26.4996 32.0594 26.4996C31.4734 26.4996 31 26.973 31 27.559V28.923L36.0766 33.9996H37.4406C38.0266 33.9996 38.5 33.5262 38.5 32.9402C38.5 32.659 38.3875 32.3871 38.1906 32.1902L36.5641 30.5637L45.5641 21.5637L45.5594 21.559ZM34.9891 35.5652L29.4344 30.0105C27.4328 29.8371 25.4406 30.559 24.0063 31.9934L23.6313 32.3684C22.5859 33.4137 22 34.8293 22 36.3059C22 36.6246 22.3328 36.8309 22.6187 36.6902L25.0141 35.4949C25.2484 35.3777 25.4594 35.6871 25.2672 35.8652L19.3422 41.1902C19.1266 41.3871 19 41.6684 19 41.9637C19 42.5355 19.4641 42.9996 20.0359 42.9996H28.1594C29.9781 42.9996 31.7172 42.2777 33.0062 40.9934C34.4406 39.559 35.1578 37.5668 34.9891 35.5652Z" fill="#023AA2"/>
</g>
<defs>
<clipPath id="clip0_174_2936">
<path d="M19 19H46V43H19V19Z" fill="white"/>
</clipPath>
</defs>
</svg>
