<svg width="27" height="24" viewBox="0 0 27 24" fill="none" xmlns="http://www.w3.org/2000/svg">
<path d="M26.5594 2.56289C27.1453 1.97695 27.1453 1.02539 26.5594 0.439453C25.9734 -0.146484 25.0219 -0.146484 24.4359 0.439453L15.4359 9.43945L13.8094 7.81289C13.6125 7.61602 13.3406 7.50352 13.0594 7.50352C12.4734 7.50352 12 7.97695 12 8.56289V9.92695L17.0766 15.0035H18.4406C19.0266 15.0035 19.5 14.5301 19.5 13.9441C19.5 13.6629 19.3875 13.391 19.1906 13.1941L17.5641 11.5676L26.5641 2.56758L26.5594 2.56289ZM15.9891 16.5691L10.4344 11.0145C8.43281 10.841 6.44063 11.5629 5.00625 12.9973L4.63125 13.3723C3.58594 14.4176 3 15.8332 3 17.3098C3 17.6285 3.33281 17.8348 3.61875 17.6941L6.01406 16.4988C6.24844 16.3816 6.45937 16.691 6.26719 16.8691L0.342188 22.1941C0.126563 22.391 0 22.6723 0 22.9676C0 23.5395 0.464063 24.0035 1.03594 24.0035H9.15937C10.9781 24.0035 12.7172 23.2816 14.0062 21.9973C15.4406 20.5629 16.1578 18.5707 15.9891 16.5691Z" fill="#023AA2"/>
</svg>
