<svg width="65" height="64" viewBox="0 0 65 64" fill="none" xmlns="http://www.w3.org/2000/svg">
<path d="M32.5 0C50.1731 0 64.5 14.3269 64.5 32C64.5 49.6731 50.1731 64 32.5 64C14.8269 64 0.5 49.6731 0.5 32C0.5 14.3269 14.8269 0 32.5 0Z" fill="#DBEAFE"/>
<path d="M32.5 0C50.1731 0 64.5 14.3269 64.5 32C64.5 49.6731 50.1731 64 32.5 64C14.8269 64 0.5 49.6731 0.5 32C0.5 14.3269 14.8269 0 32.5 0Z" stroke="#E5E7EB"/>
<path d="M46 48H19V16H46V48Z" stroke="#E5E7EB"/>
<g clip-path="url(#clip0_174_2659)">
<path d="M38.3828 30.1328C37.0609 30.3578 35.6547 29.9641 34.6328 28.9422L32.8469 27.1562C32.1437 26.4531 31.75 25.5062 31.75 24.5125V23.9453L28.0141 21.9062C27.7656 21.7703 27.6109 21.5031 27.625 21.2172C27.6391 20.9312 27.8078 20.6781 28.0703 20.5609L30.2828 19.5766C31.1453 19.1969 32.0781 19 33.025 19H33.8734C35.5938 19 37.2484 19.6562 38.5 20.8328L40.5906 22.8016C41.725 23.8703 42.1469 25.4125 41.8375 26.8328L42.5781 27.5781L42.9531 27.2031C43.3937 26.7625 44.1063 26.7625 44.5422 27.2031L45.6672 28.3281C46.1078 28.7688 46.1078 29.4812 45.6672 29.9172L41.5422 34.0422C41.1016 34.4828 40.3891 34.4828 39.9531 34.0422L38.8281 32.9172C38.3875 32.4766 38.3875 31.7641 38.8281 31.3281L39.2031 30.9531L38.3828 30.1328ZM20.2844 36.6766L31.2297 27.5594C31.3937 27.7891 31.5813 28.0094 31.7828 28.2156L33.5687 30.0016C33.85 30.2828 34.15 30.5266 34.4688 30.7375L25.3234 41.7156C24.6437 42.5312 23.6359 43 22.5766 43C20.5984 43 19 41.3969 19 39.4234C19 38.3641 19.4734 37.3563 20.2844 36.6766Z" fill="#023AA2"/>
</g>
<defs>
<clipPath id="clip0_174_2659">
<path d="M19 19H46V43H19V19Z" fill="white"/>
</clipPath>
</defs>
</svg>
