<svg width="65" height="64" viewBox="0 0 65 64" fill="none" xmlns="http://www.w3.org/2000/svg">
<path d="M32.5 0C50.1731 0 64.5 14.3269 64.5 32C64.5 49.6731 50.1731 64 32.5 64C14.8269 64 0.5 49.6731 0.5 32C0.5 14.3269 14.8269 0 32.5 0Z" fill="#DBEAFE"/>
<path d="M32.5 0C50.1731 0 64.5 14.3269 64.5 32C64.5 49.6731 50.1731 64 32.5 64C14.8269 64 0.5 49.6731 0.5 32C0.5 14.3269 14.8269 0 32.5 0Z" stroke="#E5E7EB"/>
<path d="M44.5 48H20.5V16H44.5V48Z" stroke="#E5E7EB"/>
<g clip-path="url(#clip0_174_2739)">
<path d="M44.1391 31.825C44.3687 31.614 44.5 31.314 44.5 31C44.5 30.6859 44.3687 30.3906 44.1391 30.175L38.8891 25.3C38.5609 24.9953 38.0828 24.9156 37.675 25.0937C37.2672 25.2718 37 25.6796 37 26.125V28.75H28V26.125C28 25.6796 27.7328 25.2718 27.325 25.0937C26.9172 24.9156 26.4391 24.9953 26.1109 25.3L20.8609 30.175C20.6312 30.3906 20.5 30.6859 20.5 31C20.5 31.314 20.6312 31.6093 20.8609 31.825L26.1109 36.7C26.4391 37.0046 26.9172 37.0843 27.325 36.9062C27.7328 36.7281 28 36.3203 28 35.8749V33.25H37V35.8749C37 36.3203 37.2672 36.7281 37.675 36.9062C38.0828 37.0843 38.5609 37.0046 38.8891 36.7L44.1391 31.825Z" fill="#023AA2"/>
</g>
<defs>
<clipPath id="clip0_174_2739">
<path d="M20.5 19H44.5V43H20.5V19Z" fill="white"/>
</clipPath>
</defs>
</svg>
