<svg width="24" height="12" viewBox="0 0 24 12" fill="none" xmlns="http://www.w3.org/2000/svg">
<path d="M23.6391 6.82495C23.8687 6.61401 24 6.31401 24 5.99995C24 5.68589 23.8687 5.39057 23.6391 5.17495L18.3891 0.29995C18.0609 -0.00473716 17.5828 -0.0844244 17.175 0.0937006C16.7672 0.271826 16.5 0.679638 16.5 1.12495V3.74995H7.5V1.12495C7.5 0.679638 7.23281 0.271826 6.825 0.0937006C6.41719 -0.0844244 5.93906 -0.00473716 5.61094 0.29995L0.360937 5.17495C0.13125 5.39057 0 5.68589 0 5.99995C0 6.31401 0.13125 6.60933 0.360937 6.82495L5.61094 11.7C5.93906 12.0046 6.41719 12.0843 6.825 11.9062C7.23281 11.7281 7.5 11.3203 7.5 10.8749V8.24995H16.5V10.8749C16.5 11.3203 16.7672 11.7281 17.175 11.9062C17.5828 12.0843 18.0609 12.0046 18.3891 11.7L23.6391 6.82495Z" fill="#023AA2"/>
</svg>
