<svg width="27" height="18" viewBox="0 0 27 18" fill="none" xmlns="http://www.w3.org/2000/svg">
<path d="M12.6299 0.277968C13.1502 -0.0923444 13.844 -0.0923444 14.3643 0.277968C15.419 1.00453 16.708 1.50141 17.9971 1.50141C19.258 1.50141 20.594 0.995156 21.6252 0.277968C22.183 -0.120469 22.9424 -0.087657 23.4627 0.357655C24.1377 0.915468 24.9862 1.34203 25.8346 1.53891C26.6409 1.72641 27.1424 2.53266 26.9549 3.33891C26.7674 4.14516 25.9612 4.64672 25.1549 4.45922C24.0065 4.19203 23.0502 3.68578 22.4268 3.28734C21.0674 4.01859 19.544 4.50141 17.9971 4.50141C16.5018 4.50141 15.1565 4.03734 14.2284 3.61547C13.9565 3.48891 13.708 3.36703 13.4971 3.25453C13.2862 3.36703 13.0424 3.49359 12.7659 3.61547C11.8377 4.03734 10.4924 4.50141 8.99711 4.50141C7.45023 4.50141 5.92679 4.01859 4.56742 3.29203C3.93929 3.68578 2.98773 4.19672 1.83929 4.46391C1.03304 4.65141 0.226793 4.14984 0.039293 3.34359C-0.148207 2.53734 0.353355 1.73109 1.15961 1.54359C2.00336 1.34203 2.85648 0.915468 3.52679 0.357655C4.04711 -0.087657 4.80648 -0.115782 5.36429 0.277968C6.40492 0.995156 7.73617 1.50141 8.99711 1.50141C10.2862 1.50141 11.5752 1.00453 12.6299 0.277968ZM14.3643 13.778C15.419 14.5045 16.708 15.0014 17.9971 15.0014C19.258 15.0014 20.594 14.4952 21.6252 13.778C22.183 13.3795 22.9424 13.4123 23.4627 13.8577C24.1377 14.4155 24.9862 14.842 25.8346 15.0389C26.6409 15.2264 27.1424 16.0327 26.9549 16.8389C26.7674 17.6452 25.9612 18.1467 25.1549 17.9592C24.0065 17.692 23.0502 17.1858 22.4268 16.7873C21.0674 17.5186 19.544 18.0014 17.9971 18.0014C16.5018 18.0014 15.1565 17.5373 14.2284 17.1155C13.9565 16.9889 13.708 16.867 13.4971 16.7545C13.2862 16.867 13.0424 16.9936 12.7659 17.1155C11.8377 17.5373 10.4924 18.0014 8.99711 18.0014C7.45023 18.0014 5.92679 17.5186 4.56742 16.792C3.93929 17.1858 2.98773 17.6967 1.83929 17.9639C1.03304 18.1514 0.226793 17.6498 0.039293 16.8436C-0.148207 16.0373 0.353355 15.2311 1.15961 15.0436C2.00804 14.8467 2.85648 14.4202 3.53148 13.8623C4.05179 13.4217 4.81117 13.3889 5.36898 13.7827C6.40492 14.4952 7.73617 15.0014 8.99711 15.0014C10.2862 15.0014 11.5752 14.5045 12.6299 13.778C13.1502 13.4077 13.844 13.4077 14.3643 13.778ZM14.3643 7.02797C15.419 7.75453 16.708 8.25141 17.9971 8.25141C19.258 8.25141 20.594 7.74516 21.6252 7.02797C22.183 6.62953 22.9424 6.66234 23.4627 7.10766C24.1377 7.66547 24.9862 8.09203 25.8346 8.28891C26.6409 8.47641 27.1424 9.28266 26.9549 10.0889C26.7674 10.8952 25.9612 11.3967 25.1549 11.2092C24.0065 10.942 23.0502 10.4358 22.4268 10.0373C21.0674 10.7686 19.544 11.2514 17.9971 11.2514C16.5018 11.2514 15.1565 10.7873 14.2284 10.3655C13.9565 10.2389 13.708 10.117 13.4971 10.0045C13.2862 10.117 13.0424 10.2436 12.7659 10.3655C11.8377 10.7873 10.4924 11.2514 8.99711 11.2514C7.45023 11.2514 5.92679 10.7686 4.56742 10.042C3.93929 10.4358 2.98773 10.9467 1.83929 11.2139C1.03304 11.4014 0.226793 10.8998 0.039293 10.0936C-0.148207 9.28734 0.353355 8.48109 1.15961 8.29359C2.00804 8.09672 2.85648 7.67016 3.53148 7.11234C4.05179 6.66703 4.81117 6.63891 5.36898 7.03266C6.40492 7.74516 7.73617 8.25141 8.99711 8.25141C10.2862 8.25141 11.5752 7.75453 12.6299 7.02797C13.1502 6.65766 13.844 6.65766 14.3643 7.02797Z" fill="#023AA2"/>
</svg>
