<svg width="65" height="64" viewBox="0 0 65 64" fill="none" xmlns="http://www.w3.org/2000/svg">
<path d="M32.5 0C50.1731 0 64.5 14.3269 64.5 32C64.5 49.6731 50.1731 64 32.5 64C14.8269 64 0.5 49.6731 0.5 32C0.5 14.3269 14.8269 0 32.5 0Z" fill="#DBEAFE"/>
<path d="M32.5 0C50.1731 0 64.5 14.3269 64.5 32C64.5 49.6731 50.1731 64 32.5 64C14.8269 64 0.5 49.6731 0.5 32C0.5 14.3269 14.8269 0 32.5 0Z" stroke="#E5E7EB"/>
<path d="M46 48H19V16H46V48Z" stroke="#E5E7EB"/>
<path d="M46 43H19V19H46V43Z" stroke="#E5E7EB"/>
<path d="M31.6328 22.276C32.1532 21.9057 32.8469 21.9057 33.3672 22.276C34.4219 23.0026 35.711 23.4995 37 23.4995C38.261 23.4995 39.5969 22.9932 40.6282 22.276C41.186 21.8776 41.9453 21.9104 42.4657 22.3557C43.1407 22.9135 43.9891 23.3401 44.8375 23.537C45.6438 23.7245 46.1453 24.5307 45.9578 25.337C45.7703 26.1432 44.9641 26.6448 44.1578 26.4573C43.0094 26.1901 42.0532 25.6838 41.4297 25.2854C40.0703 26.0166 38.5469 26.4995 37 26.4995C35.5047 26.4995 34.1594 26.0354 33.2313 25.6135C32.9594 25.487 32.711 25.3651 32.5 25.2526C32.2891 25.3651 32.0453 25.4916 31.7688 25.6135C30.8407 26.0354 29.4953 26.4995 28 26.4995C26.4532 26.4995 24.9297 26.0166 23.5703 25.2901C22.9422 25.6838 21.9907 26.1948 20.8422 26.462C20.036 26.6495 19.2297 26.1479 19.0422 25.3416C18.8547 24.5354 19.3563 23.7291 20.1625 23.5416C21.0063 23.3401 21.8594 22.9135 22.5297 22.3557C23.05 21.9104 23.8094 21.8823 24.3672 22.276C25.4078 22.9932 26.7391 23.4995 28 23.4995C29.2891 23.4995 30.5782 23.0026 31.6328 22.276ZM33.3672 35.776C34.4219 36.5026 35.711 36.9995 37 36.9995C38.261 36.9995 39.5969 36.4932 40.6282 35.776C41.186 35.3776 41.9453 35.4104 42.4657 35.8557C43.1407 36.4135 43.9891 36.8401 44.8375 37.037C45.6438 37.2245 46.1453 38.0307 45.9578 38.837C45.7703 39.6432 44.9641 40.1448 44.1578 39.9573C43.0094 39.6901 42.0532 39.1838 41.4297 38.7854C40.0703 39.5166 38.5469 39.9995 37 39.9995C35.5047 39.9995 34.1594 39.5354 33.2313 39.1135C32.9594 38.987 32.711 38.8651 32.5 38.7526C32.2891 38.8651 32.0453 38.9916 31.7688 39.1135C30.8407 39.5354 29.4953 39.9995 28 39.9995C26.4532 39.9995 24.9297 39.5166 23.5703 38.7901C22.9422 39.1838 21.9907 39.6948 20.8422 39.962C20.036 40.1495 19.2297 39.6479 19.0422 38.8416C18.8547 38.0354 19.3563 37.2291 20.1625 37.0416C21.011 36.8448 21.8594 36.4182 22.5344 35.8604C23.0547 35.4198 23.8141 35.387 24.3719 35.7807C25.4078 36.4932 26.7391 36.9995 28 36.9995C29.2891 36.9995 30.5782 36.5026 31.6328 35.776C32.1532 35.4057 32.8469 35.4057 33.3672 35.776ZM33.3672 29.026C34.4219 29.7526 35.711 30.2495 37 30.2495C38.261 30.2495 39.5969 29.7432 40.6282 29.026C41.186 28.6276 41.9453 28.6604 42.4657 29.1057C43.1407 29.6635 43.9891 30.0901 44.8375 30.287C45.6438 30.4745 46.1453 31.2807 45.9578 32.087C45.7703 32.8932 44.9641 33.3948 44.1578 33.2073C43.0094 32.9401 42.0532 32.4338 41.4297 32.0354C40.0703 32.7666 38.5469 33.2495 37 33.2495C35.5047 33.2495 34.1594 32.7854 33.2313 32.3635C32.9594 32.237 32.711 32.1151 32.5 32.0026C32.2891 32.1151 32.0453 32.2416 31.7688 32.3635C30.8407 32.7854 29.4953 33.2495 28 33.2495C26.4532 33.2495 24.9297 32.7666 23.5703 32.0401C22.9422 32.4338 21.9907 32.9448 20.8422 33.212C20.036 33.3995 19.2297 32.8979 19.0422 32.0916C18.8547 31.2854 19.3563 30.4791 20.1625 30.2916C21.011 30.0948 21.8594 29.6682 22.5344 29.1104C23.0547 28.6651 23.8141 28.637 24.3719 29.0307C25.4078 29.7432 26.7391 30.2495 28 30.2495C29.2891 30.2495 30.5782 29.7526 31.6328 29.026C32.1532 28.6557 32.8469 28.6557 33.3672 29.026Z" fill="#023AA2"/>
</svg>
