<svg width="30" height="24" viewBox="0 0 30 24" fill="none" xmlns="http://www.w3.org/2000/svg">
<path d="M7.29202 0.812351C7.63889 0.142038 8.43108 -0.167337 9.13889 0.0904757L14.9983 2.22798L20.8576 0.0904757C21.5655 -0.167337 22.3576 0.142038 22.7045 0.812351L26.3983 7.97954C27.7483 10.5952 26.8811 13.7123 24.5936 15.3202L26.0655 19.3608L27.9873 18.6577C28.7655 18.3764 29.628 18.7749 29.9092 19.553C30.1905 20.3311 29.792 21.1936 29.0139 21.4749L25.6811 22.6889L22.3483 23.9077C21.5701 24.1936 20.7076 23.7905 20.4264 23.0124C20.1451 22.2342 20.5436 21.3717 21.3217 21.0905L23.2436 20.3874L21.7764 16.3467C18.992 16.5905 16.3295 14.753 15.6826 11.8842L14.9983 8.85141L14.3139 11.8842C13.667 14.7577 11.0045 16.5905 8.22014 16.3467L6.75295 20.3874L8.67483 21.0905C9.45295 21.3717 9.85608 22.2342 9.57014 23.0124C9.2842 23.7905 8.42639 24.1936 7.64827 23.9077L4.32014 22.6936L0.987329 21.4795C0.209204 21.1936 -0.193921 20.3358 0.0920161 19.5577C0.377954 18.7795 1.23577 18.3764 2.01389 18.6624L3.93577 19.3655L5.40295 15.3249C3.11545 13.7124 2.25295 10.5952 3.60295 7.97954L7.29202 0.812351ZM9.35452 3.36235L8.07952 5.83735L12.2608 7.36079L12.8748 4.64673L9.35452 3.36235ZM20.6467 3.36235L17.1264 4.64673L17.7405 7.36079L21.9217 5.83735L20.6467 3.36235Z" fill="#023AA2"/>
</svg>
