<svg width="65" height="64" viewBox="0 0 65 64" fill="none" xmlns="http://www.w3.org/2000/svg">
<path d="M32.5 0C50.1731 0 64.5 14.3269 64.5 32C64.5 49.6731 50.1731 64 32.5 64C14.8269 64 0.5 49.6731 0.5 32C0.5 14.3269 14.8269 0 32.5 0Z" fill="#DBEAFE"/>
<path d="M32.5 0C50.1731 0 64.5 14.3269 64.5 32C64.5 49.6731 50.1731 64 32.5 64C14.8269 64 0.5 49.6731 0.5 32C0.5 14.3269 14.8269 0 32.5 0Z" stroke="#E5E7EB"/>
<path d="M47.5 48H17.5V16H47.5V48Z" stroke="#E5E7EB"/>
<g clip-path="url(#clip0_174_2799)">
<path d="M24.7937 19.8104C25.1406 19.1401 25.9328 18.8307 26.6406 19.0885L32.5 21.226L38.3594 19.0885C39.0672 18.8307 39.8594 19.1401 40.2062 19.8104L43.9 26.9776C45.25 29.5932 44.3828 32.7104 42.0953 34.3182L43.5672 38.3588L45.489 37.6557C46.2672 37.3745 47.1297 37.7729 47.4109 38.551C47.6922 39.3291 47.2937 40.1916 46.5156 40.4729L43.1828 41.687L39.85 42.9057C39.0718 43.1916 38.2094 42.7885 37.9281 42.0104C37.6469 41.2323 38.0453 40.3698 38.8234 40.0885L40.7453 39.3854L39.2781 35.3448C36.4937 35.5885 33.8312 33.751 33.1844 30.8823L32.5 27.8495L31.8156 30.8823C31.1687 33.7557 28.5062 35.5885 25.7218 35.3448L24.2547 39.3854L26.1765 40.0885C26.9547 40.3698 27.3578 41.2323 27.0718 42.0104C26.7859 42.7885 25.9281 43.1916 25.15 42.9057L21.8218 41.6916L18.489 40.4776C17.7109 40.1916 17.3078 39.3338 17.5937 38.5557C17.8797 37.7776 18.7375 37.3745 19.5156 37.6604L21.4375 38.3635L22.9047 34.3229C20.6172 32.7104 19.7547 29.5932 21.1047 26.9776L24.7937 19.8104ZM26.8562 22.3604L25.5812 24.8354L29.7625 26.3588L30.3765 23.6448L26.8562 22.3604ZM38.1484 22.3604L34.6281 23.6448L35.2422 26.3588L39.4234 24.8354L38.1484 22.3604Z" fill="#023AA2"/>
</g>
<defs>
<clipPath id="clip0_174_2799">
<path d="M17.5 19H47.5V43H17.5V19Z" fill="white"/>
</clipPath>
</defs>
</svg>
