<svg width="65" height="64" viewBox="0 0 65 64" fill="none" xmlns="http://www.w3.org/2000/svg">
<path d="M32.5 0C50.1731 0 64.5 14.3269 64.5 32C64.5 49.6731 50.1731 64 32.5 64C14.8269 64 0.5 49.6731 0.5 32C0.5 14.3269 14.8269 0 32.5 0Z" fill="#DBEAFE"/>
<path d="M32.5 0C50.1731 0 64.5 14.3269 64.5 32C64.5 49.6731 50.1731 64 32.5 64C14.8269 64 0.5 49.6731 0.5 32C0.5 14.3269 14.8269 0 32.5 0Z" stroke="#E5E7EB"/>
<path d="M44.5 48H20.5V16H44.5V48Z" stroke="#E5E7EB"/>
<g clip-path="url(#clip0_174_2635)">
<path d="M36.6203 29.0039L31.9984 33.6258L35.0641 36.6914C35.4344 37.0617 35.5844 37.6008 35.4578 38.1117C35.3312 38.6227 34.9516 39.0305 34.45 39.1852L22.45 42.9352C21.9156 43.0992 21.3344 42.9586 20.9406 42.5648C20.5469 42.1711 20.4016 41.5852 20.5703 41.0555L24.3203 29.0555C24.475 28.5539 24.8828 28.1695 25.3937 28.0477C25.9047 27.9258 26.4437 28.0711 26.8141 28.4414L29.875 31.5023L34.4969 26.8805C33.8266 26.1961 33.8312 25.0992 34.5109 24.4195L38.9828 19.9477C40.2437 18.6867 42.2875 18.6867 43.5531 19.9477C44.8187 21.2086 44.8141 23.2523 43.5531 24.518L39.0812 28.9898C38.4016 29.6695 37.3047 29.6742 36.6203 29.0039Z" fill="#023AA2"/>
</g>
<defs>
<clipPath id="clip0_174_2635">
<path d="M20.5 19H44.5V43H20.5V19Z" fill="white"/>
</clipPath>
</defs>
</svg>
