<svg width="24" height="24" viewBox="0 0 24 24" fill="none" xmlns="http://www.w3.org/2000/svg">
<path d="M16.1193 10.002L11.4975 14.6238L14.5631 17.6895C14.9334 18.0598 15.0834 18.5988 14.9568 19.1098C14.8303 19.6207 14.4506 20.0285 13.949 20.1832L1.94902 23.9332C1.41465 24.0973 0.833395 23.9566 0.439646 23.5629C0.0458955 23.1691 -0.099417 22.5832 0.069333 22.0535L3.81933 10.0535C3.97402 9.55195 4.38183 9.16758 4.89277 9.0457C5.40371 8.92383 5.94277 9.06914 6.31308 9.43945L9.37402 12.5004L13.9959 7.87852C13.3256 7.19414 13.3303 6.09727 14.01 5.41758L18.4818 0.945703C19.7428 -0.315234 21.7865 -0.315234 23.0521 0.945703C24.3178 2.20664 24.3131 4.25039 23.0521 5.51602L18.5803 9.98789C17.9006 10.6676 16.8037 10.6723 16.1193 10.002Z" fill="#023AA2"/>
</svg>
