<svg width="65" height="64" viewBox="0 0 65 64" fill="none" xmlns="http://www.w3.org/2000/svg">
<path d="M32.5 0C50.1731 0 64.5 14.3269 64.5 32C64.5 49.6731 50.1731 64 32.5 64C14.8269 64 0.5 49.6731 0.5 32C0.5 14.3269 14.8269 0 32.5 0Z" fill="#DBEAFE"/>
<path d="M32.5 0C50.1731 0 64.5 14.3269 64.5 32C64.5 49.6731 50.1731 64 32.5 64C14.8269 64 0.5 49.6731 0.5 32C0.5 14.3269 14.8269 0 32.5 0Z" stroke="#E5E7EB"/>
<path d="M46 48H19V16H46V48Z" stroke="#E5E7EB"/>
<path d="M46 43H19V19H46V43Z" stroke="#E5E7EB"/>
<path d="M40.75 26.5C41.1625 26.5 41.5 26.8375 41.5 27.25V34.75C41.5 35.1625 41.1625 35.5 40.75 35.5H22.75C22.3375 35.5 22 35.1625 22 34.75V27.25C22 26.8375 22.3375 26.5 22.75 26.5H40.75ZM22.75 23.5C20.6781 23.5 19 25.1781 19 27.25V34.75C19 36.8219 20.6781 38.5 22.75 38.5H40.75C42.8219 38.5 44.5 36.8219 44.5 34.75V34C45.3297 34 46 33.3297 46 32.5V29.5C46 28.6703 45.3297 28 44.5 28V27.25C44.5 25.1781 42.8219 23.5 40.75 23.5H22.75ZM40 28H23.5V34H40V28Z" fill="#023AA2"/>
</svg>
