<svg width="27" height="15" viewBox="0 0 27 15" fill="none" xmlns="http://www.w3.org/2000/svg">
<path d="M21.75 3C22.1625 3 22.5 3.3375 22.5 3.75V11.25C22.5 11.6625 22.1625 12 21.75 12H3.75C3.3375 12 3 11.6625 3 11.25V3.75C3 3.3375 3.3375 3 3.75 3H21.75ZM3.75 0C1.67812 0 0 1.67812 0 3.75V11.25C0 13.3219 1.67812 15 3.75 15H21.75C23.8219 15 25.5 13.3219 25.5 11.25V10.5C26.3297 10.5 27 9.82969 27 9V6C27 5.17031 26.3297 4.5 25.5 4.5V3.75C25.5 1.67812 23.8219 0 21.75 0H3.75ZM21 4.5H4.5V10.5H21V4.5Z" fill="#023AA2"/>
</svg>
