<svg width="65" height="64" viewBox="0 0 65 64" fill="none" xmlns="http://www.w3.org/2000/svg">
<path d="M32.5 0C50.1731 0 64.5 14.3269 64.5 32C64.5 49.6731 50.1731 64 32.5 64C14.8269 64 0.5 49.6731 0.5 32C0.5 14.3269 14.8269 0 32.5 0Z" fill="#DBEAFE"/>
<path d="M32.5 0C50.1731 0 64.5 14.3269 64.5 32C64.5 49.6731 50.1731 64 32.5 64C14.8269 64 0.5 49.6731 0.5 32C0.5 14.3269 14.8269 0 32.5 0Z" stroke="#E5E7EB"/>
<path d="M46 48H19V16H46V48Z" stroke="#E5E7EB"/>
<path d="M46 43H19V19H46V43Z" stroke="#E5E7EB"/>
<path d="M37 22C37 21.1703 37.6703 20.5 38.5 20.5H44.5C45.3297 20.5 46 21.1703 46 22C46 22.8297 45.3297 23.5 44.5 23.5H40V28C40 28.8297 39.3297 29.5 38.5 29.5H34V34C34 34.8297 33.3297 35.5 32.5 35.5H28V40C28 40.8297 27.3297 41.5 26.5 41.5H20.5C19.6703 41.5 19 40.8297 19 40C19 39.1703 19.6703 38.5 20.5 38.5H25V34C25 33.1703 25.6703 32.5 26.5 32.5H31V28C31 27.1703 31.6703 26.5 32.5 26.5H37V22Z" fill="#023AA2"/>
</svg>
