<svg width="65" height="64" viewBox="0 0 65 64" fill="none" xmlns="http://www.w3.org/2000/svg">
<path d="M32.5 0C50.1731 0 64.5 14.3269 64.5 32C64.5 49.6731 50.1731 64 32.5 64C14.8269 64 0.5 49.6731 0.5 32C0.5 14.3269 14.8269 0 32.5 0Z" fill="#DBEAFE"/>
<path d="M32.5 0C50.1731 0 64.5 14.3269 64.5 32C64.5 49.6731 50.1731 64 32.5 64C14.8269 64 0.5 49.6731 0.5 32C0.5 14.3269 14.8269 0 32.5 0Z" stroke="#E5E7EB"/>
<path d="M46 48H19V16H46V48Z" stroke="#E5E7EB"/>
<g clip-path="url(#clip0_174_3076)">
<path d="M45.9906 30.9766C45.9906 31.8203 45.2875 32.4813 44.4906 32.4813H42.9906L43.0234 39.9906C43.0234 40.1172 43.0141 40.2437 43 40.3703V41.125C43 42.1609 42.1609 43 41.125 43H40.375C40.3234 43 40.2719 43 40.2203 42.9953C40.1547 43 40.0891 43 40.0234 43H38.5H37.375C36.3391 43 35.5 42.1609 35.5 41.125V40V37C35.5 36.1703 34.8297 35.5 34 35.5H31C30.1703 35.5 29.5 36.1703 29.5 37V40V41.125C29.5 42.1609 28.6609 43 27.625 43H26.5H25.0047C24.9344 43 24.8641 42.9953 24.7937 42.9906C24.7375 42.9953 24.6813 43 24.625 43H23.875C22.8391 43 22 42.1609 22 41.125V35.875C22 35.8328 22 35.7859 22.0047 35.7438V32.4813H20.5C19.6562 32.4813 19 31.825 19 30.9766C19 30.5547 19.1406 30.1797 19.4688 29.8516L31.4875 19.375C31.8156 19.0469 32.1906 19 32.5187 19C32.8469 19 33.2219 19.0938 33.5031 19.3281L45.475 29.8516C45.85 30.1797 46.0375 30.5547 45.9906 30.9766Z" fill="#023AA2"/>
</g>
<defs>
<clipPath id="clip0_174_3076">
<path d="M19 19H46V43H19V19Z" fill="white"/>
</clipPath>
</defs>
</svg>
