<svg width="65" height="64" viewBox="0 0 65 64" fill="none" xmlns="http://www.w3.org/2000/svg">
<path d="M32.5 0C50.1731 0 64.5 14.3269 64.5 32C64.5 49.6731 50.1731 64 32.5 64C14.8269 64 0.5 49.6731 0.5 32C0.5 14.3269 14.8269 0 32.5 0Z" fill="#DBEAFE"/>
<path d="M32.5 0C50.1731 0 64.5 14.3269 64.5 32C64.5 49.6731 50.1731 64 32.5 64C14.8269 64 0.5 49.6731 0.5 32C0.5 14.3269 14.8269 0 32.5 0Z" stroke="#E5E7EB"/>
<path d="M46 48H19V16H46V48Z" stroke="#E5E7EB"/>
<g clip-path="url(#clip0_174_3068)">
<path d="M23.5 22C23.5 20.3453 24.8453 19 26.5 19H38.5C40.1547 19 41.5 20.3453 41.5 22V40H44.5C45.3297 40 46 40.6703 46 41.5C46 42.3297 45.3297 43 44.5 43H39.25H25.75H20.5C19.6703 43 19 42.3297 19 41.5C19 40.6703 19.6703 40 20.5 40H23.5V22ZM37 32.5C37.3978 32.5 37.7794 32.342 38.0607 32.0607C38.342 31.7794 38.5 31.3978 38.5 31C38.5 30.6022 38.342 30.2206 38.0607 29.9393C37.7794 29.658 37.3978 29.5 37 29.5C36.6022 29.5 36.2206 29.658 35.9393 29.9393C35.658 30.2206 35.5 30.6022 35.5 31C35.5 31.3978 35.658 31.7794 35.9393 32.0607C36.2206 32.342 36.6022 32.5 37 32.5Z" fill="#023AA2"/>
</g>
<defs>
<clipPath id="clip0_174_3068">
<path d="M19 19H46V43H19V19Z" fill="white"/>
</clipPath>
</defs>
</svg>
