<svg width="65" height="64" viewBox="0 0 65 64" fill="none" xmlns="http://www.w3.org/2000/svg">
<path d="M32.5 0C50.1731 0 64.5 14.3269 64.5 32C64.5 49.6731 50.1731 64 32.5 64C14.8269 64 0.5 49.6731 0.5 32C0.5 14.3269 14.8269 0 32.5 0Z" fill="#DBEAFE"/>
<path d="M32.5 0C50.1731 0 64.5 14.3269 64.5 32C64.5 49.6731 50.1731 64 32.5 64C14.8269 64 0.5 49.6731 0.5 32C0.5 14.3269 14.8269 0 32.5 0Z" stroke="#E5E7EB"/>
<path d="M44.5 48H20.5V16H44.5V48Z" stroke="#E5E7EB"/>
<g clip-path="url(#clip0_174_2775)">
<path d="M44.5 20.5C44.5 25.825 40.5344 30.2266 35.3969 30.9062C35.0641 28.4031 33.9625 26.1437 32.3359 24.3766C34.1313 21.1703 37.5625 19 41.5 19H43C43.8297 19 44.5 19.6703 44.5 20.5ZM20.5 23.5C20.5 22.6703 21.1703 22 22 22H23.5C29.2984 22 34 26.7016 34 32.5V34V41.5C34 42.3297 33.3297 43 32.5 43C31.6703 43 31 42.3297 31 41.5V34C25.2016 34 20.5 29.2984 20.5 23.5Z" fill="#023AA2"/>
</g>
<defs>
<clipPath id="clip0_174_2775">
<path d="M20.5 19H44.5V43H20.5V19Z" fill="white"/>
</clipPath>
</defs>
</svg>
