<svg width="27" height="24" viewBox="0 0 27 24" fill="none" xmlns="http://www.w3.org/2000/svg">
<path d="M4.5 3C4.5 1.34531 5.84531 0 7.5 0H19.5C21.1547 0 22.5 1.34531 22.5 3V21H25.5C26.3297 21 27 21.6703 27 22.5C27 23.3297 26.3297 24 25.5 24H20.25H6.75H1.5C0.670312 24 0 23.3297 0 22.5C0 21.6703 0.670312 21 1.5 21H4.5V3ZM18 13.5C18.3978 13.5 18.7794 13.342 19.0607 13.0607C19.342 12.7794 19.5 12.3978 19.5 12C19.5 11.6022 19.342 11.2206 19.0607 10.9393C18.7794 10.658 18.3978 10.5 18 10.5C17.6022 10.5 17.2206 10.658 16.9393 10.9393C16.658 11.2206 16.5 11.6022 16.5 12C16.5 12.3978 16.658 12.7794 16.9393 13.0607C17.2206 13.342 17.6022 13.5 18 13.5Z" fill="#023AA2"/>
</svg>
