<svg width="65" height="64" viewBox="0 0 65 64" fill="none" xmlns="http://www.w3.org/2000/svg">
<path d="M32.5 0C50.1731 0 64.5 14.3269 64.5 32C64.5 49.6731 50.1731 64 32.5 64C14.8269 64 0.5 49.6731 0.5 32C0.5 14.3269 14.8269 0 32.5 0Z" fill="#DBEAFE"/>
<path d="M32.5 0C50.1731 0 64.5 14.3269 64.5 32C64.5 49.6731 50.1731 64 32.5 64C14.8269 64 0.5 49.6731 0.5 32C0.5 14.3269 14.8269 0 32.5 0Z" stroke="#E5E7EB"/>
<path d="M44.5 48H20.5V16H44.5V48Z" stroke="#E5E7EB"/>
<g clip-path="url(#clip0_174_2856)">
<path d="M34 20.5C34 21.3297 34.6703 22 35.5 22H37C37.8297 22 38.5 22.6703 38.5 23.5C38.5 24.3297 37.8297 25 37 25H22C21.1703 25 20.5 25.6703 20.5 26.5C20.5 27.3297 21.1703 28 22 28H37C39.4844 28 41.5 25.9844 41.5 23.5C41.5 21.0156 39.4844 19 37 19H35.5C34.6703 19 34 19.6703 34 20.5ZM37 37C37 37.8297 37.6703 38.5 38.5 38.5H40C42.4844 38.5 44.5 36.4844 44.5 34C44.5 31.5156 42.4844 29.5 40 29.5H22C21.1703 29.5 20.5 30.1703 20.5 31C20.5 31.8297 21.1703 32.5 22 32.5H40C40.8297 32.5 41.5 33.1703 41.5 34C41.5 34.8297 40.8297 35.5 40 35.5H38.5C37.6703 35.5 37 36.1703 37 37ZM26.5 43H28C30.4844 43 32.5 40.9844 32.5 38.5C32.5 36.0156 30.4844 34 28 34H22C21.1703 34 20.5 34.6703 20.5 35.5C20.5 36.3297 21.1703 37 22 37H28C28.8297 37 29.5 37.6703 29.5 38.5C29.5 39.3297 28.8297 40 28 40H26.5C25.6703 40 25 40.6703 25 41.5C25 42.3297 25.6703 43 26.5 43Z" fill="#023AA2"/>
</g>
<defs>
<clipPath id="clip0_174_2856">
<path d="M20.5 19H44.5V43H20.5V19Z" fill="white"/>
</clipPath>
</defs>
</svg>
