<svg width="27" height="24" viewBox="0 0 27 24" fill="none" xmlns="http://www.w3.org/2000/svg">
<path d="M13.4083 0C14.238 0 14.9083 0.670312 14.9083 1.5V2.32969C21.0864 2.97187 26.0505 7.54687 26.8099 13.4016C26.9036 14.1328 25.9989 14.5453 25.5068 13.9969C24.8505 13.2656 23.5708 12.75 22.4083 12.75C20.5943 12.75 19.0802 14.0391 18.7333 15.7547C18.6536 16.1625 18.3255 16.5 17.9083 16.5C17.4911 16.5 17.1677 16.1625 17.0833 15.7547C16.7364 14.0391 15.2224 12.75 13.4083 12.75C11.5943 12.75 10.0802 14.0391 9.73332 15.7547C9.65363 16.1625 9.32551 16.5 8.90832 16.5C8.49113 16.5 8.16769 16.1625 8.08332 15.7547C7.73644 14.0391 6.22238 12.75 4.40832 12.75C3.24582 12.75 1.96613 13.2656 1.30988 14.0016C0.817693 14.55 -0.0869941 14.1328 0.00675591 13.4016C0.766131 7.54687 5.73019 2.97187 11.9083 2.32969V1.5C11.9083 0.670312 12.5786 0 13.4083 0ZM13.4083 14.25C13.9849 14.25 14.5099 14.4656 14.9083 14.8219V20.1844C14.9083 22.2938 13.1974 24 11.0927 24C9.64894 24 8.32707 23.1844 7.68019 21.8906L7.57238 21.6703C7.20207 20.9297 7.50207 20.0297 8.24269 19.6594C8.98332 19.2891 9.88332 19.5891 10.2536 20.3297L10.3614 20.55C10.5021 20.8266 10.7833 21 11.0927 21C11.5427 21 11.9083 20.6344 11.9083 20.1844V14.8219C12.3068 14.4656 12.8318 14.25 13.4083 14.25Z" fill="#023AA2"/>
</svg>
