<svg width="65" height="64" viewBox="0 0 65 64" fill="none" xmlns="http://www.w3.org/2000/svg">
<path d="M32.5 0C50.1731 0 64.5 14.3269 64.5 32C64.5 49.6731 50.1731 64 32.5 64C14.8269 64 0.5 49.6731 0.5 32C0.5 14.3269 14.8269 0 32.5 0Z" fill="#DBEAFE"/>
<path d="M32.5 0C50.1731 0 64.5 14.3269 64.5 32C64.5 49.6731 50.1731 64 32.5 64C14.8269 64 0.5 49.6731 0.5 32C0.5 14.3269 14.8269 0 32.5 0Z" stroke="#E5E7EB"/>
<path d="M46 48H19V16H46V48Z" stroke="#E5E7EB"/>
<g clip-path="url(#clip0_174_2807)">
<path d="M32.5 19C33.3297 19 34 19.6703 34 20.5V21.3297C40.1781 21.9719 45.1422 26.5469 45.9016 32.4016C45.9953 33.1328 45.0906 33.5453 44.5984 32.9969C43.9422 32.2656 42.6625 31.75 41.5 31.75C39.6859 31.75 38.1719 33.0391 37.825 34.7547C37.7453 35.1625 37.4172 35.5 37 35.5C36.5828 35.5 36.2594 35.1625 36.175 34.7547C35.8281 33.0391 34.3141 31.75 32.5 31.75C30.6859 31.75 29.1719 33.0391 28.825 34.7547C28.7453 35.1625 28.4172 35.5 28 35.5C27.5828 35.5 27.2594 35.1625 27.175 34.7547C26.8281 33.0391 25.3141 31.75 23.5 31.75C22.3375 31.75 21.0578 32.2656 20.4016 33.0016C19.9094 33.55 19.0047 33.1328 19.0984 32.4016C19.8578 26.5469 24.8219 21.9719 31 21.3297V20.5C31 19.6703 31.6703 19 32.5 19ZM32.5 33.25C33.0766 33.25 33.6016 33.4656 34 33.8219V39.1844C34 41.2938 32.2891 43 30.1844 43C28.7406 43 27.4187 42.1844 26.7719 40.8906L26.6641 40.6703C26.2937 39.9297 26.5937 39.0297 27.3344 38.6594C28.075 38.2891 28.975 38.5891 29.3453 39.3297L29.4531 39.55C29.5937 39.8266 29.875 40 30.1844 40C30.6344 40 31 39.6344 31 39.1844V33.8219C31.3984 33.4656 31.9234 33.25 32.5 33.25Z" fill="#023AA2"/>
</g>
<defs>
<clipPath id="clip0_174_2807">
<path d="M19 19H46V43H19V19Z" fill="white"/>
</clipPath>
</defs>
</svg>
