<svg width="65" height="64" viewBox="0 0 65 64" fill="none" xmlns="http://www.w3.org/2000/svg">
<path d="M32.5 0C50.1731 0 64.5 14.3269 64.5 32C64.5 49.6731 50.1731 64 32.5 64C14.8269 64 0.5 49.6731 0.5 32C0.5 14.3269 14.8269 0 32.5 0Z" fill="#DBEAFE"/>
<path d="M32.5 0C50.1731 0 64.5 14.3269 64.5 32C64.5 49.6731 50.1731 64 32.5 64C14.8269 64 0.5 49.6731 0.5 32C0.5 14.3269 14.8269 0 32.5 0Z" stroke="#E5E7EB"/>
<path d="M47.5 48H17.5V16H47.5V48Z" stroke="#E5E7EB"/>
<g clip-path="url(#clip0_174_2992)">
<path d="M19.75 19C18.5078 19 17.5 20.0078 17.5 21.25V36.25C17.5 37.4922 18.5078 38.5 19.75 38.5H20.5C20.5 40.9844 22.5156 43 25 43C27.4844 43 29.5 40.9844 29.5 38.5H35.5C35.5 40.9844 37.5156 43 40 43C42.4844 43 44.5 40.9844 44.5 38.5H46C46.8297 38.5 47.5 37.8297 47.5 37C47.5 36.1703 46.8297 35.5 46 35.5V32.5V31V30.1234C46 29.3266 45.6859 28.5625 45.1234 28L41.5 24.3766C40.9375 23.8141 40.1734 23.5 39.3766 23.5H37V21.25C37 20.0078 35.9922 19 34.75 19H19.75ZM37 26.5H39.3766L43 30.1234V31H37V26.5ZM22.75 38.5C22.75 37.9033 22.9871 37.331 23.409 36.909C23.831 36.4871 24.4033 36.25 25 36.25C25.5967 36.25 26.169 36.4871 26.591 36.909C27.0129 37.331 27.25 37.9033 27.25 38.5C27.25 39.0967 27.0129 39.669 26.591 40.091C26.169 40.5129 25.5967 40.75 25 40.75C24.4033 40.75 23.831 40.5129 23.409 40.091C22.9871 39.669 22.75 39.0967 22.75 38.5ZM40 36.25C40.5967 36.25 41.169 36.4871 41.591 36.909C42.0129 37.331 42.25 37.9033 42.25 38.5C42.25 39.0967 42.0129 39.669 41.591 40.091C41.169 40.5129 40.5967 40.75 40 40.75C39.4033 40.75 38.831 40.5129 38.409 40.091C37.9871 39.669 37.75 39.0967 37.75 38.5C37.75 37.9033 37.9871 37.331 38.409 36.909C38.831 36.4871 39.4033 36.25 40 36.25Z" fill="#023AA2"/>
</g>
<defs>
<clipPath id="clip0_174_2992">
<path d="M17.5 19H47.5V43H17.5V19Z" fill="white"/>
</clipPath>
</defs>
</svg>
