<svg width="65" height="64" viewBox="0 0 65 64" fill="none" xmlns="http://www.w3.org/2000/svg">
<path d="M32.5 0C50.1731 0 64.5 14.3269 64.5 32C64.5 49.6731 50.1731 64 32.5 64C14.8269 64 0.5 49.6731 0.5 32C0.5 14.3269 14.8269 0 32.5 0Z" fill="#DBEAFE"/>
<path d="M32.5 0C50.1731 0 64.5 14.3269 64.5 32C64.5 49.6731 50.1731 64 32.5 64C14.8269 64 0.5 49.6731 0.5 32C0.5 14.3269 14.8269 0 32.5 0Z" stroke="#E5E7EB"/>
<path d="M40 48H25V16H40V48Z" stroke="#E5E7EB"/>
<g clip-path="url(#clip0_174_2831)">
<path d="M32.5 22C31.2578 22 30.25 23.0078 30.25 24.25V31.9609C30.25 32.7719 29.9172 33.4563 29.5328 33.9531C29.0406 34.5906 28.75 35.3828 28.75 36.25C28.75 38.3219 30.4281 40 32.5 40C34.5719 40 36.25 38.3219 36.25 36.25C36.25 35.3828 35.9594 34.5906 35.4672 33.9578C35.0828 33.4609 34.75 32.7766 34.75 31.9656V24.25C34.75 23.0078 33.7422 22 32.5 22ZM27.25 24.25C27.25 21.3531 29.5984 19 32.5 19C35.4016 19 37.75 21.3484 37.75 24.25V31.9609C37.75 31.9656 37.7547 31.975 37.7594 31.9891C37.7688 32.0172 37.7969 32.0641 37.8391 32.1203C38.725 33.2641 39.25 34.6984 39.25 36.25C39.25 39.9766 36.2266 43 32.5 43C28.7734 43 25.75 39.9766 25.75 36.25C25.75 34.6938 26.275 33.2594 27.1609 32.1203C27.2031 32.0641 27.2312 32.0172 27.2406 31.9891C27.2453 31.975 27.25 31.9656 27.25 31.9609V24.25ZM34.75 36.25C34.75 37.4922 33.7422 38.5 32.5 38.5C31.2578 38.5 30.25 37.4922 30.25 36.25C30.25 35.2703 30.8781 34.4359 31.75 34.1266V28.75C31.75 28.3375 32.0875 28 32.5 28C32.9125 28 33.25 28.3375 33.25 28.75V34.1266C34.1219 34.4359 34.75 35.2703 34.75 36.25Z" fill="#023AA2"/>
</g>
<defs>
<clipPath id="clip0_174_2831">
<path d="M25 19H40V43H25V19Z" fill="white"/>
</clipPath>
</defs>
</svg>
