<svg width="14" height="24" viewBox="0 0 14 24" fill="none" xmlns="http://www.w3.org/2000/svg">
<path d="M6.75 3C5.50781 3 4.5 4.00781 4.5 5.25V12.9609C4.5 13.7719 4.16719 14.4563 3.78281 14.9531C3.29062 15.5906 3 16.3828 3 17.25C3 19.3219 4.67812 21 6.75 21C8.82187 21 10.5 19.3219 10.5 17.25C10.5 16.3828 10.2094 15.5906 9.71719 14.9578C9.33281 14.4609 9 13.7766 9 12.9656V5.25C9 4.00781 7.99219 3 6.75 3ZM1.5 5.25C1.5 2.35313 3.84844 0 6.75 0C9.65156 0 12 2.34844 12 5.25V12.9609C12 12.9656 12.0047 12.975 12.0094 12.9891C12.0188 13.0172 12.0469 13.0641 12.0891 13.1203C12.975 14.2641 13.5 15.6984 13.5 17.25C13.5 20.9766 10.4766 24 6.75 24C3.02344 24 0 20.9766 0 17.25C0 15.6938 0.525 14.2594 1.41094 13.1203C1.45312 13.0641 1.48125 13.0172 1.49062 12.9891C1.49531 12.975 1.5 12.9656 1.5 12.9609V5.25ZM9 17.25C9 18.4922 7.99219 19.5 6.75 19.5C5.50781 19.5 4.5 18.4922 4.5 17.25C4.5 16.2703 5.12813 15.4359 6 15.1266V9.75C6 9.3375 6.3375 9 6.75 9C7.1625 9 7.5 9.3375 7.5 9.75V15.1266C8.37187 15.4359 9 16.2703 9 17.25Z" fill="#023AA2"/>
</svg>
