<svg width="24" height="24" viewBox="0 0 24 24" fill="none" xmlns="http://www.w3.org/2000/svg">
<path d="M19.5 3C19.8978 3 20.2794 3.15804 20.5607 3.43934C20.842 3.72064 21 4.10218 21 4.5C21 4.89782 20.842 5.27936 20.5607 5.56066C20.2794 5.84196 19.8978 6 19.5 6C19.1022 6 18.7206 5.84196 18.4393 5.56066C18.158 5.27936 18 4.89782 18 4.5C18 4.10218 18.158 3.72064 18.4393 3.43934C18.7206 3.15804 19.1022 3 19.5 3ZM19.5 9C20.6935 9 21.8381 8.52589 22.682 7.68198C23.5259 6.83807 24 5.69347 24 4.5C24 3.30653 23.5259 2.16193 22.682 1.31802C21.8381 0.474106 20.6935 0 19.5 0C18.3065 0 17.1619 0.474106 16.318 1.31802C15.4741 2.16193 15 3.30653 15 4.5C15 5.69347 15.4741 6.83807 16.318 7.68198C17.1619 8.52589 18.3065 9 19.5 9ZM4.5 5.25C4.5 4.00781 5.50781 3 6.75 3C7.99219 3 9 4.00781 9 5.25V12.9609C9 13.7719 9.33281 14.4563 9.71719 14.9531C10.2094 15.5906 10.5 16.3828 10.5 17.25C10.5 19.3219 8.82187 21 6.75 21C4.67812 21 3 19.3219 3 17.25C3 16.3828 3.29062 15.5906 3.78281 14.9578C4.16719 14.4563 4.5 13.7719 4.5 12.9609V5.25ZM6.75 0C3.84844 0 1.5 2.35313 1.5 5.25V12.9609C1.5 12.9656 1.49531 12.975 1.49062 12.9891C1.48125 13.0172 1.45312 13.0641 1.41094 13.1203C0.525 14.2594 0 15.6938 0 17.25C0 20.9766 3.02344 24 6.75 24C10.4766 24 13.5 20.9766 13.5 17.25C13.5 15.6938 12.975 14.2594 12.0891 13.1203C12.0469 13.0641 12.0188 13.0172 12.0094 12.9891C12.0047 12.975 12 12.9656 12 12.9609V5.25C12 2.35313 9.65156 0 6.75 0ZM6.75 19.5C7.99219 19.5 9 18.4922 9 17.25C9 16.2703 8.37187 15.4359 7.5 15.1266V5.25C7.5 4.8375 7.1625 4.5 6.75 4.5C6.3375 4.5 6 4.8375 6 5.25V15.1266C5.12813 15.4359 4.5 16.2703 4.5 17.25C4.5 18.4922 5.50781 19.5 6.75 19.5Z" fill="#023AA2"/>
</svg>
