<svg width="65" height="64" viewBox="0 0 65 64" fill="none" xmlns="http://www.w3.org/2000/svg">
<path d="M32.5 0C50.1731 0 64.5 14.3269 64.5 32C64.5 49.6731 50.1731 64 32.5 64C14.8269 64 0.5 49.6731 0.5 32C0.5 14.3269 14.8269 0 32.5 0Z" fill="#DBEAFE"/>
<path d="M32.5 0C50.1731 0 64.5 14.3269 64.5 32C64.5 49.6731 50.1731 64 32.5 64C14.8269 64 0.5 49.6731 0.5 32C0.5 14.3269 14.8269 0 32.5 0Z" stroke="#E5E7EB"/>
<path d="M43 48H22V16H43V48Z" stroke="#E5E7EB"/>
<path d="M43 43H22V19H43V43Z" stroke="#E5E7EB"/>
<path d="M23.5 32.5C22.6703 32.5 22 33.1703 22 34C22 34.8297 22.6703 35.5 23.5 35.5H41.5C42.3297 35.5 43 34.8297 43 34C43 33.1703 42.3297 32.5 41.5 32.5H23.5ZM23.5 26.5C22.6703 26.5 22 27.1703 22 28C22 28.8297 22.6703 29.5 23.5 29.5H41.5C42.3297 29.5 43 28.8297 43 28C43 27.1703 42.3297 26.5 41.5 26.5H23.5Z" fill="#023AA2"/>
</svg>
