<svg width="65" height="64" viewBox="0 0 65 64" fill="none" xmlns="http://www.w3.org/2000/svg">
<path d="M32.5 0C50.1731 0 64.5 14.3269 64.5 32C64.5 49.6731 50.1731 64 32.5 64C14.8269 64 0.5 49.6731 0.5 32C0.5 14.3269 14.8269 0 32.5 0Z" fill="#DBEAFE"/>
<path d="M32.5 0C50.1731 0 64.5 14.3269 64.5 32C64.5 49.6731 50.1731 64 32.5 64C14.8269 64 0.5 49.6731 0.5 32C0.5 14.3269 14.8269 0 32.5 0Z" stroke="#E5E7EB"/>
<path d="M44.5 48H20.5V16H44.5V48Z" stroke="#E5E7EB"/>
<g clip-path="url(#clip0_174_2848)">
<path d="M40 22C40.3978 22 40.7794 22.158 41.0607 22.4393C41.342 22.7206 41.5 23.1022 41.5 23.5C41.5 23.8978 41.342 24.2794 41.0607 24.5607C40.7794 24.842 40.3978 25 40 25C39.6022 25 39.2206 24.842 38.9393 24.5607C38.658 24.2794 38.5 23.8978 38.5 23.5C38.5 23.1022 38.658 22.7206 38.9393 22.4393C39.2206 22.158 39.6022 22 40 22ZM40 28C41.1935 28 42.3381 27.5259 43.182 26.682C44.0259 25.8381 44.5 24.6935 44.5 23.5C44.5 22.3065 44.0259 21.1619 43.182 20.318C42.3381 19.4741 41.1935 19 40 19C38.8065 19 37.6619 19.4741 36.818 20.318C35.9741 21.1619 35.5 22.3065 35.5 23.5C35.5 24.6935 35.9741 25.8381 36.818 26.682C37.6619 27.5259 38.8065 28 40 28ZM25 24.25C25 23.0078 26.0078 22 27.25 22C28.4922 22 29.5 23.0078 29.5 24.25V31.9609C29.5 32.7719 29.8328 33.4563 30.2172 33.9531C30.7094 34.5906 31 35.3828 31 36.25C31 38.3219 29.3219 40 27.25 40C25.1781 40 23.5 38.3219 23.5 36.25C23.5 35.3828 23.7906 34.5906 24.2828 33.9578C24.6672 33.4563 25 32.7719 25 31.9609V24.25ZM27.25 19C24.3484 19 22 21.3531 22 24.25V31.9609C22 31.9656 21.9953 31.975 21.9906 31.9891C21.9812 32.0172 21.9531 32.0641 21.9109 32.1203C21.025 33.2594 20.5 34.6938 20.5 36.25C20.5 39.9766 23.5234 43 27.25 43C30.9766 43 34 39.9766 34 36.25C34 34.6938 33.475 33.2594 32.5891 32.1203C32.5469 32.0641 32.5188 32.0172 32.5094 31.9891C32.5047 31.975 32.5 31.9656 32.5 31.9609V24.25C32.5 21.3531 30.1516 19 27.25 19ZM27.25 38.5C28.4922 38.5 29.5 37.4922 29.5 36.25C29.5 35.2703 28.8719 34.4359 28 34.1266V24.25C28 23.8375 27.6625 23.5 27.25 23.5C26.8375 23.5 26.5 23.8375 26.5 24.25V34.1266C25.6281 34.4359 25 35.2703 25 36.25C25 37.4922 26.0078 38.5 27.25 38.5Z" fill="#023AA2"/>
</g>
<defs>
<clipPath id="clip0_174_2848">
<path d="M20.5 19H44.5V43H20.5V19Z" fill="white"/>
</clipPath>
</defs>
</svg>
