<svg width="65" height="64" viewBox="0 0 65 64" fill="none" xmlns="http://www.w3.org/2000/svg">
<path d="M32.5 0C50.1731 0 64.5 14.3269 64.5 32C64.5 49.6731 50.1731 64 32.5 64C14.8269 64 0.5 49.6731 0.5 32C0.5 14.3269 14.8269 0 32.5 0Z" fill="#DBEAFE"/>
<path d="M32.5 0C50.1731 0 64.5 14.3269 64.5 32C64.5 49.6731 50.1731 64 32.5 64C14.8269 64 0.5 49.6731 0.5 32C0.5 14.3269 14.8269 0 32.5 0Z" stroke="#E5E7EB"/>
<path d="M41.5 48H23.5V16H41.5V48Z" stroke="#E5E7EB"/>
<g clip-path="url(#clip0_174_2904)">
<path d="M32.5 43C27.5312 43 23.5 38.9688 23.5 34C23.5 29.725 29.6031 21.7047 31.3094 19.5484C31.5906 19.1969 32.0078 19 32.4578 19H32.5422C32.9922 19 33.4094 19.1969 33.6906 19.5484C35.3969 21.7047 41.5 29.725 41.5 34C41.5 38.9688 37.4688 43 32.5 43ZM28 34.75C28 34.3375 27.6625 34 27.25 34C26.8375 34 26.5 34.3375 26.5 34.75C26.5 37.6516 28.8484 40 31.75 40C32.1625 40 32.5 39.6625 32.5 39.25C32.5 38.8375 32.1625 38.5 31.75 38.5C29.6781 38.5 28 36.8219 28 34.75Z" fill="#023AA2"/>
</g>
<defs>
<clipPath id="clip0_174_2904">
<path d="M23.5 19H41.5V43H23.5V19Z" fill="white"/>
</clipPath>
</defs>
</svg>
