<svg width="27" height="21" viewBox="0 0 27 21" fill="none" xmlns="http://www.w3.org/2000/svg">
<path d="M8.58281 9.52969C10.1625 10.5 11.5312 11.7844 12.6047 13.3031C12.9328 13.7672 13.2328 14.2547 13.5 14.7562C13.7672 14.25 14.0672 13.7672 14.3953 13.3031C15.4688 11.7844 16.8375 10.5 18.4172 9.52969C20.5125 8.24063 22.9734 7.5 25.5938 7.5H26.0578C26.5781 7.5 27 7.92188 27 8.44219C27 15.3797 21.3797 21 14.4422 21H13.5H12.5578C5.62031 21 0 15.3797 0 8.44219C0 7.92188 0.421875 7.5 0.942188 7.5H1.40625C4.02656 7.5 6.4875 8.24063 8.58281 9.52969ZM14.1328 0.2625C14.8687 1.05469 16.9969 3.62812 18.0891 7.97812C16.3078 8.99062 14.7422 10.3594 13.5 11.9906C12.2578 10.3594 10.6922 8.99531 8.91094 7.97812C9.99844 3.62812 12.1266 1.05469 12.8672 0.2625C13.0312 0.0890624 13.2609 0 13.5 0C13.7391 0 13.9688 0.0890624 14.1328 0.2625Z" fill="#023AA2"/>
</svg>
