<svg width="65" height="64" viewBox="0 0 65 64" fill="none" xmlns="http://www.w3.org/2000/svg">
<path d="M32.5 0C50.1731 0 64.5 14.3269 64.5 32C64.5 49.6731 50.1731 64 32.5 64C14.8269 64 0.5 49.6731 0.5 32C0.5 14.3269 14.8269 0 32.5 0Z" fill="#DBEAFE"/>
<path d="M32.5 0C50.1731 0 64.5 14.3269 64.5 32C64.5 49.6731 50.1731 64 32.5 64C14.8269 64 0.5 49.6731 0.5 32C0.5 14.3269 14.8269 0 32.5 0Z" stroke="#E5E7EB"/>
<path d="M46 48H19V16H46V48Z" stroke="#E5E7EB"/>
<path d="M46 43H19V19H46V43Z" stroke="#E5E7EB"/>
<path d="M27.5828 30.0297C29.1625 31 30.5312 32.2844 31.6047 33.8031C31.9328 34.2672 32.2328 34.7547 32.5 35.2562C32.7672 34.75 33.0672 34.2672 33.3953 33.8031C34.4688 32.2844 35.8375 31 37.4172 30.0297C39.5125 28.7406 41.9734 28 44.5938 28H45.0578C45.5781 28 46 28.4219 46 28.9422C46 35.8797 40.3797 41.5 33.4422 41.5H32.5H31.5578C24.6203 41.5 19 35.8797 19 28.9422C19 28.4219 19.4219 28 19.9422 28H20.4062C23.0266 28 25.4875 28.7406 27.5828 30.0297ZM33.1328 20.7625C33.8687 21.5547 35.9969 24.1281 37.0891 28.4781C35.3078 29.4906 33.7422 30.8594 32.5 32.4906C31.2578 30.8594 29.6922 29.4953 27.9109 28.4781C28.9984 24.1281 31.1266 21.5547 31.8672 20.7625C32.0312 20.5891 32.2609 20.5 32.5 20.5C32.7391 20.5 32.9688 20.5891 33.1328 20.7625Z" fill="#023AA2"/>
</svg>
