<svg width="65" height="64" viewBox="0 0 65 64" fill="none" xmlns="http://www.w3.org/2000/svg">
<path d="M32.5 0C50.1731 0 64.5 14.3269 64.5 32C64.5 49.6731 50.1731 64 32.5 64C14.8269 64 0.5 49.6731 0.5 32C0.5 14.3269 14.8269 0 32.5 0Z" fill="#DBEAFE"/>
<path d="M32.5 0C50.1731 0 64.5 14.3269 64.5 32C64.5 49.6731 50.1731 64 32.5 64C14.8269 64 0.5 49.6731 0.5 32C0.5 14.3269 14.8269 0 32.5 0Z" stroke="#E5E7EB"/>
<path d="M47.5 48H17.5V16H47.5V48Z" stroke="#E5E7EB"/>
<g clip-path="url(#clip0_174_2872)">
<path d="M23.2281 19C21.7984 19 20.5703 20.0078 20.2891 21.4094L17.8891 33.4094C17.5187 35.2656 18.9344 37 20.8281 37H31V40H28C27.1703 40 26.5 40.6703 26.5 41.5C26.5 42.3297 27.1703 43 28 43H37C37.8297 43 38.5 42.3297 38.5 41.5C38.5 40.6703 37.8297 40 37 40H34V37H44.1719C46.0656 37 47.4859 35.2703 47.1156 33.4094L44.7156 21.4094C44.4297 20.0078 43.2016 19 41.7719 19H23.2281ZM29.7297 22H35.2703L35.7578 26.875H29.2422L29.7297 22ZM26.9828 26.875H22.2531L23.2281 22H27.4656L26.9828 26.875ZM21.8031 29.125H26.7578L26.2703 34H20.8281L21.8031 29.125ZM29.0172 29.125H35.9828L36.4703 34H28.5297L29.0172 29.125ZM38.2422 29.125H43.1969L44.1719 34H38.7344L38.2422 29.125ZM42.7422 26.875H38.0172L37.5297 22H41.7672L43.2391 21.7047L41.7719 22L42.7469 26.875H42.7422Z" fill="#023AA2"/>
</g>
<defs>
<clipPath id="clip0_174_2872">
<path d="M17.5 19H47.5V43H17.5V19Z" fill="white"/>
</clipPath>
</defs>
</svg>
