<svg width="30" height="24" viewBox="0 0 30 24" fill="none" xmlns="http://www.w3.org/2000/svg">
<path d="M5.3982 0C3.96851 0 2.74039 1.00781 2.45914 2.40938L0.0591352 14.4094C-0.311177 16.2656 1.10445 18 2.9982 18H13.1701V21H10.1701C9.34039 21 8.67007 21.6703 8.67007 22.5C8.67007 23.3297 9.34039 24 10.1701 24H19.1701C19.9998 24 20.6701 23.3297 20.6701 22.5C20.6701 21.6703 19.9998 21 19.1701 21H16.1701V18H26.3419C28.2357 18 29.656 16.2703 29.2857 14.4094L26.8857 2.40938C26.5998 1.00781 25.3716 0 23.9419 0H5.3982ZM11.8998 3H17.4404L17.9279 7.875H11.4123L11.8998 3ZM9.15289 7.875H4.4232L5.3982 3H9.6357L9.15289 7.875ZM3.9732 10.125H8.92789L8.44039 15H2.9982L3.9732 10.125ZM11.1873 10.125H18.1529L18.6404 15H10.6998L11.1873 10.125ZM20.4123 10.125H25.3669L26.3419 15H20.9044L20.4123 10.125ZM24.9123 7.875H20.1873L19.6998 3H23.9373L25.4091 2.70469L23.9419 3L24.9169 7.875H24.9123Z" fill="#023AA2"/>
</svg>
