<svg width="65" height="64" viewBox="0 0 65 64" fill="none" xmlns="http://www.w3.org/2000/svg">
<path d="M32.5 0C50.1731 0 64.5 14.3269 64.5 32C64.5 49.6731 50.1731 64 32.5 64C14.8269 64 0.5 49.6731 0.5 32C0.5 14.3269 14.8269 0 32.5 0Z" fill="#DBEAFE"/>
<path d="M32.5 0C50.1731 0 64.5 14.3269 64.5 32C64.5 49.6731 50.1731 64 32.5 64C14.8269 64 0.5 49.6731 0.5 32C0.5 14.3269 14.8269 0 32.5 0Z" stroke="#E5E7EB"/>
<path d="M44.5 48H20.5V16H44.5V48Z" stroke="#E5E7EB"/>
<g clip-path="url(#clip0_174_2815)">
<path d="M37.4453 19.056C37.6797 19.1545 37.8484 19.3654 37.8953 19.6138L38.8281 24.6717L43.8859 25.5998C44.1344 25.6467 44.3453 25.8154 44.4437 26.0498C44.5422 26.2842 44.5141 26.5513 44.3687 26.7623L41.4484 30.9998L44.3687 35.2326C44.5141 35.4435 44.5422 35.7107 44.4437 35.9451C44.3453 36.1795 44.1344 36.3482 43.8859 36.3951L38.8281 37.3279L37.8953 42.3857C37.8484 42.6342 37.6797 42.8451 37.4453 42.9435C37.2109 43.042 36.9437 43.0138 36.7328 42.8685L32.5 39.9482L28.2672 42.8685C28.0562 43.0138 27.7891 43.042 27.5547 42.9435C27.3203 42.8451 27.1516 42.6342 27.1047 42.3857L26.1719 37.3279L21.1141 36.3951C20.8656 36.3482 20.6547 36.1795 20.5562 35.9451C20.4578 35.7107 20.4859 35.4435 20.6312 35.2326L23.5516 30.9998L20.6312 26.767C20.4859 26.556 20.4578 26.2888 20.5562 26.0545C20.6547 25.8201 20.8656 25.6513 21.1141 25.6045L26.1719 24.6717L27.1047 19.6138C27.1516 19.3654 27.3203 19.1545 27.5547 19.056C27.7891 18.9576 28.0562 18.9857 28.2672 19.131L32.5 22.0513L36.7328 19.131C36.9437 18.9857 37.2109 18.9576 37.4453 19.056ZM28 30.9998C28 29.8063 28.4741 28.6617 29.318 27.8178C30.1619 26.9739 31.3065 26.4998 32.5 26.4998C33.6935 26.4998 34.8381 26.9739 35.682 27.8178C36.5259 28.6617 37 29.8063 37 30.9998C37 32.1933 36.5259 33.3378 35.682 34.1818C34.8381 35.0257 33.6935 35.4998 32.5 35.4998C31.3065 35.4998 30.1619 35.0257 29.318 34.1818C28.4741 33.3378 28 32.1933 28 30.9998ZM38.5 30.9998C38.5 29.4085 37.8679 27.8824 36.7426 26.7571C35.6174 25.6319 34.0913 24.9998 32.5 24.9998C30.9087 24.9998 29.3826 25.6319 28.2574 26.7571C27.1321 27.8824 26.5 29.4085 26.5 30.9998C26.5 32.5911 27.1321 34.1172 28.2574 35.2424C29.3826 36.3676 30.9087 36.9998 32.5 36.9998C34.0913 36.9998 35.6174 36.3676 36.7426 35.2424C37.8679 34.1172 38.5 32.5911 38.5 30.9998Z" fill="#023AA2"/>
</g>
<defs>
<clipPath id="clip0_174_2815">
<path d="M20.5 19H44.5V43H20.5V19Z" fill="white"/>
</clipPath>
</defs>
</svg>
