<svg width="24" height="24" viewBox="0 0 24 24" fill="none" xmlns="http://www.w3.org/2000/svg">
<path d="M16.947 0.0579855C17.1814 0.156423 17.3502 0.367361 17.397 0.615798L18.3299 5.67361L23.3877 6.60174C23.6361 6.64861 23.847 6.81736 23.9455 7.05173C24.0439 7.28611 24.0158 7.5533 23.8705 7.76424L20.9502 12.0017L23.8705 16.2345C24.0158 16.4455 24.0439 16.7127 23.9455 16.947C23.847 17.1814 23.6361 17.3502 23.3877 17.397L18.3299 18.3299L17.397 23.3877C17.3502 23.6361 17.1814 23.847 16.947 23.9455C16.7127 24.0439 16.4455 24.0158 16.2345 23.8705L12.0017 20.9502L7.76892 23.8705C7.55799 24.0158 7.2908 24.0439 7.05642 23.9455C6.82205 23.847 6.6533 23.6361 6.60642 23.3877L5.67361 18.3299L0.615798 17.397C0.367361 17.3502 0.156423 17.1814 0.0579855 16.947C-0.040452 16.7127 -0.012327 16.4455 0.132986 16.2345L3.0533 12.0017L0.132986 7.76892C-0.012327 7.55799 -0.040452 7.2908 0.0579855 7.05642C0.156423 6.82205 0.367361 6.6533 0.615798 6.60642L5.67361 5.67361L6.60642 0.615798C6.6533 0.367361 6.82205 0.156423 7.05642 0.0579855C7.2908 -0.040452 7.55799 -0.012327 7.76892 0.132986L12.0017 3.0533L16.2345 0.132986C16.4455 -0.012327 16.7127 -0.040452 16.947 0.0579855ZM7.50174 12.0017C7.50174 10.8083 7.97584 9.66367 8.81975 8.81975C9.66367 7.97584 10.8083 7.50174 12.0017 7.50174C13.1952 7.50174 14.3398 7.97584 15.1837 8.81975C16.0276 9.66367 16.5017 10.8083 16.5017 12.0017C16.5017 13.1952 16.0276 14.3398 15.1837 15.1837C14.3398 16.0276 13.1952 16.5017 12.0017 16.5017C10.8083 16.5017 9.66367 16.0276 8.81975 15.1837C7.97584 14.3398 7.50174 13.1952 7.50174 12.0017ZM18.0017 12.0017C18.0017 10.4104 17.3696 8.88431 16.2444 7.75909C15.1192 6.63388 13.593 6.00174 12.0017 6.00174C10.4104 6.00174 8.88431 6.63388 7.75909 7.75909C6.63388 8.88431 6.00174 10.4104 6.00174 12.0017C6.00174 13.593 6.63388 15.1192 7.75909 16.2444C8.88431 17.3696 10.4104 18.0017 12.0017 18.0017C13.593 18.0017 15.1192 17.3696 16.2444 16.2444C17.3696 15.1192 18.0017 13.593 18.0017 12.0017Z" fill="#023AA2"/>
</svg>
