<svg width="27" height="21" viewBox="0 0 27 21" fill="none" xmlns="http://www.w3.org/2000/svg">
<path d="M5.99711 4.48594C5.99711 2.01094 8.00804 0 10.483 0C12.7471 0 14.6549 1.6875 14.9362 3.93281L14.983 4.31719C15.0862 5.1375 14.5049 5.8875 13.6799 5.99062C12.8549 6.09375 12.1096 5.5125 12.0065 4.6875L11.9596 4.30312C11.8659 3.55781 11.233 3 10.483 3C9.66273 3 8.99711 3.66562 8.99711 4.48594V9H17.9971V4.48594C17.9971 2.01094 20.008 0 22.483 0C24.7471 0 26.6549 1.6875 26.9362 3.93281L26.983 4.31719C27.0862 5.1375 26.5049 5.8875 25.6799 5.99062C24.8549 6.09375 24.1096 5.5125 24.0065 4.6875L23.9596 4.30312C23.8659 3.55781 23.233 3 22.483 3C21.6627 3 20.9971 3.66562 20.9971 4.48594V15.4219C20.9221 15.4687 20.8424 15.5156 20.7721 15.5672C19.9284 16.1484 18.8924 16.5187 17.9971 16.5187V12H8.99711V16.5234C8.10648 16.5234 7.06586 16.1531 6.22679 15.5719C6.15179 15.5203 6.07679 15.4687 5.99711 15.4266V4.48594ZM14.3643 16.7766C15.419 17.5031 16.708 18 17.9971 18C19.258 18 20.594 17.4937 21.6252 16.7766C22.183 16.3781 22.9424 16.4109 23.4627 16.8562C24.1377 17.4141 24.9862 17.8406 25.8346 18.0375C26.6409 18.225 27.1424 19.0312 26.9549 19.8375C26.7674 20.6437 25.9612 21.1453 25.1549 20.9578C24.0065 20.6906 23.0502 20.1844 22.4268 19.7859C21.0674 20.5172 19.544 21 17.9971 21C16.5018 21 15.1565 20.5359 14.2284 20.1141C13.9565 19.9875 13.708 19.8656 13.4971 19.7531C13.2862 19.8656 13.0424 19.9922 12.7659 20.1141C11.8377 20.5359 10.4924 21 8.99711 21C7.45023 21 5.92679 20.5172 4.56742 19.7906C3.93929 20.1844 2.98773 20.6953 1.83929 20.9625C1.03304 21.15 0.226793 20.6484 0.039293 19.8422C-0.148207 19.0359 0.353355 18.2297 1.15961 18.0422C2.00804 17.8453 2.85648 17.4187 3.53148 16.8609C4.05179 16.4203 4.81117 16.3875 5.36898 16.7812C6.40492 17.4937 7.73617 18 8.99711 18C10.2862 18 11.5752 17.5031 12.6299 16.7766C13.1502 16.4062 13.844 16.4062 14.3643 16.7766Z" fill="#023AA2"/>
</svg>
