<svg width="65" height="64" viewBox="0 0 65 64" fill="none" xmlns="http://www.w3.org/2000/svg">
<path d="M32.5 0C50.1731 0 64.5 14.3269 64.5 32C64.5 49.6731 50.1731 64 32.5 64C14.8269 64 0.5 49.6731 0.5 32C0.5 14.3269 14.8269 0 32.5 0Z" fill="#DBEAFE"/>
<path d="M32.5 0C50.1731 0 64.5 14.3269 64.5 32C64.5 49.6731 50.1731 64 32.5 64C14.8269 64 0.5 49.6731 0.5 32C0.5 14.3269 14.8269 0 32.5 0Z" stroke="#E5E7EB"/>
<path d="M46 48H19V16H46V48Z" stroke="#E5E7EB"/>
<path d="M46 43H19V19H46V43Z" stroke="#E5E7EB"/>
<path d="M25 24.9859C25 22.5109 27.0109 20.5 29.4859 20.5C31.75 20.5 33.6578 22.1875 33.9391 24.4328L33.9859 24.8172C34.0891 25.6375 33.5078 26.3875 32.6828 26.4906C31.8578 26.5937 31.1125 26.0125 31.0094 25.1875L30.9625 24.8031C30.8688 24.0578 30.2359 23.5 29.4859 23.5C28.6656 23.5 28 24.1656 28 24.9859V29.5H37V24.9859C37 22.5109 39.0109 20.5 41.4859 20.5C43.75 20.5 45.6578 22.1875 45.9391 24.4328L45.9859 24.8172C46.0891 25.6375 45.5078 26.3875 44.6828 26.4906C43.8578 26.5937 43.1125 26.0125 43.0094 25.1875L42.9625 24.8031C42.8688 24.0578 42.2359 23.5 41.4859 23.5C40.6656 23.5 40 24.1656 40 24.9859V35.9219C39.925 35.9687 39.8453 36.0156 39.775 36.0672C38.9313 36.6484 37.8953 37.0187 37 37.0187V32.5H28V37.0234C27.1094 37.0234 26.0688 36.6531 25.2297 36.0719C25.1547 36.0203 25.0797 35.9687 25 35.9266V24.9859ZM33.3672 37.2766C34.4219 38.0031 35.7109 38.5 37 38.5C38.2609 38.5 39.5969 37.9937 40.6281 37.2766C41.1859 36.8781 41.9453 36.9109 42.4656 37.3562C43.1406 37.9141 43.9891 38.3406 44.8375 38.5375C45.6438 38.725 46.1453 39.5312 45.9578 40.3375C45.7703 41.1437 44.9641 41.6453 44.1578 41.4578C43.0094 41.1906 42.0531 40.6844 41.4297 40.2859C40.0703 41.0172 38.5469 41.5 37 41.5C35.5047 41.5 34.1594 41.0359 33.2313 40.6141C32.9594 40.4875 32.7109 40.3656 32.5 40.2531C32.2891 40.3656 32.0453 40.4922 31.7688 40.6141C30.8406 41.0359 29.4953 41.5 28 41.5C26.4531 41.5 24.9297 41.0172 23.5703 40.2906C22.9422 40.6844 21.9906 41.1953 20.8422 41.4625C20.0359 41.65 19.2297 41.1484 19.0422 40.3422C18.8547 39.5359 19.3563 38.7297 20.1625 38.5422C21.0109 38.3453 21.8594 37.9187 22.5344 37.3609C23.0547 36.9203 23.8141 36.8875 24.3719 37.2812C25.4078 37.9937 26.7391 38.5 28 38.5C29.2891 38.5 30.5781 38.0031 31.6328 37.2766C32.1531 36.9062 32.8469 36.9062 33.3672 37.2766Z" fill="#023AA2"/>
</svg>
