<svg width="48" height="48" viewBox="0 0 48 48" fill="none" xmlns="http://www.w3.org/2000/svg">
<path d="M24 0C37.2548 0 48 10.7452 48 24C48 37.2548 37.2548 48 24 48C10.7452 48 0 37.2548 0 24C0 10.7452 10.7452 0 24 0Z" fill="#0AB27E"/>
<path d="M24 0C37.2548 0 48 10.7452 48 24C48 37.2548 37.2548 48 24 48C10.7452 48 0 37.2548 0 24C0 10.7452 10.7452 0 24 0Z" stroke="#E5E7EB"/>
<path d="M32 36H16V12H32V36Z" stroke="#E5E7EB"/>
<g clip-path="url(#clip0_194_2170)">
<path d="M24 16.5C20.4094 16.5 17.5 19.4094 17.5 23V24.25C17.5 24.6656 17.1656 25 16.75 25C16.3344 25 16 24.6656 16 24.25V23C16 18.5813 19.5813 15 24 15C28.4187 15 32 18.5813 32 23V27.5031C32 29.0219 30.7688 30.2531 29.2469 30.2531L25.8 30.25C25.5406 30.6969 25.0562 31 24.5 31H23.5C22.6719 31 22 30.3281 22 29.5C22 28.6719 22.6719 28 23.5 28H24.5C25.0562 28 25.5406 28.3031 25.8 28.75L29.25 28.7531C29.9406 28.7531 30.5 28.1938 30.5 27.5031V23C30.5 19.4094 27.5906 16.5 24 16.5ZM20.5 21.5H21C21.5531 21.5 22 21.9469 22 22.5V26C22 26.5531 21.5531 27 21 27H20.5C19.3969 27 18.5 26.1031 18.5 25V23.5C18.5 22.3969 19.3969 21.5 20.5 21.5ZM27.5 21.5C28.6031 21.5 29.5 22.3969 29.5 23.5V25C29.5 26.1031 28.6031 27 27.5 27H27C26.4469 27 26 26.5531 26 26V22.5C26 21.9469 26.4469 21.5 27 21.5H27.5Z" fill="white"/>
</g>
<defs>
<clipPath id="clip0_194_2170">
<path d="M16 15H32V31H16V15Z" fill="white"/>
</clipPath>
</defs>
</svg>
