<svg width="30" height="36" viewBox="0 0 30 36" fill="none" xmlns="http://www.w3.org/2000/svg">
<path fill-rule="evenodd" clip-rule="evenodd" d="M20.4192 5.63448C21.7058 4.14332 22.5731 2.06644 22.3357 0C20.4817 0.0705882 18.2386 1.18438 16.9092 2.67377C15.7154 3.99552 14.6732 6.10747 14.9534 8.13333C17.0216 8.28684 19.1326 7.12739 20.4192 5.63448ZM25.057 18.75C25.1088 24.0917 29.9465 25.8686 30 25.8915C29.9607 26.0168 29.2273 28.4235 27.4518 30.9117C25.9154 33.0611 24.3218 35.2017 21.8111 35.2476C19.345 35.2917 18.5509 33.8465 15.7296 33.8465C12.9102 33.8465 12.0287 35.2015 9.69459 35.2915C7.27128 35.378 5.42436 32.9661 3.87723 30.8238C0.711591 26.4421 -1.70636 18.4413 1.54137 13.0414C3.15453 10.3609 6.03643 8.66081 9.16638 8.61845C11.5451 8.57434 13.7917 10.1522 15.2461 10.1522C16.7004 10.1522 19.4306 8.25519 22.3 8.53401C23.501 8.58166 26.8736 8.99798 29.0382 12.035C28.8633 12.1391 25.0142 14.2854 25.057 18.75Z" fill="black"/>
</svg>
