<svg width="30" height="30" viewBox="0 0 30 30" fill="none" xmlns="http://www.w3.org/2000/svg">
<path d="M15 30C23.2843 30 30 23.2843 30 15C30 6.71573 23.2843 0 15 0C6.71573 0 0 6.71573 0 15C0 23.2843 6.71573 30 15 30Z" fill="url(#paint0_linear_412_1011)"/>
<path d="M20.5869 19.5866L21.2533 15.3528H17.085V12.6067C17.085 11.4481 17.6662 10.3182 19.5332 10.3182H21.4294V6.71379C21.4294 6.71379 19.7092 6.42773 18.0654 6.42773C14.631 6.42773 12.3884 8.45588 12.3884 12.126V15.3528H8.57227V19.5866H12.3884V29.8218C13.1544 29.9392 13.9382 29.9992 14.7366 29.9992C15.5351 29.9992 16.3189 29.9392 17.085 29.8218V19.5866H20.5869Z" fill="white"/>
<defs>
<linearGradient id="paint0_linear_412_1011" x1="15" y1="0" x2="15" y2="29.9111" gradientUnits="userSpaceOnUse">
<stop stop-color="#18ACFE"/>
<stop offset="1" stop-color="#0163E0"/>
</linearGradient>
</defs>
</svg>
