<svg width="31" height="31" viewBox="0 0 31 31" fill="none" xmlns="http://www.w3.org/2000/svg">
<path d="M30.2118 15.7578C30.2118 14.4904 30.109 13.5655 29.8864 12.6064H15.4141V18.3268H23.909C23.7378 19.7484 22.8129 21.8893 20.7576 23.3279L20.7288 23.5194L25.3047 27.0642L25.6217 27.0959C28.5333 24.4069 30.2118 20.4506 30.2118 15.7578Z" fill="#4285F4"/>
<path d="M15.4147 30.8286C19.5765 30.8286 23.0704 29.4583 25.6224 27.0949L20.7583 23.3269C19.4566 24.2346 17.7096 24.8683 15.4147 24.8683C11.3385 24.8683 7.87885 22.1794 6.64559 18.4629L6.46482 18.4782L1.70676 22.1606L1.64453 22.3335C4.1793 27.3688 9.38592 30.8286 15.4147 30.8286Z" fill="#34A853"/>
<path d="M6.64521 18.4629C6.31981 17.5038 6.13148 16.4761 6.13148 15.4143C6.13148 14.3523 6.31981 13.3248 6.62809 12.3657L6.61947 12.1614L1.80178 8.41992L1.64415 8.4949C0.599452 10.5844 0 12.9309 0 15.4143C0 17.8977 0.599452 20.244 1.64415 22.3335L6.64521 18.4629Z" fill="#FBBC05"/>
<path d="M15.4147 5.96016C18.3091 5.96016 20.2615 7.21042 21.3748 8.25524L25.7251 4.00772C23.0534 1.52431 19.5765 0 15.4147 0C9.38592 0 4.1793 3.45963 1.64453 8.49493L6.62847 12.3657C7.87885 8.64913 11.3385 5.96016 15.4147 5.96016Z" fill="#EB4335"/>
</svg>
