<svg width="77" height="78" viewBox="0 0 77 78" fill="none" xmlns="http://www.w3.org/2000/svg">
<path d="M57.6614 0.873047C68.2087 0.873166 76.7589 9.42341 76.759 19.9707V58.167C76.7589 68.7143 68.2087 77.2645 57.6614 77.2646H19.4651C8.91779 77.2645 0.367547 68.7143 0.367432 58.167V19.9707C0.367571 9.42342 8.91781 0.873184 19.4651 0.873047H57.6614Z" fill="url(#paint0_linear_105_6216)"/>
<path d="M57.6614 0.873047C68.2087 0.873166 76.7589 9.42341 76.759 19.9707V58.167C76.7589 68.7143 68.2087 77.2645 57.6614 77.2646H19.4651C8.91779 77.2645 0.367547 68.7143 0.367432 58.167V19.9707C0.367571 9.42342 8.91781 0.873184 19.4651 0.873047H57.6614Z" stroke="#E5E7EB"/>
<path d="M51.0966 58.167H26.0302V19.9707H51.0966V58.167Z" stroke="#E5E7EB"/>
<g clip-path="url(#clip0_105_6216)">
<path d="M45.5794 26.0467C45.9095 25.2802 45.6633 24.385 44.9863 23.8926C44.3093 23.4002 43.3861 23.445 42.7539 23.9933L28.4304 36.5263C27.8709 37.0187 27.6695 37.8076 27.9325 38.5014C28.1954 39.1952 28.8668 39.6651 29.611 39.6651H35.8495L31.5469 49.7027C31.2168 50.4693 31.463 51.3645 32.14 51.8568C32.817 52.3492 33.7402 52.3045 34.3724 51.7561L48.6958 39.2231C49.2554 38.7308 49.4568 37.9419 49.1938 37.2481C48.9308 36.5543 48.265 36.0899 47.5153 36.0899H41.2768L45.5794 26.0467Z" fill="white"/>
</g>
<defs>
<linearGradient id="paint0_linear_105_6216" x1="0.367432" y1="39.0689" x2="76.7591" y2="39.0689" gradientUnits="userSpaceOnUse">
<stop stop-color="#0AB27E"/>
<stop offset="1" stop-color="#0AB27E" stop-opacity="0.8"/>
</linearGradient>
<clipPath id="clip0_105_6216">
<path d="M26.0302 23.5508H51.0962V52.1976H26.0302V23.5508Z" fill="white"/>
</clipPath>
</defs>
</svg>
