<svg xmlns="http://www.w3.org/2000/svg" width="77" height="78" viewBox="0 0 77 78" fill="none">
  <path d="M57.6611 0.873047C68.2084 0.873166 76.7587 9.42341 76.7588 19.9707V58.167C76.7587 68.7143 68.2084 77.2645 57.6611 77.2646H19.4648C8.91755 77.2645 0.367303 68.7143 0.367188 58.167V19.9707C0.367327 9.42342 8.91756 0.873184 19.4648 0.873047H57.6611Z" fill="url(#paint0_linear_105_6216)"/>
  <path d="M57.6611 0.873047C68.2084 0.873166 76.7587 9.42341 76.7588 19.9707V58.167C76.7587 68.7143 68.2084 77.2645 57.6611 77.2646H19.4648C8.91755 77.2645 0.367303 68.7143 0.367188 58.167V19.9707C0.367327 9.42342 8.91756 0.873184 19.4648 0.873047H57.6611Z" stroke="#E5E7EB"/>
  <path d="M45.5795 26.0467C45.9096 25.2802 45.6634 24.385 44.9864 23.8926C44.3094 23.4002 43.3862 23.445 42.754 23.9933L28.4305 36.5263C27.871 37.0187 27.6696 37.8076 27.9326 38.5014C28.1955 39.1952 28.867 39.6651 29.6111 39.6651H35.8496L31.547 49.7027C31.2169 50.4693 31.4631 51.3645 32.1401 51.8568C32.8171 52.3492 33.7403 52.3045 34.3725 51.7561L48.696 39.2231C49.2555 38.7308 49.4569 37.9419 49.1939 37.2481C48.931 36.5543 48.2651 36.0899 47.5154 36.0899H41.2769L45.5795 26.0467Z" fill="white"/>
  <defs>
    <linearGradient id="paint0_linear_105_6216" x1="0.367188" y1="39.0689" x2="76.7588" y2="39.0689" gradientUnits="userSpaceOnUse">
      <stop stop-color="#0AB27E"/>
      <stop offset="1" stop-color="#0AB27E" stop-opacity="0.8"/>
    </linearGradient>
  </defs>
</svg>