<svg width="78" height="78" viewBox="0 0 78 78" fill="none" xmlns="http://www.w3.org/2000/svg">
<path d="M57.9539 0.896484C68.5012 0.896604 77.0514 9.44685 77.0515 19.9941V58.1904C77.0514 68.7377 68.5012 77.288 57.9539 77.2881H19.7576C9.21027 77.2879 0.660028 68.7377 0.659912 58.1904V19.9941C0.660051 9.44686 9.21029 0.896621 19.7576 0.896484H57.9539Z" fill="url(#paint0_linear_105_6246)"/>
<path d="M57.9539 0.896484C68.5012 0.896604 77.0514 9.44685 77.0515 19.9941V58.1904C77.0514 68.7377 68.5012 77.288 57.9539 77.2881H19.7576C9.21027 77.2879 0.660028 68.7377 0.659912 58.1904V19.9941C0.660051 9.44686 9.21029 0.896621 19.7576 0.896484H57.9539Z" stroke="#E5E7EB"/>
<path d="M54.9695 58.1904H22.7419V19.9941H54.9695V58.1904Z" stroke="#E5E7EB"/>
<g clip-path="url(#clip0_105_6246)">
<path d="M40.4729 24.5813C40.1763 23.9659 39.5497 23.5742 38.8615 23.5742C38.1733 23.5742 37.5522 23.9659 37.2501 24.5813L33.6525 31.9836L25.6179 33.1698C24.9465 33.2705 24.387 33.7405 24.18 34.3839C23.973 35.0274 24.1408 35.7379 24.622 36.2135L30.4521 41.9821L29.0757 50.1341C28.9638 50.8055 29.2435 51.4881 29.7975 51.8854C30.3514 52.2826 31.0843 52.333 31.6886 52.0141L38.8671 48.1814L46.0456 52.0141C46.6499 52.333 47.3828 52.2882 47.9367 51.8854C48.4907 51.4825 48.7704 50.8055 48.6585 50.1341L47.2765 41.9821L53.1066 36.2135C53.5878 35.7379 53.7612 35.0274 53.5486 34.3839C53.336 33.7405 52.7821 33.2705 52.1107 33.1698L44.0705 31.9836L40.4729 24.5813Z" fill="white"/>
</g>
<defs>
<linearGradient id="paint0_linear_105_6246" x1="0.659912" y1="39.0923" x2="77.0516" y2="39.0923" gradientUnits="userSpaceOnUse">
<stop stop-color="#0AB27E"/>
<stop offset="1" stop-color="#0AB27E" stop-opacity="0.8"/>
</linearGradient>
<clipPath id="clip0_105_6246">
<path d="M22.7419 23.5742H54.9697V52.2211H22.7419V23.5742Z" fill="white"/>
</clipPath>
</defs>
</svg>
