<svg xmlns="http://www.w3.org/2000/svg" width="78" height="78" viewBox="0 0 78 78" fill="none">
  <path d="M57.9541 0.896484C68.5014 0.896604 77.0516 9.44685 77.0518 19.9941V58.1904C77.0516 68.7377 68.5014 77.288 57.9541 77.2881H19.7578C9.21052 77.2879 0.660272 68.7377 0.660156 58.1904V19.9941C0.660295 9.44686 9.21053 0.896621 19.7578 0.896484H57.9541Z" fill="url(#paint0_linear_105_6246)"/>
  <path d="M57.9541 0.896484C68.5014 0.896604 77.0516 9.44685 77.0518 19.9941V58.1904C77.0516 68.7377 68.5014 77.288 57.9541 77.2881H19.7578C9.21052 77.2879 0.660272 68.7377 0.660156 58.1904V19.9941C0.660295 9.44686 9.21053 0.896621 19.7578 0.896484H57.9541Z" stroke="#E5E7EB"/>
  <path d="M40.4737 24.5813C40.1772 23.9659 39.5506 23.5742 38.8624 23.5742C38.1742 23.5742 37.5531 23.9659 37.251 24.5813L33.6533 31.9836L25.6188 33.1698C24.9474 33.2705 24.3879 33.7405 24.1808 34.3839C23.9738 35.0274 24.1417 35.7379 24.6228 36.2135L30.4529 41.9821L29.0765 50.1341C28.9646 50.8055 29.2444 51.4881 29.7983 51.8854C30.3522 52.2826 31.0852 52.333 31.6894 52.0141L38.868 48.1814L46.0465 52.0141C46.6507 52.333 47.3837 52.2882 47.9376 51.8854C48.4915 51.4825 48.7713 50.8055 48.6594 50.1341L47.2774 41.9821L53.1075 36.2135C53.5886 35.7379 53.7621 35.0274 53.5495 34.3839C53.3369 33.7405 52.7829 33.2705 52.1115 33.1698L44.0714 31.9836L40.4737 24.5813Z" fill="white"/>
  <defs>
    <linearGradient id="paint0_linear_105_6246" x1="0.660156" y1="39.0923" x2="77.0518" y2="39.0923" gradientUnits="userSpaceOnUse">
      <stop stop-color="#0AB27E"/>
      <stop offset="1" stop-color="#0AB27E" stop-opacity="0.8"/>
    </linearGradient>
  </defs>
</svg>