<svg width="77" height="78" viewBox="0 0 77 78" fill="none" xmlns="http://www.w3.org/2000/svg">
<path d="M57.6614 0.898438C68.2087 0.898557 76.7589 9.4488 76.759 19.9961V58.1924C76.7589 68.7397 68.2087 77.2899 57.6614 77.29H19.4651C8.91779 77.2899 0.367547 68.7397 0.367432 58.1924V19.9961C0.367571 9.44881 8.91781 0.898575 19.4651 0.898438H57.6614Z" fill="url(#paint0_linear_105_6259)"/>
<path d="M57.6614 0.898438C68.2087 0.898557 76.7589 9.4488 76.759 19.9961V58.1924C76.7589 68.7397 68.2087 77.2899 57.6614 77.29H19.4651C8.91779 77.2899 0.367547 68.7397 0.367432 58.1924V19.9961C0.367571 9.44881 8.91781 0.898575 19.4651 0.898438H57.6614Z" stroke="#E5E7EB"/>
<path d="M58.266 23.3346C55.0047 24.7739 50.6465 24.9853 46.5755 23.2983C44.5959 22.4779 40.4237 20.4609 38.9999 18.4121C37.5763 20.4609 33.4041 22.4779 31.4244 23.2982C27.3532 24.9853 22.9953 24.7738 19.7338 23.3346C19.1485 23.0762 18.5072 23.5036 18.5072 24.1432C18.5072 58.4956 38.9999 60.0003 38.9999 60.0003C38.9999 60.0003 59.4927 58.4956 59.4927 24.1432C59.4927 23.5036 58.8514 23.0762 58.266 23.3346ZM25.4437 28.5923C28.0464 28.5923 30.5872 28.0862 32.9957 27.0881C34.3062 26.545 36.7916 25.4222 38.9998 23.8993C41.208 25.4222 43.6937 26.545 45.0041 27.0881C47.4129 28.0863 49.9537 28.5925 52.5562 28.5923C53.4708 28.5923 54.3803 28.5272 55.2723 28.4C53.9274 52.224 41.3412 55.4664 38.9999 55.8635C36.6587 55.4663 24.0725 52.2239 22.7275 28.3999C23.6195 28.5274 24.5291 28.5923 25.4437 28.5923Z" fill="white"/>
<path d="M38.9999 51.5619C41.4322 50.8572 48.7229 47.5152 50.7532 32.5557C48.2385 32.3669 45.7829 31.7815 43.4322 30.8083C42.4286 30.3928 40.7685 29.6554 38.9999 28.6582C37.2315 29.6554 35.5715 30.3928 34.5678 30.8083C32.2174 31.7814 29.7621 32.3667 27.2468 32.5557C29.2771 47.5152 36.5677 50.8573 38.9999 51.5619Z" fill="white"/>
<defs>
<linearGradient id="paint0_linear_105_6259" x1="0.367432" y1="39.0943" x2="76.7591" y2="39.0943" gradientUnits="userSpaceOnUse">
<stop stop-color="#023AA2"/>
<stop offset="1" stop-color="#023AA2" stop-opacity="0.8"/>
</linearGradient>
</defs>
</svg>
