<svg xmlns="http://www.w3.org/2000/svg" width="77" height="78" viewBox="0 0 77 78" fill="none">
  <path d="M57.6611 0.898438C68.2084 0.898557 76.7587 9.4488 76.7588 19.9961V58.1924C76.7587 68.7397 68.2084 77.2899 57.6611 77.29H19.4648C8.91755 77.2899 0.367303 68.7397 0.367188 58.1924V19.9961C0.367327 9.44881 8.91756 0.898575 19.4648 0.898438H57.6611Z" fill="url(#paint0_linear_105_6259)"/>
  <path d="M57.6611 0.898438C68.2084 0.898557 76.7587 9.4488 76.7588 19.9961V58.1924C76.7587 68.7397 68.2084 77.2899 57.6611 77.29H19.4648C8.91755 77.2899 0.367303 68.7397 0.367188 58.1924V19.9961C0.367327 9.44881 8.91756 0.898575 19.4648 0.898438H57.6611Z" stroke="#E5E7EB"/>
  <path d="M58.2666 23.3346C55.0054 24.7739 50.6471 24.9853 46.5761 23.2983C44.5965 22.4779 40.4243 20.4609 39.0005 18.4121C37.5769 20.4609 33.4047 22.4779 31.425 23.2982C27.3538 24.9853 22.9959 24.7738 19.7344 23.3346C19.1491 23.0762 18.5078 23.5036 18.5078 24.1432C18.5078 58.4956 39.0005 60.0003 39.0005 60.0003C39.0005 60.0003 59.4933 58.4956 59.4933 24.1432C59.4933 23.5036 58.852 23.0762 58.2666 23.3346ZM25.4443 28.5923C28.047 28.5923 30.5879 28.0862 32.9963 27.0881C34.3068 26.545 36.7923 25.4222 39.0004 23.8993C41.2086 25.4222 43.6943 26.545 45.0047 27.0881C47.4135 28.0863 49.9543 28.5925 52.5569 28.5923C53.4714 28.5923 54.3809 28.5272 55.2729 28.4C53.928 52.224 41.3418 55.4664 39.0005 55.8635C36.6593 55.4663 24.0731 52.2239 22.7281 28.3999C23.6201 28.5274 24.5297 28.5923 25.4443 28.5923Z" fill="white"/>
  <path d="M39.0011 51.5619C41.4334 50.8572 48.7241 47.5152 50.7544 32.5557C48.2397 32.3669 45.7841 31.7815 43.4334 30.8083C42.4298 30.3928 40.7697 29.6554 39.0011 28.6582C37.2327 29.6554 35.5728 30.3928 34.5691 30.8083C32.2186 31.7814 29.7633 32.3667 27.248 32.5557C29.2783 47.5152 36.5689 50.8573 39.0011 51.5619Z" fill="white"/>
  <defs>
    <linearGradient id="paint0_linear_105_6259" x1="0.367188" y1="39.0943" x2="76.7588" y2="39.0943" gradientUnits="userSpaceOnUse">
      <stop stop-color="#023AA2"/>
      <stop offset="1" stop-color="#023AA2" stop-opacity="0.8"/>
    </linearGradient>
  </defs>
</svg>