<svg width="78" height="78" viewBox="0 0 78 78" fill="none" xmlns="http://www.w3.org/2000/svg">
<path d="M57.9539 0.873047C68.5012 0.873166 77.0514 9.42341 77.0515 19.9707V58.167C77.0514 68.7143 68.5012 77.2645 57.9539 77.2646H19.7576C9.21027 77.2645 0.660028 68.7143 0.659912 58.167V19.9707C0.660051 9.42342 9.21029 0.873184 19.7576 0.873047H57.9539Z" fill="url(#paint0_linear_105_6229)"/>
<path d="M57.9539 0.873047C68.5012 0.873166 77.0514 9.42341 77.0515 19.9707V58.167C77.0514 68.7143 68.5012 77.2645 57.9539 77.2646H19.7576C9.21027 77.2645 0.660028 68.7143 0.659912 58.167V19.9707C0.660051 9.42342 9.21029 0.873184 19.7576 0.873047H57.9539Z" stroke="#E5E7EB"/>
<path d="M53.179 58.167H24.5325V19.9707H53.179V58.167Z" stroke="#E5E7EB"/>
<path d="M53.179 52.1973H24.5325V23.5508H53.179V52.1973Z" stroke="#E5E7EB"/>
<path d="M33.2888 48.601L32.5838 50.2515C31.5375 49.72 30.5752 49.0654 29.7023 48.2988L30.9724 47.0288C31.6718 47.6386 32.4495 48.1702 33.2888 48.601ZM26.8041 38.7704H25.0081C25.0864 39.9566 25.3102 41.1036 25.6627 42.189L27.33 41.5232C27.0559 40.6448 26.8712 39.7216 26.8041 38.7704ZM26.8041 36.98C26.8824 35.9281 27.095 34.9098 27.4251 33.953L25.7746 33.2481C25.355 34.423 25.092 35.6763 25.0081 36.98H26.8041ZM28.1301 32.3081C28.5665 31.4744 29.0925 30.6967 29.7023 29.9861L28.4323 28.716C27.6657 29.5889 27.0055 30.5512 26.4796 31.5975L28.1301 32.3081ZM46.745 47.0288C45.9673 47.7002 45.1 48.2765 44.1656 48.7297L44.8315 50.397C45.9896 49.8431 47.0583 49.1325 48.0151 48.2933L46.745 47.0288ZM30.9668 28.7216C31.7445 28.0502 32.6118 27.4739 33.5462 27.0207L32.8803 25.3534C31.7222 25.9073 30.6535 26.6179 29.7023 27.4571L30.9668 28.7216ZM49.5817 43.4423C49.1453 44.276 48.6193 45.0537 48.0095 45.7643L49.2796 47.0344C50.0461 46.1615 50.7063 45.1936 51.2322 44.1529L49.5817 43.4423ZM50.9077 38.7704C50.8294 39.8223 50.6168 40.8406 50.2867 41.7973L51.9372 42.5023C52.3569 41.3218 52.6198 40.0685 52.6982 38.7648H50.9077V38.7704ZM42.5039 49.4011C41.6255 49.6808 40.7023 49.8599 39.7511 49.927V51.723C40.9373 51.6447 42.0843 51.4209 43.1697 51.0684L42.5039 49.4011ZM37.9607 49.927C36.9088 49.8487 35.8905 49.6361 34.9337 49.306L34.2288 50.9565C35.4093 51.3761 36.6626 51.6391 37.9663 51.7174V49.927H37.9607ZM50.3818 34.2272C50.6615 35.1056 50.8406 36.0288 50.9077 36.98H52.7038C52.6254 35.7938 52.4016 34.6468 52.0491 33.5614L50.3818 34.2272ZM29.7023 45.7643C29.0309 44.9866 28.4546 44.1193 28.0014 43.1849L26.3341 43.8507C26.888 45.0089 27.5986 46.0776 28.4378 47.0344L29.7023 45.7643ZM39.7511 25.8234C40.803 25.9017 41.8157 26.1143 42.7781 26.4444L43.483 24.7939C42.3081 24.3742 41.0548 24.1113 39.7511 24.0273V25.8234ZM35.2079 26.3493C36.0863 26.0696 37.0095 25.8905 37.9607 25.8234V24.0273C36.7745 24.1057 35.6275 24.3295 34.5421 24.682L35.2079 26.3493ZM49.2796 28.716L48.0095 29.9861C48.6809 30.7638 49.2572 31.6311 49.716 32.5655L51.3833 31.8996C50.8294 30.7415 50.1188 29.6728 49.2796 28.716ZM46.745 28.7216L48.0151 27.4515C47.1422 26.685 46.1799 26.0248 45.1336 25.4989L44.4286 27.1494C45.2567 27.5858 46.04 28.1118 46.745 28.7216Z" fill="white"/>
<path d="M38.8559 45.4848C39.7212 45.4848 40.4226 44.7834 40.4226 43.9182C40.4226 43.053 39.7212 42.3516 38.8559 42.3516C37.9907 42.3516 37.2893 43.053 37.2893 43.9182C37.2893 44.7834 37.9907 45.4848 38.8559 45.4848Z" fill="white"/>
<path d="M39.2868 41.0085H38.3916C38.0223 41.0085 37.7202 40.7064 37.7202 40.3371C37.7202 36.3646 42.0508 36.7619 42.0508 34.3056C42.0508 33.1866 41.0549 32.0564 38.8392 32.0564C37.211 32.0564 36.3606 32.5935 35.5269 33.6622C35.3087 33.9419 34.9059 33.9979 34.6205 33.7965L33.8876 33.2817C33.5742 33.0635 33.5015 32.6215 33.7421 32.3194C34.9283 30.7975 36.3382 29.8184 38.8448 29.8184C41.771 29.8184 44.2944 31.4857 44.2944 34.3056C44.2944 38.0879 39.9638 37.8585 39.9638 40.3371C39.9582 40.7064 39.6561 41.0085 39.2868 41.0085Z" fill="white"/>
<defs>
<linearGradient id="paint0_linear_105_6229" x1="0.659912" y1="39.0689" x2="77.0516" y2="39.0689" gradientUnits="userSpaceOnUse">
<stop stop-color="#023AA2"/>
<stop offset="1" stop-color="#023AA2" stop-opacity="0.8"/>
</linearGradient>
</defs>
</svg>
