<svg xmlns="http://www.w3.org/2000/svg" width="78" height="78" viewBox="0 0 78 78" fill="none">
  <path d="M57.9541 0.873047C68.5014 0.873166 77.0516 9.42341 77.0518 19.9707V58.167C77.0516 68.7143 68.5014 77.2645 57.9541 77.2646H19.7578C9.21052 77.2645 0.660272 68.7143 0.660156 58.167V19.9707C0.660295 9.42342 9.21053 0.873184 19.7578 0.873047H57.9541Z" fill="url(#paint0_linear_105_6229)"/>
  <path d="M57.9541 0.873047C68.5014 0.873166 77.0516 9.42341 77.0518 19.9707V58.167C77.0516 68.7143 68.5014 77.2645 57.9541 77.2646H19.7578C9.21052 77.2645 0.660272 68.7143 0.660156 58.167V19.9707C0.660295 9.42342 9.21053 0.873184 19.7578 0.873047H57.9541Z" stroke="#E5E7EB"/>
  <path d="M33.9238 38.491L37.0072 41.5743L43.7905 34.791" stroke="white" stroke-width="1.16667" stroke-linecap="square"/>
  <path d="M38.8568 50.2076C40.3815 50.2076 41.6908 49.2854 42.2573 47.9683C42.4575 47.5027 43.1189 47.2288 43.5897 47.4164C44.9217 47.9472 46.4996 47.6735 47.5778 46.5953C48.6558 45.5172 48.9295 43.9392 48.3988 42.6074C48.2112 42.1365 48.4851 41.475 48.9507 41.2749C50.2678 40.7084 51.1901 39.3991 51.1901 37.8743C51.1901 36.3496 50.2678 35.0403 48.9507 34.4738C48.4851 34.2736 48.2112 33.6122 48.3988 33.1414C48.9296 31.8095 48.6559 30.2315 47.5778 29.1534C46.4996 28.0752 44.9217 27.8015 43.5898 28.3323C43.1189 28.5199 42.4575 28.246 42.2573 27.7804C41.6908 26.4633 40.3815 25.541 38.8568 25.541C37.332 25.541 36.0227 26.4633 35.4562 27.7804C35.256 28.2459 34.5946 28.5199 34.1238 28.3323C32.7919 27.8015 31.2139 28.0752 30.1358 29.1533C29.0576 30.2315 28.784 31.8094 29.3147 33.1413C29.5024 33.6121 29.2284 34.2736 28.7628 34.4738C27.4457 35.0403 26.5234 36.3496 26.5234 37.8743C26.5234 39.3991 27.4457 40.7084 28.7628 41.2749C29.2284 41.475 29.5023 42.1365 29.3147 42.6072C28.7839 43.9392 29.0576 45.5172 30.1358 46.5953C31.2139 47.6734 32.7919 47.9471 34.1238 47.4164C34.5946 47.2288 35.256 47.5027 35.4562 47.9683C36.0227 49.2854 37.332 50.2076 38.8568 50.2076Z" stroke="white" stroke-width="1.16667" stroke-linecap="square"/>
  <defs>
    <linearGradient id="paint0_linear_105_6229" x1="0.660156" y1="39.0689" x2="77.0518" y2="39.0689" gradientUnits="userSpaceOnUse">
      <stop stop-color="#023AA2"/>
      <stop offset="1" stop-color="#023AA2" stop-opacity="0.8"/>
    </linearGradient>
  </defs>
</svg>