<svg width="20" height="16" viewBox="0 0 20 16" fill="none" xmlns="http://www.w3.org/2000/svg">
<g clip-path="url(#clip0_978_2835)">
<g clip-path="url(#clip1_978_2835)">
<path d="M7 0C8.06087 0 9.07828 0.421427 9.82843 1.17157C10.5786 1.92172 11 2.93913 11 4C11 5.06087 10.5786 6.07828 9.82843 6.82843C9.07828 7.57857 8.06087 8 7 8C5.93913 8 4.92172 7.57857 4.17157 6.82843C3.42143 6.07828 3 5.06087 3 4C3 2.93913 3.42143 1.92172 4.17157 1.17157C4.92172 0.421427 5.93913 0 7 0ZM5.57188 9.5H8.42813C8.79688 9.5 9.15938 9.5375 9.50625 9.60312C9.44063 10.1812 9.7375 10.7156 10.1875 11.0031C9.66875 11.3344 9.35312 11.9906 9.5625 12.6687C9.6875 13.0719 9.85625 13.4656 10.075 13.8438C10.2937 14.2219 10.55 14.5656 10.8375 14.875C11.3281 15.4031 12.075 15.45 12.625 15.1469V15.175C12.625 15.4625 12.7094 15.7531 12.8719 15.9969H0.928125C0.415625 16 0 15.5844 0 15.0719C0 11.9937 2.49375 9.5 5.57188 9.5ZM13.625 6.81875C13.625 6.6 13.7656 6.40312 13.9781 6.35625C14.3062 6.28125 14.65 6.24062 15 6.24062C15.35 6.24062 15.6938 6.28125 16.0219 6.35625C16.2344 6.40312 16.375 6.6 16.375 6.81875V7.775C16.6219 7.88125 16.8562 8.01562 17.0719 8.175L17.85 7.72813C18.0406 7.61875 18.2781 7.64375 18.4281 7.80312C18.6656 8.05625 18.875 8.34062 19.0562 8.65312C19.2375 8.96562 19.3781 9.29062 19.4781 9.62187C19.5437 9.83125 19.4437 10.05 19.2531 10.1594L18.4719 10.6094C18.4844 10.7344 18.4937 10.8625 18.4937 10.9937C18.4937 11.125 18.4875 11.25 18.4719 11.3781L19.2531 11.8281C19.4437 11.9375 19.5406 12.1562 19.4781 12.3656C19.375 12.6969 19.2344 13.0219 19.0562 13.3344C18.8781 13.6469 18.6656 13.9312 18.4281 14.1844C18.2781 14.3438 18.0375 14.3687 17.85 14.2594L17.0719 13.8125C16.8562 13.9719 16.625 14.1062 16.375 14.2125V15.1687C16.375 15.3875 16.2344 15.5844 16.0219 15.6313C15.6938 15.7063 15.35 15.7469 15 15.7469C14.65 15.7469 14.3062 15.7063 13.9781 15.6313C13.7656 15.5844 13.625 15.3875 13.625 15.1687V14.2125C13.375 14.1062 13.1375 13.9719 12.9219 13.8094L12.15 14.2563C11.9594 14.3656 11.7219 14.3406 11.5719 14.1812C11.3344 13.9281 11.125 13.6438 10.9438 13.3313C10.7625 13.0188 10.6219 12.6938 10.5219 12.3625C10.4563 12.1531 10.5562 11.9344 10.7469 11.825L11.5219 11.3781C11.5094 11.25 11.5 11.1219 11.5 10.9906C11.5 10.8594 11.5063 10.7312 11.5219 10.6031L10.7437 10.1562C10.5531 10.0469 10.4563 9.82812 10.5188 9.61875C10.6219 9.2875 10.7594 8.9625 10.9406 8.65C11.1219 8.3375 11.3313 8.05313 11.5688 7.8C11.7188 7.64062 11.9563 7.61562 12.1469 7.725L12.9219 8.17188C13.1375 8.0125 13.375 7.87813 13.625 7.76875V6.81875ZM16.5031 10.9906C16.5124 10.7877 16.4804 10.585 16.4091 10.3947C16.3378 10.2045 16.2287 10.0306 16.0884 9.88374C15.948 9.73685 15.7794 9.61993 15.5926 9.54005C15.4058 9.46017 15.2047 9.41898 15.0016 9.41898C14.7984 9.41898 14.5973 9.46017 14.4105 9.54005C14.2237 9.61993 14.0551 9.73685 13.9147 9.88374C13.7744 10.0306 13.6653 10.2045 13.594 10.3947C13.5227 10.585 13.4907 10.7877 13.5 10.9906C13.4907 11.1936 13.5227 11.3963 13.594 11.5865C13.6653 11.7768 13.7744 11.9506 13.9147 12.0975C14.0551 12.2444 14.2237 12.3613 14.4105 12.4412C14.5973 12.5211 14.7984 12.5623 15.0016 12.5623C15.2047 12.5623 15.4058 12.5211 15.5926 12.4412C15.7794 12.3613 15.948 12.2444 16.0884 12.0975C16.2287 11.9506 16.3378 11.7768 16.4091 11.5865C16.4804 11.3963 16.5124 11.1936 16.5031 10.9906Z" fill="#556070"/>
</g>
</g>
<defs>
<clipPath id="clip0_978_2835">
<rect width="20" height="16" fill="white"/>
</clipPath>
<clipPath id="clip1_978_2835">
<path d="M0 0H20V16H0V0Z" fill="white"/>
</clipPath>
</defs>
</svg>
