<svg width="13" height="14" viewBox="0 0 13 14" fill="none" xmlns="http://www.w3.org/2000/svg">
<path d="M6.50043 0C5.98888 0 5.57167 0.419271 5.57167 0.933333V5.6C5.57167 6.11406 5.98888 6.53333 6.50043 6.53333C7.01198 6.53333 7.4292 6.11406 7.4292 5.6V0.933333C7.4292 0.419271 7.01198 0 6.50043 0ZM3.58715 1.69531C3.46743 1.7099 3.35133 1.75 3.24612 1.81198C0.706528 3.28854 -0.537874 6.30729 0.220376 9.15833C0.982255 12.0057 3.55813 13.9963 6.48955 14C9.42459 14.0036 12.0077 12.0203 12.7732 9.17656C13.5424 6.32916 12.3088 3.30677 9.77288 1.82292C9.33027 1.56042 8.76067 1.7099 8.50308 2.15833C8.37973 2.36979 8.34345 2.625 8.40513 2.86562C8.47043 3.10625 8.62281 3.31042 8.83686 3.43437C10.6545 4.49896 11.5325 6.64635 10.9846 8.68802C10.4332 10.726 8.59741 12.137 6.4968 12.1333C4.39257 12.1297 2.56043 10.7151 2.01623 8.67343C1.47203 6.63177 2.35364 4.48437 4.17489 3.42708C4.6175 3.16823 4.76988 2.59948 4.51229 2.15469C4.38894 1.93958 4.1894 1.78281 3.94995 1.72083C3.83386 1.68802 3.71051 1.68073 3.58715 1.69531Z" fill="#556070"/>
</svg>
