<svg width="29" height="29" viewBox="0 0 29 29" fill="none" xmlns="http://www.w3.org/2000/svg">
<path d="M14.3135 0C22.2186 0 28.6269 6.40835 28.627 14.3135C28.627 22.2187 22.2187 28.627 14.3135 28.627C6.40835 28.6269 0 22.2186 0 14.3135C7.98865e-05 6.4084 6.4084 7.98917e-05 14.3135 0Z" fill="#023AA2"/>
<path d="M14.3135 0C22.2186 0 28.6269 6.40835 28.627 14.3135C28.627 22.2187 22.2187 28.627 14.3135 28.627C6.40835 28.6269 0 22.2186 0 14.3135C7.98865e-05 6.4084 6.4084 7.98917e-05 14.3135 0Z" stroke="#E5E7EB"/>
<path d="M17.8149 17.2263C17.2743 16.287 16.2592 15.6559 15.0997 15.6559H13.5341C12.3746 15.6559 11.3595 16.287 10.8189 17.2263C11.6799 18.1852 12.9275 18.787 14.3169 18.787C15.7063 18.787 16.9539 18.1828 17.8149 17.2263ZM8.05469 14.0903C8.05469 12.4295 8.71445 10.8367 9.88885 9.66228C11.0632 8.48789 12.6561 7.82813 14.3169 7.82812C15.9777 7.82813 17.5706 8.48789 18.745 9.66228C19.9193 10.8367 20.5791 12.4295 20.5791 14.0903C20.5791 15.7512 19.9193 17.344 18.745 18.5184C17.5706 19.6928 15.9777 20.3525 14.3169 20.3525C12.6561 20.3525 11.0632 19.6928 9.88885 18.5184C8.71445 17.344 8.05469 15.7512 8.05469 14.0903ZM14.3169 14.4817C14.784 14.4817 15.232 14.2962 15.5623 13.9659C15.8926 13.6356 16.0781 13.1876 16.0781 12.7205C16.0781 12.2534 15.8926 11.8054 15.5623 11.4751C15.232 11.1448 14.784 10.9592 14.3169 10.9592C13.8498 10.9592 13.4018 11.1448 13.0715 11.4751C12.7412 11.8054 12.5557 12.2534 12.5557 12.7205C12.5557 13.1876 12.7412 13.6356 13.0715 13.9659C13.4018 14.2962 13.8498 14.4817 14.3169 14.4817Z" fill="white"/>
</svg>
