<svg width="29" height="29" viewBox="0 0 29 29" fill="none" xmlns="http://www.w3.org/2000/svg">
<path d="M14.3135 0C22.2186 0 28.6269 6.40835 28.627 14.3135C28.627 22.2187 22.2187 28.627 14.3135 28.627C6.40835 28.6269 0 22.2186 0 14.3135C7.98865e-05 6.4084 6.4084 7.98917e-05 14.3135 0Z" fill="#0AB27E"/>
<path d="M14.3135 0C22.2186 0 28.6269 6.40835 28.627 14.3135C28.627 22.2187 22.2187 28.627 14.3135 28.627C6.40835 28.6269 0 22.2186 0 14.3135C7.98865e-05 6.4084 6.4084 7.98917e-05 14.3135 0Z" stroke="#E5E7EB"/>
<path d="M15.0207 8.26844C14.8911 7.99936 14.6171 7.82812 14.3162 7.82812C14.0153 7.82812 13.7438 7.99936 13.6117 8.26844L12.0388 11.5047L8.52612 12.0233C8.23257 12.0673 7.98796 12.2728 7.89745 12.5541C7.80694 12.8354 7.88033 13.1461 8.0907 13.354L10.6396 15.876L10.0379 19.4401C9.98893 19.7337 10.1112 20.0321 10.3534 20.2058C10.5956 20.3795 10.916 20.4015 11.1802 20.262L14.3187 18.5864L17.4571 20.262C17.7213 20.4015 18.0417 20.3819 18.2839 20.2058C18.5261 20.0297 18.6484 19.7337 18.5995 19.4401L17.9953 15.876L20.5442 13.354C20.7545 13.1461 20.8304 12.8354 20.7374 12.5541C20.6445 12.2728 20.4023 12.0673 20.1088 12.0233L16.5936 11.5047L15.0207 8.26844Z" fill="white"/>
</svg>
