<svg width="29" height="29" viewBox="0 0 29 29" fill="none" xmlns="http://www.w3.org/2000/svg">
<path d="M14.3135 0C22.2186 0 28.6269 6.40835 28.627 14.3135C28.627 22.2187 22.2187 28.627 14.3135 28.627C6.40835 28.6269 0 22.2186 0 14.3135C7.98865e-05 6.4084 6.4084 7.98917e-05 14.3135 0Z" fill="#023AA2"/>
<path d="M14.3135 0C22.2186 0 28.6269 6.40835 28.627 14.3135C28.627 22.2187 22.2187 28.627 14.3135 28.627C6.40835 28.6269 0 22.2186 0 14.3135C7.98865e-05 6.4084 6.4084 7.98917e-05 14.3135 0Z" stroke="#E5E7EB"/>
<path d="M11.7765 8.76309C12.0187 8.98079 12.0383 9.35017 11.8206 9.59234L10.0593 11.5493C9.9517 11.6691 9.80003 11.7401 9.63859 11.7425C9.47714 11.745 9.32303 11.6838 9.20806 11.5713L8.22714 10.5928C7.99965 10.3629 7.99965 9.99107 8.22714 9.76112C8.45464 9.53118 8.8289 9.53118 9.0564 9.76112L9.597 10.3017L10.9448 8.80467C11.1626 8.5625 11.5319 8.54293 11.7741 8.76064L11.7765 8.76309ZM11.7765 12.677C12.0187 12.8947 12.0383 13.264 11.8206 13.5062L10.0593 15.4632C9.9517 15.583 9.80003 15.654 9.63859 15.6564C9.47714 15.6589 9.32303 15.5977 9.20806 15.4852L8.22714 14.5067C7.9972 14.2768 7.9972 13.9049 8.22714 13.6775C8.45708 13.45 8.8289 13.4475 9.0564 13.6775L9.597 14.2181L10.9448 12.721C11.1626 12.4788 11.5319 12.4593 11.7741 12.677H11.7765ZM13.5353 10.177C13.5353 9.744 13.8851 9.3942 14.3181 9.3942H19.7976C20.2305 9.3942 20.5803 9.744 20.5803 10.177C20.5803 10.6099 20.2305 10.9598 19.7976 10.9598H14.3181C13.8851 10.9598 13.5353 10.6099 13.5353 10.177ZM13.5353 14.0909C13.5353 13.6579 13.8851 13.3081 14.3181 13.3081H19.7976C20.2305 13.3081 20.5803 13.6579 20.5803 14.0909C20.5803 14.5238 20.2305 14.8736 19.7976 14.8736H14.3181C13.8851 14.8736 13.5353 14.5238 13.5353 14.0909ZM11.9698 18.0047C11.9698 17.5718 12.3196 17.222 12.7526 17.222H19.7976C20.2305 17.222 20.5803 17.5718 20.5803 18.0047C20.5803 18.4377 20.2305 18.7875 19.7976 18.7875H12.7526C12.3196 18.7875 11.9698 18.4377 11.9698 18.0047ZM9.23008 16.8306C9.54148 16.8306 9.84014 16.9543 10.0603 17.1745C10.2805 17.3947 10.4042 17.6933 10.4042 18.0047C10.4042 18.3161 10.2805 18.6148 10.0603 18.835C9.84014 19.0552 9.54148 19.1789 9.23008 19.1789C8.91867 19.1789 8.62001 19.0552 8.39982 18.835C8.17962 18.6148 8.05591 18.3161 8.05591 18.0047C8.05591 17.6933 8.17962 17.3947 8.39982 17.1745C8.62001 16.9543 8.91867 16.8306 9.23008 16.8306Z" fill="white"/>
</svg>
