<svg width="28" height="22" viewBox="0 0 28 22" fill="none" xmlns="http://www.w3.org/2000/svg">
<path d="M13.8067 0.789062C10.0712 0.789062 7.08002 2.49039 4.90251 4.51534C2.73887 6.52179 1.29182 8.92584 0.607587 10.5763C0.455023 10.9415 0.455023 11.3484 0.607587 11.7136C1.29182 13.3641 2.73887 15.7681 4.90251 17.7746C7.08002 19.7995 10.0712 21.5009 13.8067 21.5009C17.5423 21.5009 20.5334 19.7995 22.711 17.7746C24.8746 15.7635 26.3216 13.3641 27.0105 11.7136C27.1631 11.3484 27.1631 10.9415 27.0105 10.5763C26.3216 8.92584 24.8746 6.52179 22.711 4.51534C20.5334 2.49039 17.5423 0.789062 13.8067 0.789062ZM7.14937 11.145C7.14937 9.37932 7.85077 7.68599 9.09927 6.43749C10.3478 5.18899 12.0411 4.4876 13.8067 4.4876C15.5724 4.4876 17.2657 5.18899 18.5142 6.43749C19.7627 7.68599 20.4641 9.37932 20.4641 11.145C20.4641 12.9106 19.7627 14.6039 18.5142 15.8524C17.2657 17.1009 15.5724 17.8023 13.8067 17.8023C12.0411 17.8023 10.3478 17.1009 9.09927 15.8524C7.85077 14.6039 7.14937 12.9106 7.14937 11.145ZM13.8067 8.18613C13.8067 9.81811 12.4799 11.145 10.8479 11.145C10.5197 11.145 10.2053 11.0895 9.9094 10.9924C9.65513 10.9092 9.35924 11.0664 9.36849 11.3345C9.38236 11.6535 9.42859 11.9725 9.51643 12.2915C10.1498 14.6586 12.5862 16.064 14.9533 15.4306C17.3203 14.7973 18.7258 12.3609 18.0924 9.99379C17.5792 8.07517 15.8825 6.78531 13.9963 6.70672C13.7281 6.69747 13.571 6.98873 13.6542 7.24763C13.7513 7.54351 13.8067 7.85789 13.8067 8.18613Z" fill="#2563EB"/>
</svg>
