<svg width="22" height="25" viewBox="0 0 22 25" fill="none" xmlns="http://www.w3.org/2000/svg">
<g clip-path="url(#clip0_207_3490)">
<path d="M6.74271 1.74604L6.40984 2.40715H1.9716C1.1533 2.40715 0.492188 3.06826 0.492188 3.88656C0.492188 4.70486 1.1533 5.36598 1.9716 5.36598H19.7246C20.5429 5.36598 21.204 4.70486 21.204 3.88656C21.204 3.06826 20.5429 2.40715 19.7246 2.40715H15.2863L14.9535 1.74604C14.7038 1.24211 14.1906 0.927734 13.6312 0.927734H8.06494C7.50553 0.927734 6.99236 1.24211 6.74271 1.74604ZM19.7246 6.84539H1.9716L2.95171 22.5179C3.02568 23.6876 3.99655 24.5984 5.16621 24.5984H16.53C17.6996 24.5984 18.6705 23.6876 18.7445 22.5179L19.7246 6.84539Z" fill="#DC2626"/>
</g>
<defs>
<clipPath id="clip0_207_3490">
<path d="M0.492188 0.927734H21.204V24.5984H0.492188V0.927734Z" fill="white"/>
</clipPath>
</defs>
</svg>
