<svg width="25" height="25" viewBox="0 0 25 25" fill="none" xmlns="http://www.w3.org/2000/svg">
<g clip-path="url(#clip0_207_3511)">
<path d="M17.7395 19.6116L5.36324 7.23536C4.32765 8.68241 3.72201 10.4577 3.72201 12.3763C3.72201 17.2769 7.69794 21.2528 12.5985 21.2528C14.5171 21.2528 16.2924 20.6472 17.7395 19.6116ZM19.8337 17.5173C20.8693 16.0702 21.475 14.2949 21.475 12.3763C21.475 7.47577 17.4991 3.49984 12.5985 3.49984C10.6799 3.49984 8.90458 4.10548 7.45753 5.14107L19.8337 17.5173ZM0.763184 12.3763C0.763184 9.23741 2.01011 6.22705 4.22967 4.0075C6.44922 1.78795 9.45957 0.541016 12.5985 0.541016C15.7374 0.541016 18.7478 1.78795 20.9673 4.0075C23.1869 6.22705 24.4338 9.23741 24.4338 12.3763C24.4338 15.5152 23.1869 18.5256 20.9673 20.7452C18.7478 22.9647 15.7374 24.2116 12.5985 24.2116C9.45957 24.2116 6.44922 22.9647 4.22967 20.7452C2.01011 18.5256 0.763184 15.5152 0.763184 12.3763Z" fill="#4B5563"/>
</g>
<defs>
<clipPath id="clip0_207_3511">
<path d="M0.763184 0.541016H24.4338V24.2116H0.763184V0.541016Z" fill="white"/>
</clipPath>
</defs>
</svg>
