<svg width="25" height="25" viewBox="0 0 25 25" fill="none" xmlns="http://www.w3.org/2000/svg">
<g clip-path="url(#clip0_207_3504)">
<path d="M13.8069 2.02043C13.8069 1.20213 13.1458 0.541016 12.3275 0.541016C11.5092 0.541016 10.8481 1.20213 10.8481 2.02043V13.2409L7.45468 9.84745C6.87678 9.26956 5.93828 9.26956 5.36038 9.84745C4.78249 10.4253 4.78249 11.3639 5.36038 11.9417L11.278 17.8594C11.8559 18.4373 12.7944 18.4373 13.3723 17.8594L19.29 11.9417C19.8679 11.3639 19.8679 10.4253 19.29 9.84745C18.7121 9.26956 17.7736 9.26956 17.1957 9.84745L13.8069 13.2409V2.02043ZM3.45101 16.8146C1.81904 16.8146 0.492188 18.1414 0.492188 19.7734V21.2528C0.492188 22.8848 1.81904 24.2116 3.45101 24.2116H21.204C22.836 24.2116 24.1628 22.8848 24.1628 21.2528V19.7734C24.1628 18.1414 22.836 16.8146 21.204 16.8146H16.5115L14.4172 18.9089C13.2614 20.0647 11.389 20.0647 10.2332 18.9089L8.14353 16.8146H3.45101ZM20.4643 19.4035C20.7585 19.4035 21.0408 19.5204 21.2488 19.7285C21.4569 19.9366 21.5738 20.2188 21.5738 20.5131C21.5738 20.8074 21.4569 21.0896 21.2488 21.2977C21.0408 21.5058 20.7585 21.6227 20.4643 21.6227C20.17 21.6227 19.8878 21.5058 19.6797 21.2977C19.4716 21.0896 19.3547 20.8074 19.3547 20.5131C19.3547 20.2188 19.4716 19.9366 19.6797 19.7285C19.8878 19.5204 20.17 19.4035 20.4643 19.4035Z" fill="#9333EA"/>
</g>
<defs>
<clipPath id="clip0_207_3504">
<path d="M0.492188 0.541016H24.1628V24.2116H0.492188V0.541016Z" fill="white"/>
</clipPath>
</defs>
</svg>
