<svg width="25" height="24" viewBox="0 0 25 24" fill="none" xmlns="http://www.w3.org/2000/svg">
<g clip-path="url(#clip0_207_3483)">
<path d="M22.566 1.31404C21.5536 0.301569 19.917 0.301569 18.9045 1.31404L17.5129 2.70099L22.039 7.22707L23.4306 5.8355C24.443 4.82303 24.443 3.18643 23.4306 2.17395L22.566 1.31404ZM8.73352 11.485C8.45151 11.767 8.23422 12.1138 8.1094 12.4975L6.74094 16.6029C6.60687 17.0004 6.7132 17.4396 7.00908 17.7402C7.30497 18.0407 7.74417 18.1424 8.14638 18.0083L12.2518 16.6398C12.6309 16.515 12.9776 16.2977 13.2642 16.0157L20.9988 8.27653L16.4681 3.74583L8.73352 11.485ZM5.20142 3.26964C2.75115 3.26964 0.763184 5.2576 0.763184 7.70788V19.5432C0.763184 21.9935 2.75115 23.9814 5.20142 23.9814H17.0367C19.487 23.9814 21.475 21.9935 21.475 19.5432V15.105C21.475 14.2866 20.8139 13.6255 19.9956 13.6255C19.1773 13.6255 18.5161 14.2866 18.5161 15.105V19.5432C18.5161 20.3615 17.855 21.0226 17.0367 21.0226H5.20142C4.38312 21.0226 3.72201 20.3615 3.72201 19.5432V7.70788C3.72201 6.88958 4.38312 6.22847 5.20142 6.22847H9.63966C10.458 6.22847 11.1191 5.56736 11.1191 4.74906C11.1191 3.93076 10.458 3.26964 9.63966 3.26964H5.20142Z" fill="#059669"/>
</g>
<defs>
<clipPath id="clip0_207_3483">
<path d="M0.763184 0.310547H24.4338V23.9812H0.763184V0.310547Z" fill="white"/>
</clipPath>
</defs>
</svg>
