<svg width="16" height="25" viewBox="0 0 16 25" fill="none" xmlns="http://www.w3.org/2000/svg">
<g clip-path="url(#clip0_207_3497)">
<path d="M2.9823 3.88477C1.75716 3.88477 0.763184 4.87875 0.763184 6.10389V19.4186C0.763184 20.6437 1.75716 21.6377 2.9823 21.6377H4.46172C5.68686 21.6377 6.68084 20.6437 6.68084 19.4186V6.10389C6.68084 4.87875 5.68686 3.88477 4.46172 3.88477H2.9823ZM11.8588 3.88477C10.6336 3.88477 9.63967 4.87875 9.63967 6.10389V19.4186C9.63967 20.6437 10.6336 21.6377 11.8588 21.6377H13.3382C14.5633 21.6377 15.5573 20.6437 15.5573 19.4186V6.10389C15.5573 4.87875 14.5633 3.88477 13.3382 3.88477H11.8588Z" fill="#EA580C"/>
</g>
<defs>
<clipPath id="clip0_207_3497">
<path d="M0.763184 0.927734H15.5573V24.5984H0.763184V0.927734Z" fill="white"/>
</clipPath>
</defs>
</svg>
